<svg width="60" height="60" viewBox="0 0 60 60" fill="none" xmlns="http://www.w3.org/2000/svg">
<path d="M51.4286 60L8.57143 60C3.85714 60 3.37202e-07 56.1429 7.49338e-07 51.4286L4.49603e-06 8.57142C4.90816e-06 3.85714 3.85715 -4.90816e-06 8.57143 -4.49603e-06L51.4286 -7.49338e-07C56.1429 -3.37202e-07 60 3.85714 60 8.57143L60 51.4286C60 56.1429 56.1429 60 51.4286 60Z" fill="url(#paint0_linear_298_1253)"/>
<path d="M14.6576 33.8571L29.4862 48.2571C29.7433 48.5142 30.0862 48.5142 30.3433 48.2571L45.2576 33.7714C45.5147 33.5142 45.5147 33.1714 45.2576 32.9142C45.1719 32.8285 45.0862 32.7428 44.9147 32.7428L40.8861 32.7428L40.8861 32.8285L24.5147 32.8285L19.8004 32.8285L18.6004 32.8285L15.0861 32.8285C14.9147 32.8285 14.7433 32.9142 14.6576 32.9999C14.4004 33.2571 14.4004 33.5999 14.6576 33.8571Z" fill="white"/>
<path d="M24.5146 30.7715L35.4861 30.7715L35.4861 15.4286L24.5146 15.4286L24.5146 30.7715Z" fill="white"/>
<defs>
<linearGradient id="paint0_linear_298_1253" x1="29.9846" y1="60" x2="29.9846" y2="-2.62403e-06" gradientUnits="userSpaceOnUse">
<stop stop-color="#5CA2FE"/>
<stop offset="1" stop-color="#3780F8"/>
</linearGradient>
</defs>
</svg>
