<svg width="60" height="60" viewBox="0 0 60 60" fill="none" xmlns="http://www.w3.org/2000/svg">
<path d="M60 8.57143L60 51.4286C60 56.1429 56.1429 60 51.4286 60L8.57142 60C3.85714 60 -2.45408e-06 56.1429 -2.24801e-06 51.4286L-3.74669e-07 8.57143C-1.68601e-07 3.85714 3.85714 -2.45408e-06 8.57143 -2.24801e-06L51.4286 -3.74669e-07C56.1429 -1.68601e-07 60 3.85714 60 8.57143Z" fill="url(#paint0_linear_298_1257)"/>
<path d="M33.8571 45.3425L48.2571 30.514C48.5142 30.2568 48.5142 29.914 48.2571 29.6568L33.7714 14.7425C33.5142 14.4854 33.1714 14.4854 32.9142 14.7425C32.8285 14.8283 32.7428 14.914 32.7428 15.0854L32.7428 19.114L32.8285 19.114L32.8285 35.4854L32.8285 40.1997L32.8285 41.3997L32.8285 44.914C32.8285 45.0854 32.9142 45.2568 32.9999 45.3425C33.2571 45.5997 33.5999 45.5997 33.8571 45.3425Z" fill="white"/>
<path d="M30.7715 35.4854L30.7715 24.5139L15.4286 24.5139L15.4286 35.4854L30.7715 35.4854Z" fill="white"/>
<defs>
<linearGradient id="paint0_linear_298_1257" x1="60" y1="30.0154" x2="-1.31202e-06" y2="30.0154" gradientUnits="userSpaceOnUse">
<stop stop-color="#5CA2FE"/>
<stop offset="1" stop-color="#3780F8"/>
</linearGradient>
</defs>
</svg>
