<svg width="60" height="60" viewBox="0 0 60 60" fill="none" xmlns="http://www.w3.org/2000/svg">
<path d="M8.57143 0H51.4286C56.1429 0 60 3.85714 60 8.57143V51.4286C60 56.1429 56.1429 60 51.4286 60H8.57143C3.85714 60 0 56.1429 0 51.4286V8.57143C0 3.85714 3.85714 0 8.57143 0Z" fill="url(#paint0_linear_298_1249)"/>
<path d="M45.3424 26.1428L30.5138 11.7428C30.2567 11.4856 29.9138 11.4856 29.6567 11.7428L14.7424 26.2285C14.4853 26.4856 14.4853 26.8285 14.7424 27.0856C14.8281 27.1714 14.9138 27.2571 15.0853 27.2571H19.1139V27.1714H35.4853H40.1996H41.3996H44.9139C45.0853 27.1714 45.2567 27.0856 45.3424 26.9999C45.5996 26.7428 45.5996 26.3999 45.3424 26.1428Z" fill="white"/>
<path d="M35.4854 29.2285H24.5139V44.5714H35.4854V29.2285Z" fill="white"/>
<defs>
<linearGradient id="paint0_linear_298_1249" x1="30.0154" y1="0" x2="30.0154" y2="60" gradientUnits="userSpaceOnUse">
<stop stop-color="#7EB6FF"/>
<stop offset="1" stop-color="#2570EC"/>
</linearGradient>
</defs>
</svg>
