<svg width="60" height="60" viewBox="0 0 60 60" fill="none" xmlns="http://www.w3.org/2000/svg">
<path d="M1.12401e-06 51.4286L6.74404e-06 8.57143C7.36225e-06 3.85714 3.85715 5.05803e-07 8.57144 1.12401e-06L51.4286 6.74404e-06C56.1429 7.36225e-06 60 3.85715 60 8.57143L60 51.4286C60 56.1429 56.1429 60 51.4286 60L8.57143 60C3.85714 60 5.05803e-07 56.1429 1.12401e-06 51.4286Z" fill="url(#paint0_linear_298_1261)"/>
<path d="M26.1428 14.6576L11.7428 29.4862C11.4856 29.7433 11.4856 30.0862 11.7428 30.3433L26.2285 45.2576C26.4856 45.5147 26.8285 45.5147 27.0856 45.2576C27.1714 45.1719 27.2571 45.0862 27.2571 44.9147L27.2571 40.8862L27.1714 40.8862L27.1714 24.5147L27.1714 19.8004L27.1714 18.6004L27.1714 15.0861C27.1714 14.9147 27.0856 14.7433 26.9999 14.6576C26.7428 14.4004 26.3999 14.4004 26.1428 14.6576Z" fill="white"/>
<path d="M29.2285 24.5146L29.2285 35.4861L44.5714 35.4861L44.5714 24.5146L29.2285 24.5146Z" fill="white"/>
<defs>
<linearGradient id="paint0_linear_298_1261" x1="3.93605e-06" y1="29.9846" x2="60" y2="29.9846" gradientUnits="userSpaceOnUse">
<stop stop-color="#5CA2FE"/>
<stop offset="1" stop-color="#3780F8"/>
</linearGradient>
</defs>
</svg>
