<svg width="41" height="41" viewBox="0 0 41 41" fill="none" xmlns="http://www.w3.org/2000/svg">
<path d="M32.4634 8.54163H16.798C15.4392 8.54282 14.1366 9.08356 13.1764 10.045L3.91719 19.287C3.75707 19.4459 3.62998 19.6348 3.54325 19.843C3.45652 20.0512 3.41187 20.2744 3.41187 20.5C3.41187 20.7255 3.45652 20.9488 3.54325 21.1569C3.62998 21.3651 3.75707 21.5541 3.91719 21.7129L13.1764 30.955C14.1366 31.9164 15.4392 32.4571 16.798 32.4583H32.4634C33.8227 32.4583 35.1262 31.9183 36.0874 30.9572C37.0485 29.9961 37.5884 28.6925 37.5884 27.3333V13.6666C37.5884 12.3074 37.0485 11.0038 36.0874 10.0427C35.1262 9.08158 33.8227 8.54163 32.4634 8.54163ZM34.1718 27.3333C34.1718 27.7864 33.9918 28.2209 33.6714 28.5413C33.351 28.8616 32.9165 29.0416 32.4634 29.0416H16.798C16.3457 29.0353 15.9125 28.8584 15.5851 28.5462L7.53885 20.5L15.5851 12.4537C15.9125 12.1415 16.3457 11.9646 16.798 11.9583H32.4634C32.9165 11.9583 33.351 12.1383 33.6714 12.4587C33.9918 12.779 34.1718 13.2135 34.1718 13.6666V27.3333ZM28.5514 15.8704C28.3925 15.7103 28.2036 15.5832 27.9954 15.4964C27.7872 15.4097 27.564 15.3651 27.3384 15.3651C27.1129 15.3651 26.8896 15.4097 26.6814 15.4964C26.4733 15.5832 26.2843 15.7103 26.1255 15.8704L23.9218 18.0912L21.718 15.8704C21.3963 15.5487 20.96 15.368 20.5051 15.368C20.0502 15.368 19.6139 15.5487 19.2922 15.8704C18.9705 16.1921 18.7898 16.6284 18.7898 17.0833C18.7898 17.5382 18.9705 17.9745 19.2922 18.2962L21.513 20.5L19.2922 22.7037C19.1329 22.863 19.0066 23.0521 18.9204 23.2602C18.8341 23.4683 18.7898 23.6914 18.7898 23.9166C18.7898 24.1419 18.8341 24.3649 18.9204 24.5731C19.0066 24.7812 19.1329 24.9703 19.2922 25.1295C19.6139 25.4512 20.0502 25.6319 20.5051 25.6319C20.7304 25.6319 20.9534 25.5876 21.1615 25.5014C21.3696 25.4152 21.5587 25.2888 21.718 25.1295L23.9218 22.9087L26.1255 25.1295C26.4472 25.4512 26.8835 25.6319 27.3384 25.6319C27.7934 25.6319 28.2297 25.4512 28.5514 25.1295C28.873 24.8079 29.0538 24.3716 29.0538 23.9166C29.0538 23.4617 28.873 23.0254 28.5514 22.7037L26.3305 20.5L28.5514 18.2962C28.7115 18.1374 28.8386 17.9485 28.9253 17.7403C29.012 17.5321 29.0567 17.3088 29.0567 17.0833C29.0567 16.8578 29.012 16.6345 28.9253 16.4263C28.8386 16.2181 28.7115 16.0292 28.5514 15.8704Z" fill="#0070FF"/>
</svg>
