<svg width="43" height="40" viewBox="0 0 43 40" fill="none" xmlns="http://www.w3.org/2000/svg">
<path d="M36.6443 40H5.63758C2.53691 40 0 37.5839 0 34.6309V5.36913C0 2.41611 2.53691 0 5.63758 0H36.6443C39.745 0 42.2819 2.41611 42.2819 5.36913V34.6309C42.2819 37.5839 39.745 40 36.6443 40Z" fill="url(#paint0_linear_298_1865)"/>
<path d="M6.38916 10.2012C16.3489 10.2012 26.2147 10.2012 36.1744 10.2012Z" fill="url(#paint1_linear_298_1865)"/>
<path d="M6.38916 10.2012C16.3489 10.2012 26.2147 10.2012 36.1744 10.2012" stroke="white" stroke-width="1.5" stroke-miterlimit="10" stroke-linecap="round"/>
<path d="M6.38916 19.7764C16.3489 19.7764 26.2147 19.7764 36.1744 19.7764Z" fill="url(#paint2_linear_298_1865)"/>
<path d="M6.38916 19.7764C16.3489 19.7764 26.2147 19.7764 36.1744 19.7764" stroke="white" stroke-width="1.5" stroke-miterlimit="10" stroke-linecap="round"/>
<path d="M6.38916 29.4404C16.3489 29.4404 26.2147 29.4404 36.1744 29.4404Z" fill="url(#paint3_linear_298_1865)"/>
<path d="M6.38916 29.4404C16.3489 29.4404 26.2147 29.4404 36.1744 29.4404" stroke="white" stroke-width="1.5" stroke-miterlimit="10" stroke-linecap="round"/>
<path d="M31.3826 5.6377C31.3826 15.1232 31.3826 24.5191 31.3826 34.0046Z" fill="url(#paint4_linear_298_1865)"/>
<path d="M31.3826 5.6377C31.3826 15.1232 31.3826 24.5191 31.3826 34.0046" stroke="white" stroke-width="1.5" stroke-miterlimit="10" stroke-linecap="round"/>
<path d="M21.2349 5.6377C21.2349 15.1232 21.2349 24.5191 21.2349 34.0046Z" fill="url(#paint5_linear_298_1865)"/>
<path d="M21.2349 5.6377C21.2349 15.1232 21.2349 24.5191 21.2349 34.0046" stroke="white" stroke-width="1.5" stroke-miterlimit="10" stroke-linecap="round"/>
<path d="M11.1812 5.6377C11.1812 15.1232 11.1812 24.5191 11.1812 34.0046Z" fill="url(#paint6_linear_298_1865)"/>
<path d="M11.1812 5.6377C11.1812 15.1232 11.1812 24.5191 11.1812 34.0046" stroke="white" stroke-width="1.5" stroke-miterlimit="10" stroke-linecap="round"/>
<defs>
<linearGradient id="paint0_linear_298_1865" x1="21.1518" y1="0" x2="21.1518" y2="40" gradientUnits="userSpaceOnUse">
<stop stop-color="#7EB6FF"/>
<stop offset="1" stop-color="#2570EC"/>
</linearGradient>
<linearGradient id="paint1_linear_298_1865" x1="21.2894" y1="10.2012" x2="21.2894" y2="11.2012" gradientUnits="userSpaceOnUse">
<stop stop-color="#7EB6FF"/>
<stop offset="1" stop-color="#2570EC"/>
</linearGradient>
<linearGradient id="paint2_linear_298_1865" x1="21.2894" y1="19.7764" x2="21.2894" y2="20.7764" gradientUnits="userSpaceOnUse">
<stop stop-color="#7EB6FF"/>
<stop offset="1" stop-color="#2570EC"/>
</linearGradient>
<linearGradient id="paint3_linear_298_1865" x1="21.2894" y1="29.4404" x2="21.2894" y2="30.4404" gradientUnits="userSpaceOnUse">
<stop stop-color="#7EB6FF"/>
<stop offset="1" stop-color="#2570EC"/>
</linearGradient>
<linearGradient id="paint4_linear_298_1865" x1="31.8828" y1="5.6377" x2="31.8828" y2="34.0046" gradientUnits="userSpaceOnUse">
<stop stop-color="#7EB6FF"/>
<stop offset="1" stop-color="#2570EC"/>
</linearGradient>
<linearGradient id="paint5_linear_298_1865" x1="21.7351" y1="5.6377" x2="21.7351" y2="34.0046" gradientUnits="userSpaceOnUse">
<stop stop-color="#7EB6FF"/>
<stop offset="1" stop-color="#2570EC"/>
</linearGradient>
<linearGradient id="paint6_linear_298_1865" x1="11.6814" y1="5.6377" x2="11.6814" y2="34.0046" gradientUnits="userSpaceOnUse">
<stop stop-color="#7EB6FF"/>
<stop offset="1" stop-color="#2570EC"/>
</linearGradient>
</defs>
</svg>
