<svg width="72" height="64" viewBox="0 0 72 64" fill="none" xmlns="http://www.w3.org/2000/svg">
<g filter="url(#filter0_d_1359_5512)">
<path d="M66.6966 35.5525L47.6058 28.3562C46.3595 27.9024 45 27.7728 43.6404 27.9672C37.1824 29.0694 5.1755 35.6173 5.1755 35.6173C4.21247 35.8118 3.98587 37.2381 4.83561 37.8216L17.6383 47.8056C19.5078 49.1022 21.7737 49.4912 23.9264 48.9725L29.7613 47.4166L34.4065 48.3242L58.0293 41.7115L59.1056 39.7017L63.3543 38.5996L66.64 37.8216C67.6597 37.5623 67.7163 35.9415 66.6966 35.5525Z" fill="url(#paint0_linear_1359_5512)"/>
</g>
<path d="M67.2628 34.9041L48.172 27.7078C46.9257 27.254 45.5661 27.1243 44.2065 27.3188C37.7485 28.4209 5.74167 34.9689 5.74167 34.9689C4.77863 35.1634 4.55203 36.5897 5.40177 37.1731L18.2045 47.1571C20.0739 48.4538 22.3399 48.8428 24.4926 48.3241L29.761 46.8978L34.4062 47.8055L57.8024 41.063L58.8787 39.0533L63.9205 37.9511L67.2062 37.1731C68.2258 36.9138 68.2825 35.293 67.2628 34.9041Z" fill="url(#paint1_radial_1359_5512)"/>
<g filter="url(#filter1_d_1359_5512)">
<path d="M24.3795 33.3481C24.2095 33.3481 24.0396 33.2833 23.9263 33.1537C23.6997 32.8943 23.6997 32.4405 23.9263 32.1164C25.0026 30.9494 25.4558 29.8473 25.3425 28.8748C25.2859 28.4858 25.1726 28.2913 24.6061 27.4485C24.3795 27.1244 24.1529 26.7354 23.813 26.2167C22.3401 23.8828 21.547 22.5862 21.6037 21.2895C21.6603 20.3819 22.1135 18.9556 24.0396 17.5293C24.3228 17.3348 24.7194 17.3997 24.8893 17.7238C25.0593 18.048 25.0026 18.5018 24.7194 18.6963C23.5297 19.5391 22.9066 20.4467 22.85 21.2895C22.7933 22.0675 23.643 23.3641 24.8327 25.3091C25.1159 25.8277 25.3992 26.1519 25.5691 26.476C26.1923 27.3837 26.4755 27.8375 26.5322 28.6155C26.7021 30.0418 26.079 31.5329 24.7194 33.024C24.6627 33.2833 24.5494 33.3481 24.3795 33.3481Z" fill="url(#paint2_linear_1359_5512)"/>
<path d="M33.7267 33.3481C33.5567 33.3481 33.3868 33.2833 33.2735 33.1537C33.0469 32.8943 33.0469 32.4405 33.2735 32.1164C34.3498 30.9494 34.803 29.8473 34.6897 28.8748C34.633 28.4858 34.5197 28.2913 33.9532 27.4485C33.7267 27.1244 33.5001 26.7354 33.1602 26.2167C31.6873 23.8828 30.8942 22.5862 30.9508 21.2895C31.0075 20.3819 31.4607 18.9556 33.3868 17.5293C33.67 17.3348 34.0665 17.3997 34.2365 17.7238C34.4064 18.048 34.3498 18.5018 34.0665 18.6963C32.8769 19.5391 32.2538 20.4467 32.1971 21.2895C32.1405 22.0675 32.9902 23.3641 34.1798 25.3091C34.4631 25.8277 34.7463 26.1519 34.9163 26.476C35.5394 27.3837 35.8227 27.8375 35.8793 28.6155C36.0493 30.0418 35.4261 31.5329 34.0665 33.024C34.0099 33.2833 33.8966 33.3481 33.7267 33.3481Z" fill="url(#paint3_linear_1359_5512)"/>
<path d="M42.9605 33.3481C42.7906 33.3481 42.6206 33.2833 42.5073 33.1537C42.2807 32.8943 42.2807 32.4405 42.5073 32.1164C43.5837 30.9494 44.0369 29.8473 43.9236 28.8748C43.8669 28.4858 43.7536 28.2913 43.1871 27.4485C42.9605 27.1244 42.7339 26.7354 42.394 26.2167C40.9212 23.8828 40.1281 22.5862 40.1847 21.2895C40.2414 20.3819 40.6946 18.9556 42.6206 17.5293C42.9039 17.3348 43.3004 17.3997 43.4704 17.7238C43.6403 18.048 43.5837 18.5018 43.3004 18.6963C42.1108 19.5391 41.4877 20.4467 41.431 21.2895C41.3744 22.0675 42.2241 23.3641 43.4137 25.3091C43.697 25.8277 43.9802 26.1519 44.1502 26.476C44.7733 27.3837 45.0566 27.8375 45.1132 28.6155C45.2832 30.0418 44.66 31.5329 43.3004 33.024C43.3004 33.2833 43.1305 33.3481 42.9605 33.3481Z" fill="url(#paint4_linear_1359_5512)"/>
</g>
<defs>
<filter id="filter0_d_1359_5512" x="0.309326" y="27.8798" width="71.1243" height="29.3151" filterUnits="userSpaceOnUse" color-interpolation-filters="sRGB">
<feFlood flood-opacity="0" result="BackgroundImageFix"/>
<feColorMatrix in="SourceAlpha" type="matrix" values="0 0 0 0 0 0 0 0 0 0 0 0 0 0 0 0 0 0 127 0" result="hardAlpha"/>
<feOffset dy="4"/>
<feGaussianBlur stdDeviation="2"/>
<feComposite in2="hardAlpha" operator="out"/>
<feColorMatrix type="matrix" values="0 0 0 0 0 0 0 0 0 0 0 0 0 0 0 0 0 0 0.25 0"/>
<feBlend mode="normal" in2="BackgroundImageFix" result="effect1_dropShadow_1359_5512"/>
<feBlend mode="normal" in="SourceGraphic" in2="effect1_dropShadow_1359_5512" result="shape"/>
</filter>
<filter id="filter1_d_1359_5512" x="17.6008" y="17.4199" width="31.5398" height="25.9282" filterUnits="userSpaceOnUse" color-interpolation-filters="sRGB">
<feFlood flood-opacity="0" result="BackgroundImageFix"/>
<feColorMatrix in="SourceAlpha" type="matrix" values="0 0 0 0 0 0 0 0 0 0 0 0 0 0 0 0 0 0 127 0" result="hardAlpha"/>
<feOffset dy="6"/>
<feGaussianBlur stdDeviation="2"/>
<feComposite in2="hardAlpha" operator="out"/>
<feColorMatrix type="matrix" values="0 0 0 0 0 0 0 0 0 0 0 0 0 0 0 0 0 0 0.6 0"/>
<feBlend mode="normal" in2="BackgroundImageFix" result="effect1_dropShadow_1359_5512"/>
<feBlend mode="normal" in="SourceGraphic" in2="effect1_dropShadow_1359_5512" result="shape"/>
</filter>
<linearGradient id="paint0_linear_1359_5512" x1="1.38" y1="37.9512" x2="65.6271" y2="38.2099" gradientUnits="userSpaceOnUse">
<stop offset="0.3408" stop-color="white"/>
<stop offset="0.933" stop-color="#F5F5F5"/>
</linearGradient>
<radialGradient id="paint1_radial_1359_5512" cx="0" cy="0" r="1" gradientUnits="userSpaceOnUse" gradientTransform="translate(35.9357 46.7033) rotate(-89.2848) scale(22.6927 67.2073)">
<stop stop-color="#FF0000" stop-opacity="0.5"/>
<stop offset="1" stop-color="#FF0000" stop-opacity="0"/>
</radialGradient>
<linearGradient id="paint2_linear_1359_5512" x1="26.3056" y1="6.8322" x2="24.4531" y2="32.0843" gradientUnits="userSpaceOnUse">
<stop stop-color="#FF3E3E"/>
<stop offset="0.933" stop-color="#FFDEDE"/>
</linearGradient>
<linearGradient id="paint3_linear_1359_5512" x1="34.2365" y1="10.3979" x2="34.6075" y2="33.7357" gradientUnits="userSpaceOnUse">
<stop offset="0.0282578" stop-color="#FF3E3E"/>
<stop offset="0.933" stop-color="#FFDEDE"/>
</linearGradient>
<linearGradient id="paint4_linear_1359_5512" x1="46.6994" y1="14.2878" x2="42.3055" y2="32.5249" gradientUnits="userSpaceOnUse">
<stop offset="0.0282578" stop-color="#FF3E3E"/>
<stop offset="0.933" stop-color="#FFDEDE"/>
</linearGradient>
</defs>
</svg>
