<svg width="64" height="64" viewBox="0 0 64 64" fill="none" xmlns="http://www.w3.org/2000/svg">
<rect width="64" height="64" rx="6" fill="url(#paint0_linear_2047_1292)"/>
<path d="M12.3751 41.3596H50.6262C51.7513 41.3596 52.595 42.2034 52.595 43.3284V50.9224C52.595 52.0474 51.7513 52.8912 50.6262 52.8912H12.3751C11.3907 52.8912 10.4062 52.0474 10.4062 50.9224V43.3284C10.4062 42.2034 11.3907 41.3596 12.3751 41.3596Z" fill="#64B4EC"/>
<path d="M12.3751 33.7657H50.6262C51.8919 33.7657 52.595 34.4688 52.595 35.7345C52.595 37.0001 51.8919 37.7033 50.6262 37.7033H12.3751C11.1094 37.7033 10.4062 37.0001 10.4062 35.7345C10.4062 34.3282 11.1094 33.7657 12.3751 33.7657ZM12.9376 14.0776C12.0938 13.515 11.9532 12.2494 12.6563 11.4056C13.3595 10.5618 14.4845 10.5618 15.3283 11.1243C18.9846 14.2182 18.9846 18.1558 15.4689 21.6715C13.6407 23.4997 13.922 24.4841 16.8752 26.1717C17.8596 26.7342 18.1409 27.8592 17.719 28.703C17.1565 29.6874 16.0314 29.9687 15.1876 29.5468C9.98436 26.8748 8.99996 22.9372 12.7969 19.1402C14.7658 17.0308 14.7658 15.7651 12.9376 14.0776ZM30.0944 14.0776C29.5318 13.6557 29.2506 12.9525 29.3912 12.2494C29.5318 11.5462 29.9537 10.9837 30.6569 10.8431C31.36 10.5618 32.0632 10.7025 32.485 11.265C36.1414 14.3588 36.1414 18.2964 32.6257 21.8122C30.7975 23.6403 31.0788 24.6248 34.032 26.3123C34.5945 26.5936 35.0164 27.2967 35.0164 27.9999C35.0164 28.703 34.7351 29.2655 34.1726 29.6874C33.6101 30.1093 32.9069 30.1093 32.2038 29.6874C27.1411 27.0155 26.1567 22.9372 29.9537 19.1402C32.0632 17.0308 32.0632 15.7651 30.0944 14.0776ZM47.2511 14.0776C46.6886 13.6557 46.4074 12.9525 46.548 12.2494C46.6886 11.5462 47.1105 10.9837 47.8136 10.8431C48.5168 10.5618 49.2199 10.7025 49.6418 11.265C53.2982 14.3588 53.2982 18.2964 49.7825 21.8122C47.9543 23.6403 48.2355 24.6248 51.1887 26.3123C52.1731 26.8748 52.4544 27.9999 52.0325 28.8436C51.47 29.828 50.345 30.1093 49.5012 29.6874C44.4385 27.0155 43.4541 22.9372 47.2511 19.1402C49.2199 17.0308 49.2199 15.7651 47.2511 14.0776Z" fill="white"/>
<defs>
<linearGradient id="paint0_linear_2047_1292" x1="32" y1="0" x2="32" y2="64" gradientUnits="userSpaceOnUse">
<stop stop-color="#66B5ED"/>
<stop offset="1" stop-color="#268BD2"/>
</linearGradient>
</defs>
</svg>
