<svg width="37" height="45" viewBox="0 0 37 45" fill="none" xmlns="http://www.w3.org/2000/svg">
<path fill-rule="evenodd" clip-rule="evenodd" d="M30.0074 35.0522C26.7425 37.1433 22.8357 38.3596 18.6375 38.3596C14.6056 38.3596 10.8424 37.2377 7.65856 35.2966L4.61137 41.137C3.91665 42.4685 4.88267 44.0621 6.38454 44.0621H31.4089C32.9107 44.0621 33.8767 42.4685 33.182 41.137L30.0074 35.0522Z" fill="url(#paint0_linear_298_1856)"/>
<path d="M18.7281 36.1438C28.6917 36.1438 36.7688 28.0667 36.7688 18.1031C36.7688 8.13957 28.6917 0.0625 18.7281 0.0625C8.76457 0.0625 0.6875 8.13957 0.6875 18.1031C0.6875 28.0667 8.76457 36.1438 18.7281 36.1438Z" fill="url(#paint1_linear_298_1856)"/>
<path fill-rule="evenodd" clip-rule="evenodd" d="M28.6875 18.1025C28.6875 23.6032 24.2282 28.0625 18.7275 28.0625C13.2268 28.0625 8.76758 23.6032 8.76758 18.1025C8.76758 12.6018 13.2268 8.14258 18.7275 8.14258C24.2282 8.14258 28.6875 12.6018 28.6875 18.1025ZM24.8578 18.1417C24.8578 21.2911 22.0726 23.8442 18.6369 23.8442C15.2012 23.8442 12.416 21.2911 12.416 18.1417C12.416 14.9923 15.2012 12.4392 18.6369 12.4392C22.0726 12.4392 24.8578 14.9923 24.8578 18.1417Z" fill="white"/>
<path d="M19.9135 6.85676C21.1909 6.85676 22.2264 5.82124 22.2264 4.54386C22.2264 3.26648 21.1909 2.23096 19.9135 2.23096C18.6361 2.23096 17.6006 3.26648 17.6006 4.54386C17.6006 5.82124 18.6361 6.85676 19.9135 6.85676Z" fill="white"/>
<defs>
<linearGradient id="paint0_linear_298_1856" x1="18.9042" y1="35.0522" x2="18.9042" y2="44.0621" gradientUnits="userSpaceOnUse">
<stop stop-color="#7EB6FF"/>
<stop offset="1" stop-color="#2570EC"/>
</linearGradient>
<linearGradient id="paint1_linear_298_1856" x1="18.7374" y1="0.0625" x2="18.7374" y2="36.1438" gradientUnits="userSpaceOnUse">
<stop stop-color="#7EB6FF"/>
<stop offset="1" stop-color="#2570EC"/>
</linearGradient>
</defs>
</svg>
