<svg width="64" height="64" viewBox="0 0 64 64" fill="none" xmlns="http://www.w3.org/2000/svg">
<rect width="64" height="64" rx="6" fill="url(#paint0_linear_2047_1193)"/>
<path d="M36.513 29.8616C36.369 29.9169 36.2401 30.0051 36.1365 30.1193L36.1164 30.1394C35.6403 28.056 34.3903 25.0205 30.9189 23.6517C30.621 23.5329 30.303 23.5722 30.0252 23.7303C29.7675 23.8893 29.5885 24.167 29.5492 24.485C29.4304 25.8337 28.7368 29.6231 27.0299 30.9928C25.0059 32.5993 22.9627 35.3369 23.32 38.1733C23.6371 40.7327 25.7799 42.9157 29.6487 44.6418C29.8576 44.7383 30.094 44.7573 30.3156 44.6956C30.5373 44.6338 30.7297 44.4952 30.8586 44.3046C30.992 44.1193 31.057 43.8934 31.0427 43.6656C31.0283 43.4377 30.9355 43.2218 30.78 43.0546C30.7599 43.0345 28.9936 41.0507 29.3116 38.928C29.4304 38.0353 29.9064 37.2019 30.7197 36.4472C30.9975 37.2814 31.6125 38.293 32.8232 39.2652C34.4698 40.5545 32.7035 43.0738 32.6249 43.1734C32.3864 43.5106 32.3663 43.9674 32.6048 44.3046C32.783 44.5824 33.101 44.7414 33.418 44.7414C33.4967 44.7414 33.577 44.7414 33.6565 44.7213C33.8749 44.6619 39.0724 43.3324 40.4212 39.2853C41.2947 36.6463 40.3425 33.5907 37.5647 30.1988C37.3664 29.8406 36.9096 29.7227 36.513 29.8616ZM38.5964 38.61C38.081 40.1973 36.6318 41.249 35.3625 41.9033C35.7198 40.475 35.5608 38.8485 34.0723 37.678C32.3078 36.2891 32.465 34.9796 32.486 34.8407C32.6048 34.4442 32.4458 34.0476 32.1278 33.81C31.8107 33.5514 31.3548 33.5514 30.9975 33.7698C28.8355 35.0792 27.6256 36.7258 27.347 38.6301C27.2392 39.4813 27.3067 40.3454 27.5453 41.1695C26.1965 40.1579 25.4427 39.0669 25.2837 37.9165C25.026 35.8925 26.732 33.7497 28.2598 32.5399C30.1449 31.0321 30.9774 27.9363 31.3154 26.0914C34.3108 28.0953 34.3702 32.0839 34.3702 32.2621C34.3702 32.6587 34.6087 33.0352 34.9852 33.174C35.3625 33.333 35.7792 33.2343 36.0771 32.9557L36.7314 32.3014C38.557 34.7613 39.1711 36.8839 38.5964 38.61Z" fill="white"/>
<path d="M55.0992 29.8005L52.9512 27.6184L47.9284 22.5135L42.0678 16.5507L37.377 11.7838L36.1435 10.5294L35.9024 10.2849C35.2609 9.62375 34.4722 9.1236 33.6007 8.82518C31.7208 8.1709 29.4575 8.70026 28.0511 10.1005C27.7803 10.3696 27.5209 10.6491 27.2562 10.9225L23.1471 15.1679L17.4167 21.0817L12.0445 26.633L9.057 29.7192L8.91898 29.8616C8.33983 30.4574 8.2813 31.5161 8.91898 32.1014C9.54268 32.6735 10.5429 32.7373 11.1587 32.1014L12.3607 30.8566V49.9905C12.3607 50.9758 12.6201 51.9917 13.2133 52.7945C14.148 54.0585 15.5308 54.8298 17.1232 54.8421H45.4301C45.921 54.8421 46.4128 54.8464 46.9046 54.8421C48.6027 54.8246 50.252 53.8986 51.0661 52.3883C51.4767 51.6248 51.6575 50.7967 51.6575 49.9337V30.826C52.0445 31.2226 52.4323 31.6165 52.828 32.0035L52.863 32.0376C53.4447 32.629 54.5262 32.6648 55.1018 32.0376C55.6827 31.4017 55.7194 30.4294 55.0992 29.8013V29.8005ZM16.1475 51.361C16.199 51.403 16.2471 51.451 16.2916 51.5052C16.2829 51.513 16.2217 51.4466 16.1475 51.361ZM48.0236 51.2125C47.9712 51.2649 47.9118 51.3121 47.8576 51.3628C47.75 51.4334 47.6383 51.4976 47.5231 51.555C47.392 51.6004 47.2575 51.6371 47.1212 51.6668C46.8129 51.6869 46.501 51.6755 46.1927 51.6755H20.6488C19.48 51.6755 18.3095 51.6842 17.1407 51.6755C17.0603 51.6755 16.9834 51.672 16.9005 51.6668C16.7625 51.6383 16.6265 51.6009 16.4934 51.555C16.3639 51.4902 16.239 51.4166 16.1195 51.3348C16.0619 51.2824 15.9998 51.2178 15.9937 51.2125C15.9413 51.1592 15.8941 51.0998 15.8426 51.0457C15.7719 50.9381 15.7077 50.8264 15.6504 50.7111C15.605 50.5797 15.568 50.4454 15.5395 50.3093C15.5238 50.0691 15.5299 49.828 15.5299 49.586V30.4993C15.5299 29.5777 15.5491 28.6526 15.5299 27.7319V27.6926C15.5299 27.6586 15.5299 27.6245 15.5255 27.5904L17.8954 25.1428L23.5472 19.3058L28.3079 14.3896C28.9771 13.6977 29.6296 12.9815 30.3206 12.3097C30.3599 12.2713 30.4018 12.2363 30.4429 12.204L30.5346 12.142C30.6726 12.052 30.8167 11.9708 30.9652 11.9C31.1609 11.8301 31.3618 11.7742 31.5662 11.734C31.7767 11.7183 31.9881 11.7183 32.1987 11.734C32.4074 11.7751 32.6127 11.8319 32.8127 11.9035C32.949 11.9699 33.0809 12.0441 33.2085 12.1263C33.1098 12.0529 33.198 12.0948 33.2609 12.149L33.3177 12.1979C33.3465 12.2189 33.3753 12.2407 33.405 12.259L33.336 12.2145C33.4233 12.2931 33.5107 12.3717 33.5937 12.4556C33.6216 12.4844 33.6461 12.5141 33.6767 12.5429L33.9405 12.8094L35.1774 14.0673L39.7041 18.6682L45.3864 24.4387L48.4909 27.5939V47.4843C48.4909 48.3491 48.4988 49.213 48.4909 50.0769C48.4909 50.1529 48.4883 50.2281 48.4822 50.3023C48.4538 50.4412 48.4165 50.578 48.3704 50.712C48.3171 50.8212 48.2568 50.926 48.1904 51.0282L48.1511 51.0859L48.0245 51.2117L48.0236 51.2125ZM48.173 51.1287C48.2158 51.0763 48.2638 51.0291 48.3171 50.9837C48.3258 50.9924 48.2594 51.0544 48.173 51.1287Z" fill="white"/>
<defs>
<linearGradient id="paint0_linear_2047_1193" x1="32" y1="0" x2="32" y2="64" gradientUnits="userSpaceOnUse">
<stop stop-color="#F289BC"/>
<stop offset="1" stop-color="#D33682"/>
</linearGradient>
</defs>
</svg>
