<svg width="64" height="64" viewBox="0 0 64 64" fill="none" xmlns="http://www.w3.org/2000/svg">
<path d="M32.0157 5.00146C7.98331 5.00146 -4.04778 34.0841 12.9436 51.0921C20.6579 58.814 32.259 61.1246 42.3381 56.9458C52.4171 52.7669 58.989 42.9217 58.989 32.0013C58.989 17.0897 46.9126 5.00146 32.0157 5.00146Z" fill="white" stroke="#073642" stroke-width="6"/>
<path opacity="0.998" d="M32 36.4458C34.7614 36.4458 37 34.2072 37 31.4458C37 28.6844 34.7614 26.4458 32 26.4458C29.2386 26.4458 27 28.6844 27 31.4458C27 34.2072 29.2386 36.4458 32 36.4458Z" fill="#073642"/>
<path opacity="0.998" d="M30 13.4458V29.4458C30 30.5504 30.8954 31.4458 32 31.4458C33.1046 31.4458 34 30.5504 34 29.4458V13.4458C34 12.3412 33.1046 11.4458 32 11.4458C30.8954 11.4458 30 12.3412 30 13.4458Z" fill="#073642"/>
<path opacity="0.998" d="M32.5876 34.8618L40.3658 42.64C41.1469 43.421 42.4132 43.421 43.1942 42.64C43.9753 41.8589 43.9753 40.5926 43.1942 39.8116L35.4161 32.0334C34.635 31.2523 33.3687 31.2523 32.5876 32.0334C31.8066 32.8144 31.8066 34.0808 32.5876 34.8618Z" fill="#073642"/>
</svg>
