<svg width="40" height="42" viewBox="0 0 40 42" fill="none" xmlns="http://www.w3.org/2000/svg">
<ellipse cx="30.2375" cy="31.5" rx="9.7375" ry="10" fill="#06A54F"/>
<path fill-rule="evenodd" clip-rule="evenodd" d="M8.11115 0H4.69292C2.11182 0 0 2.31141 0 5.13647V33.1302C0 35.9553 2.11182 38.2667 4.69292 38.2667H20.7302C19.1588 36.2567 18.2222 33.7264 18.2222 30.9774C18.2222 24.4359 23.5252 19.133 30.0667 19.133C31.9046 19.133 33.6447 19.5516 35.1969 20.2986V5.13647C35.1969 2.31141 33.0851 0 30.504 0H28.3334V12.7556V13.7556H27.3334H9.11115H8.11115V12.7556V0ZM10.1112 11.7556V1H26.3334V11.7556H10.1112ZM22.2914 9.41693C23.1985 9.41693 23.9339 8.61204 23.9339 7.61916C23.9339 6.62628 23.1985 5.82139 22.2914 5.82139C21.3843 5.82139 20.6489 6.62628 20.6489 7.61916C20.6489 8.61204 21.3843 9.41693 22.2914 9.41693Z" fill="url(#paint0_linear_2001_914)"/>
<path d="M27 32.4211L30.84 35L35 28" stroke="white" stroke-width="2" stroke-linecap="round"/>
<defs>
<linearGradient id="paint0_linear_2001_914" x1="17.6075" y1="0" x2="17.6075" y2="38.2667" gradientUnits="userSpaceOnUse">
<stop stop-color="#7EB6FF"/>
<stop offset="1" stop-color="#2570EC"/>
</linearGradient>
</defs>
</svg>
