<svg width="48" height="38" viewBox="0 0 48 38" fill="none" xmlns="http://www.w3.org/2000/svg">
<path d="M4.76196 6C4.76196 2.68629 7.44825 0 10.762 0H41.619C44.9327 0 47.619 2.68629 47.619 6V27.478C47.619 30.7917 44.9327 33.478 41.619 33.478H10.762C7.44825 33.478 4.76196 30.7917 4.76196 27.478V6Z" fill="url(#paint0_linear_298_1904)"/>
<path d="M7.61914 9.95312H44.7619M26.5585 20.3584H40.9967M11.2711 16.2868L19.7641 20.3584L11.2711 26.2397" stroke="white" stroke-width="3" stroke-linecap="round"/>
<path opacity="0.5" fill-rule="evenodd" clip-rule="evenodd" d="M3.31234 5.15576C2.91737 5.95566 2.69543 6.85629 2.69543 7.80875V29.2867C2.69543 32.6004 5.38172 35.2867 8.69543 35.2867H39.822C40.7882 35.2867 41.7011 35.0583 42.5097 34.6526C41.5305 36.6356 39.4878 37.9996 37.1266 37.9996H6C2.68629 37.9996 0 35.3133 0 31.9996V10.5216C0 8.17414 1.3481 6.14154 3.31234 5.15576Z" fill="url(#paint1_linear_298_1904)"/>
<defs>
<linearGradient id="paint0_linear_298_1904" x1="26.2015" y1="0" x2="26.2015" y2="33.478" gradientUnits="userSpaceOnUse">
<stop stop-color="#7EB6FF"/>
<stop offset="1" stop-color="#2570EC"/>
</linearGradient>
<linearGradient id="paint1_linear_298_1904" x1="21.2658" y1="5.15576" x2="21.2658" y2="37.9996" gradientUnits="userSpaceOnUse">
<stop stop-color="#7EB6FF"/>
<stop offset="1" stop-color="#2570EC"/>
</linearGradient>
</defs>
</svg>
