<svg width="48" height="48" viewBox="0 0 48 48" fill="none" xmlns="http://www.w3.org/2000/svg">
<g clip-path="url(#clip0_2005_1014)">
<path d="M14.9955 17.9895H12.999C12.7439 17.9755 12.5038 17.8643 12.3282 17.6788C12.1526 17.4932 12.0547 17.2475 12.0547 16.992C12.0547 16.7365 12.1526 16.4908 12.3282 16.3052C12.5038 16.1197 12.7439 16.0085 12.999 15.9945H17.9895V14.9955C17.9895 13.3425 19.3305 12 20.985 12H26.976C28.6275 12 29.97 13.3395 29.97 14.9955V15.993H34.962C35.22 16.003 35.4642 16.1126 35.6432 16.2987C35.8223 16.4848 35.9223 16.733 35.9223 16.9913C35.9223 17.2495 35.8223 17.4977 35.6432 17.6838C35.4642 17.8699 35.22 17.9795 34.962 17.9895H32.9655V31.9635C32.9657 32.488 32.8625 33.0074 32.6619 33.492C32.4614 33.9766 32.1673 34.417 31.7965 34.7879C31.4257 35.1589 30.9854 35.4531 30.5009 35.6539C30.0163 35.8547 29.497 35.958 28.9725 35.958H18.9885C17.9293 35.9576 16.9137 35.5366 16.1649 34.7875C15.4161 34.0384 14.9955 33.0226 14.9955 31.9635V17.9895ZM21.984 13.9965C20.8815 13.9965 19.986 14.8905 19.986 15.993H27.9705C27.9705 14.8905 27.0765 13.998 25.974 13.998H21.984V13.9965ZM16.992 17.9895V31.9635C16.992 33.066 17.886 33.96 18.9885 33.96H28.9695C30.072 33.96 30.9645 33.066 30.9645 31.965V17.988H16.9935L16.992 17.9895ZM20.985 19.9875C21.5355 19.9875 21.984 20.433 21.984 20.985V30.966C21.984 31.231 21.8787 31.4851 21.6914 31.6724C21.504 31.8597 21.2499 31.965 20.985 31.965C20.72 31.965 20.4659 31.8597 20.2786 31.6724C20.0912 31.4851 19.986 31.231 19.986 30.966V20.982C19.986 20.433 20.436 19.9875 20.985 19.9875ZM26.976 19.9875C27.525 19.9875 27.9735 20.433 27.9735 20.985V30.966C27.9635 31.2241 27.8539 31.4682 27.6678 31.6472C27.4817 31.8263 27.2335 31.9263 26.9752 31.9263C26.717 31.9263 26.4687 31.8263 26.2826 31.6472C26.0965 31.4682 25.987 31.2241 25.977 30.966V20.982C25.977 20.433 26.4225 19.9875 26.976 19.9875Z" fill="#4B81FC"/>
</g>
<defs>
<clipPath id="clip0_2005_1014">
<rect width="24" height="24" fill="white" transform="translate(12 12)"/>
</clipPath>
</defs>
</svg>
