<svg width="30" height="30" viewBox="0 0 30 30" fill="none" xmlns="http://www.w3.org/2000/svg">
<g clip-path="url(#clip0_2004_957)">
<path opacity="0.01" d="M0 0H30V30H0V0Z" fill="#202425"/>
<path d="M27.4139 6.58606C27.7889 6.96112 27.9995 7.46973 27.9995 8.00006C27.9995 8.53039 27.7889 9.03901 27.4139 9.41406L13.4139 23.4141C13.0389 23.789 12.5302 23.9996 11.9999 23.9996C11.4696 23.9996 10.961 23.789 10.5859 23.4141L2.58592 15.4141C2.3949 15.2296 2.24253 15.0089 2.13772 14.7649C2.0329 14.5209 1.97772 14.2584 1.97542 13.9929C1.97311 13.7273 2.02371 13.4639 2.12427 13.2182C2.22484 12.9724 2.37334 12.7491 2.56113 12.5613C2.74891 12.3735 2.97222 12.225 3.21801 12.1244C3.4638 12.0239 3.72716 11.9733 3.99272 11.9756C4.25828 11.9779 4.52072 12.033 4.76473 12.1379C5.00874 12.2427 5.22942 12.395 5.41392 12.5861L11.9999 19.1721L24.5859 6.58606C24.961 6.21112 25.4696 6.00049 25.9999 6.00049C26.5302 6.00049 27.0389 6.21112 27.4139 6.58606Z" fill="#11AA66"/>
</g>
<defs>
<clipPath id="clip0_2004_957">
<rect width="30" height="30" fill="white"/>
</clipPath>
</defs>
</svg>
