<svg width="64" height="68" viewBox="0 0 64 68" fill="none" xmlns="http://www.w3.org/2000/svg">
<path d="M9.14286 0H54.8571C59.8857 0 64 4.11429 64 9.14286V54.8571C64 59.8857 59.8857 64 54.8571 64H9.14286C4.11429 64 0 59.8857 0 54.8571V9.14286C0 4.11429 4.11429 0 9.14286 0Z" fill="url(#paint0_linear_2046_917)"/>
<path d="M42.8531 46.0489L37.3706 56.1189H25.8462L21.1469 47.1678C21.9301 46.9441 22.6014 46.2727 23.1608 45.3776C23.4965 45.1538 24.3916 44.9301 25.3986 45.4895C26.5175 46.0489 29.0909 47.5035 32.4476 47.5035C34.5734 47.5035 37.035 46.8322 39.6084 45.042C39.9441 44.8182 40.6154 44.7063 41.5105 45.2657C41.8462 45.4895 42.2937 45.7133 42.8531 46.0489ZM47.6643 23.4476C47.3287 23.1119 46.993 23 46.6573 23H42.0699V23.1119H39.9441L40.0559 44.3706C40.5035 44.3706 41.0629 44.4825 41.6224 44.8182C42.965 45.7133 45.5385 46.8322 47.5524 44.7063L47.6643 44.4825C47.7762 44.2587 48 43.9231 48 43.6993V24.3427C48 24.007 47.8881 23.7832 47.6643 23.4476ZM20.4755 47.2797C19.3566 47.3916 18.2378 46.9441 17.3427 46.3846C19.3566 49.1818 23.3846 54.2168 24.0559 55.2238C24.3916 55.6713 24.951 56.007 25.5105 56.2308L20.8112 47.1678C20.6993 47.1678 20.5874 47.2797 20.4755 47.2797ZM43.1888 46.0489L37.7063 56.1189C37.9301 56.1189 38.042 56.1189 38.042 56.1189C39.8322 55.7832 40.3916 55 40.3916 55L45.8741 47.0559C45.8741 47.0559 45.8741 46.9441 45.986 46.9441L46.6573 46.0489C45.4266 46.6084 44.1958 46.4965 43.1888 46.0489ZM22.7133 45.042C22.8252 44.9301 22.9371 44.7063 23.2727 44.7063L23.1608 23.2238H22.1538L17.4545 23.1119C17.1189 23.1119 16.6713 23.2238 16.4476 23.5594L16.3357 23.6713C16.2238 23.8951 16 24.2308 16 24.4545V44.035C16 44.3706 16.1119 44.5944 16.2238 44.8182C16.3357 45.042 16.3357 45.042 16.4476 45.1538C17.3427 45.9371 18.9091 46.9441 20.4755 46.8322C21.4825 46.7203 21.9301 46.1608 22.7133 45.042ZM41.5105 9C41.5105 7.89543 40.6151 7 39.5105 7H24.1538C23.0493 7 22.1538 7.89543 22.1538 9V19.993C22.1538 21.0976 23.0493 21.993 24.1538 21.993H39.5105C40.6151 21.993 41.5105 21.0976 41.5105 19.993V9ZM23.8322 23.1119L39.4965 23L39.6084 44.3706C39.4965 44.4825 39.2727 44.4825 39.2727 44.5944C33.2308 49.1818 27.7483 46.3846 25.5105 45.042C24.951 44.7063 24.3916 44.5944 23.9441 44.5944L23.8322 23.1119ZM27.1888 32.8462C29.3147 31.951 30.7692 31.0559 31.5524 30.049V41.5734H33.3427V27.028H31.8881C31.1049 28.7063 29.5385 30.049 27.0769 31.0559V32.8462H27.1888Z" fill="white"/>
<g opacity="0.5" filter="url(#filter0_d_2046_917)">
<path d="M25.8462 55C26.1819 55.1119 26.4056 55.3357 26.6294 55.5594L28.7553 59.028C28.9791 59.3636 29.3147 59.5874 29.8742 59.5874H33.1189C33.5665 59.5874 34.014 59.3636 34.2378 59.028C34.7972 58.1329 35.3567 56.7903 35.9161 55.8952C36.028 55.5595 36.572 55.1119 36.9077 55.0001L25.8462 55Z" fill="white"/>
<path d="M27.1794 55.5L35.553 55.5C35.5194 55.556 35.4897 55.6138 35.4655 55.673C35.1823 56.1329 34.903 56.6914 34.6369 57.2237L34.6297 57.238C34.3485 57.8004 34.0814 58.3336 33.8183 58.7557C33.6967 58.9332 33.4179 59.0874 33.1189 59.0874H29.8742C29.6628 59.0874 29.5231 59.0457 29.4259 58.9933C29.331 58.9422 29.2501 58.8668 29.1761 58.7578L27.1794 55.5Z" stroke="white"/>
</g>
<defs>
<filter id="filter0_d_2046_917" x="21.8462" y="55" width="19.0615" height="12.5874" filterUnits="userSpaceOnUse" color-interpolation-filters="sRGB">
<feFlood flood-opacity="0" result="BackgroundImageFix"/>
<feColorMatrix in="SourceAlpha" type="matrix" values="0 0 0 0 0 0 0 0 0 0 0 0 0 0 0 0 0 0 127 0" result="hardAlpha"/>
<feOffset dy="4"/>
<feGaussianBlur stdDeviation="2"/>
<feComposite in2="hardAlpha" operator="out"/>
<feColorMatrix type="matrix" values="0 0 0 0 0 0 0 0 0 0 0 0 0 0 0 0 0 0 0.25 0"/>
<feBlend mode="normal" in2="BackgroundImageFix" result="effect1_dropShadow_2046_917"/>
<feBlend mode="normal" in="SourceGraphic" in2="effect1_dropShadow_2046_917" result="shape"/>
</filter>
<linearGradient id="paint0_linear_2046_917" x1="32.0165" y1="0" x2="32.0165" y2="64" gradientUnits="userSpaceOnUse">
<stop stop-color="#E86767"/>
<stop offset="1" stop-color="#DC322F"/>
</linearGradient>
</defs>
</svg>
