<svg width="64" height="64" viewBox="0 0 64 64" fill="none" xmlns="http://www.w3.org/2000/svg">
<rect width="64" height="64" rx="6" fill="url(#paint0_linear_2046_916)"/>
<path opacity="0.5" d="M26.2485 55.3313C26.5902 55.4452 26.8179 55.6729 27.0456 55.9007L29.2092 59.4307C29.4369 59.7723 29.7786 60 30.3479 60H33.6502C34.1057 60 34.5612 59.7723 34.7889 59.4307C35.3583 58.5197 35.9276 57.1533 36.497 56.2423C36.6109 55.9007 37.1645 55.4452 37.5061 55.3313L26.2485 55.3313Z" fill="white"/>
<path d="M43.3292 44.7412L37.7495 54.9896H26.0207L21.2381 45.8799C22.0352 45.6522 22.7184 44.9689 23.2878 44.058C23.6294 43.8302 24.5404 43.6025 25.5652 44.1718C26.7039 44.7412 29.323 46.2215 32.7391 46.2215C34.9027 46.2215 37.4079 45.5383 40.0269 43.7164C40.3685 43.4886 41.0518 43.3747 41.9627 43.9441C42.3043 44.1718 42.7598 44.3996 43.3292 44.7412ZM48.2257 21.7391C47.8841 21.3975 47.5424 21.2836 47.2008 21.2836H42.5321V21.3975H40.3685L40.4824 43.0331C40.9379 43.0331 41.5072 43.147 42.0766 43.4886C43.4431 44.3996 46.0621 45.5383 48.1118 43.3747L48.2257 43.147C48.3395 42.9193 48.5673 42.5776 48.5673 42.3499V22.6501C48.5673 22.3085 48.4534 22.0807 48.2257 21.7391ZM20.5549 45.9938C19.4161 46.1077 18.2774 45.6522 17.3665 45.0828C19.4161 47.9296 23.5155 53.0538 24.1988 54.0787C24.5404 54.5342 25.1097 54.8758 25.6791 55.1035L20.8965 45.8799C20.7826 45.8799 20.6687 45.9938 20.5549 45.9938ZM43.6708 44.7412L38.0911 54.9896C38.3188 54.9896 38.4327 54.9896 38.4327 54.9896C40.2547 54.648 40.824 53.8509 40.824 53.8509L46.4037 45.766C46.4037 45.766 46.4037 45.6522 46.5176 45.6522L47.2008 44.7412C45.9482 45.3106 44.6957 45.1967 43.6708 44.7412ZM22.8323 43.7164C22.9462 43.6025 23.06 43.3747 23.4017 43.3747L23.2878 21.5114H22.2629L17.4803 21.3975C17.1387 21.3975 16.6832 21.5114 16.4555 21.853L16.3416 21.9669C16.2277 22.1946 16 22.5362 16 22.764V42.6915C16 43.0331 16.1139 43.2609 16.2277 43.4886C16.3416 43.7164 16.3416 43.7164 16.4555 43.8302C17.3665 44.6273 18.9607 45.6522 20.5549 45.5383C21.5797 45.4244 22.0352 44.8551 22.8323 43.7164ZM41.9627 7C41.9627 5.89543 41.0673 5 39.9627 5H24.2629C23.1584 5 22.2629 5.89543 22.2629 7V18.2588C22.2629 19.3634 23.1584 20.2588 24.2629 20.2588H39.9627C41.0673 20.2588 41.9627 19.3634 41.9627 18.2588V7ZM39.913 21.2836L23.971 21.3975L24.0849 43.2609C24.5404 43.2609 25.1097 43.3747 25.6791 43.7164C27.9565 45.0828 33.5362 47.9296 39.6853 43.2609C39.6853 43.147 39.913 43.147 40.0269 43.0331L39.913 21.2836ZM36.7246 40.0725H28.0704C28.0704 39.7308 28.0704 39.2754 28.2981 38.9337C28.5259 38.3644 28.8675 37.795 29.323 37.2257C29.7785 36.6563 30.4617 35.9731 31.3727 35.2899C32.7391 34.1511 33.764 33.2402 34.2195 32.5569C34.6749 31.8737 35.0166 31.1905 35.0166 30.6211C35.0166 29.9379 34.7888 29.4824 34.3333 29.0269C33.8778 28.5714 33.3085 28.3437 32.5114 28.3437C31.7143 28.3437 31.1449 28.5714 30.6894 29.0269C30.234 29.4824 30.0062 30.1656 30.0062 30.9627L28.412 30.735C28.5259 29.4824 28.9814 28.5714 29.6646 27.8882C30.3478 27.205 31.3727 26.9772 32.6253 26.9772C33.8778 26.9772 34.9027 27.3188 35.5859 28.0021C36.2692 28.6853 36.7246 29.5963 36.7246 30.6211C36.7246 31.1905 36.6108 31.646 36.383 32.2153C36.1553 32.6708 35.8137 33.2402 35.3582 33.8095C34.9027 34.3789 33.9917 35.176 32.853 36.087C31.942 36.8841 31.2588 37.4534 31.0311 37.6812C30.8033 37.9089 30.5756 38.2505 30.3478 38.5921H36.7246V40.0725Z" fill="white"/>
<defs>
<linearGradient id="paint0_linear_2046_916" x1="32" y1="0" x2="32" y2="64" gradientUnits="userSpaceOnUse">
<stop stop-color="#E8BE6C"/>
<stop offset="1" stop-color="#B58900"/>
</linearGradient>
</defs>
</svg>
