<svg width="60" height="60" viewBox="0 0 60 60" fill="none" xmlns="http://www.w3.org/2000/svg">
<rect width="60" height="60" rx="6" fill="url(#paint0_linear_2009_1599)"/>
<g clip-path="url(#clip0_2009_1599)">
<path d="M36.5616 50.5001H19.7552C17.4353 48.5984 28.851 48.0204 34.6739 48.1817C39.3352 48.3107 27.9801 44.7454 22.8607 42.5686C20.2123 41.4425 31.4501 41.767 30.3505 37.8097C29.8873 36.1424 29.9243 30.7097 29.9243 30.7097" stroke="#A7F5FF" stroke-width="4" stroke-linecap="round"/>
<path opacity="0.998" d="M41.2926 18.5186H18.759V26.6465H41.2926V18.5186Z" fill="white"/>
<path opacity="0.998" d="M35.6933 18.5186H24.4265V26.6465H35.6933V18.5186Z" fill="white"/>
<path d="M24.3923 26.6465H35.6591L31.9019 31.162H28.1495L24.3923 26.6465Z" fill="white"/>
<path opacity="0.998" d="M37.2706 14.0029H22.8491V18.5184H37.2706V14.0029Z" fill="white"/>
<path opacity="0.998" d="M38.6999 9.48755H21.4197C20.5913 9.48755 19.9197 10.1591 19.9197 10.9875V12.5031C19.9197 13.3315 20.5913 14.0031 21.4197 14.0031H38.6999C39.5284 14.0031 40.1999 13.3315 40.1999 12.5031V10.9875C40.1999 10.1591 39.5284 9.48755 38.6999 9.48755Z" fill="white"/>
<path opacity="0.998" d="M40.1999 7.29688H19.9197V11.8124H40.1999V7.29688Z" fill="white"/>
</g>
<defs>
<linearGradient id="paint0_linear_2009_1599" x1="30" y1="0" x2="30" y2="60" gradientUnits="userSpaceOnUse">
<stop stop-color="#A7F5FF"/>
<stop offset="1" stop-color="#4DC9DA"/>
</linearGradient>
<clipPath id="clip0_2009_1599">
<rect x="6" y="7" width="48" height="45" rx="6" fill="white"/>
</clipPath>
</defs>
</svg>
