<svg width="48" height="47" viewBox="0 0 48 47" fill="none" xmlns="http://www.w3.org/2000/svg">
<rect width="46" height="46" rx="6" fill="#5754D5"/>
<path fill-rule="evenodd" clip-rule="evenodd" d="M30.8966 20.4421C31.8606 20.5052 32.7049 20.7446 33.5969 21.0509C33.7269 21.0955 34.0292 21.0904 33.9311 21.1867V21.1867C34 21.119 34 20.9837 34 20.916V20.916C34 20.9159 34 20.9159 34 20.9159L34 20.9157C33.862 20.3066 33.7241 19.6975 33.5173 19.156C33.1035 18.0054 32.5517 16.9223 31.7241 16.0424C30.9655 15.2978 30.069 14.9594 29.0345 15.0271C28.4828 15.0948 28 15.2302 27.5172 15.4332C27.159 15.593 26.8085 15.7642 26.4711 15.952C25.2175 16.6497 25.7855 18.3332 26.7775 19.3697V19.3697C27.4164 20.0373 28.3023 20.4807 29.224 20.4153C29.7871 20.3754 30.3485 20.3823 30.8966 20.4421ZM29.5528 21.7105C28.7985 21.4496 28.1956 22.2027 28.1681 23.0004V23.0004C28.1681 23.4306 28.1181 23.8499 28.0236 24.2523C27.8046 25.185 27.8755 26.2154 28.4138 27.0078V27.0078C29.1724 28.2939 29.7241 29.6476 29.931 31.1368C29.931 31.2869 30.0064 31.3631 30.1294 31.3378C30.2325 31.3167 30.3387 31.2782 30.4138 31.2045V31.2045C31.6552 30.0538 32.6207 28.7677 33.3103 27.2109C33.8621 25.9925 33.5862 24.5711 32.6207 23.6234C31.931 22.9465 31.1724 22.4051 30.2759 21.9989C30.0414 21.8943 29.8004 21.7962 29.5528 21.7105ZM27.2414 27.3463C27.136 26.9327 26.594 26.8537 26.2687 27.1301C25.3593 27.9029 24.1878 28.3705 22.8993 28.3705V28.3705C22.7345 28.3705 22.5848 28.471 22.5262 28.6251C21.8842 30.3127 20.7703 31.7503 19.3104 32.8967C19.2414 32.9644 19.1724 33.0997 19.1724 33.1674V33.1674C19.1724 33.3688 19.4752 33.409 19.6655 33.475C21.1643 33.9947 22.7241 34.1029 24.3448 33.912C25.7241 33.7089 26.7586 32.9644 27.1724 31.6106C27.6552 30.1892 27.6552 28.7677 27.2414 27.3463V27.3463ZM19.0492 30.1751C20.4278 29.5401 19.8854 27.7137 18.8699 26.5857C18.7752 26.4806 18.6847 26.3716 18.5987 26.2592C18.199 25.7366 17.5764 25.3778 16.9216 25.4418V25.4418C16.8902 25.4449 16.8588 25.4479 16.8276 25.451C15.409 25.5143 13.9904 25.2817 12.6282 24.8086C12.4406 24.7435 12.2107 24.5673 12.069 24.7064V24.7064V24.7064C11.9329 24.84 12.0128 25.0722 12.0483 25.2595C12.2849 26.5097 12.8116 27.6973 13.5173 28.7677L13.5173 28.7678C13.8621 29.3092 14.2069 29.8507 14.7586 30.1892C15.6552 30.866 16.6897 31.0014 17.7931 30.663C18.2283 30.5206 18.6485 30.3597 19.0492 30.1751ZM16.3221 24.1832C16.9682 24.4293 17.5293 23.7932 17.5293 23.1017V23.1017C17.5293 22.0194 17.8376 21.0271 18.3673 20.1978C18.4273 20.1037 18.4245 19.9788 18.3448 19.9006V19.9006C17.0435 18.4217 16.2863 16.7425 16.0058 14.8631C16.0019 14.8371 16.0014 14.8151 15.9956 14.7896V14.7896C15.9636 14.6506 15.7776 14.5628 15.6552 14.636C15.629 14.6517 15.605 14.6702 15.5862 14.6886C14.2759 15.7717 13.3103 17.1254 12.6207 18.7499C12.1379 19.8329 12.2759 20.9159 13.0345 21.9312C13.5172 22.6081 14.2069 23.0819 14.8966 23.4881C15.3673 23.7598 15.838 23.9988 16.3221 24.1832ZM18.4828 15.9747C18.4017 17.6463 20.3931 18.0586 22.0463 17.7982C22.3245 17.7544 22.6094 17.7317 22.8993 17.7317C23.0322 17.7317 23.1641 17.7365 23.2947 17.7459C23.302 17.7464 23.3085 17.7416 23.3103 17.7346V17.7346C23.931 15.8393 25.0345 14.2825 26.6207 13.0641C26.6897 12.9965 26.8276 12.8611 26.8276 12.7934C26.8276 12.7257 26.6897 12.658 26.5518 12.5903L26.5517 12.5903C25.0345 12.0488 23.4483 11.9135 21.8621 12.0488C20.5517 12.1842 19.5172 12.7934 18.9655 13.9441C18.6287 14.5391 18.5551 15.2634 18.4876 15.9275C18.486 15.9433 18.4844 15.959 18.4828 15.9747V15.9747ZM22.8993 26.5467C24.8244 26.5467 26.3443 25.0269 26.4456 23.2031C26.5469 21.1766 25.0271 19.5555 22.8993 19.4542C20.9742 19.4542 19.3531 21.0753 19.3531 22.8991C19.3531 25.0269 20.9742 26.5467 22.8993 26.5467Z" fill="white"/>
<path d="M6 22C6 13.479 13.1634 6.57143 22 6.57143M22 6.57143L19.3333 4M22 6.57143L20.4 9.65714" stroke="white" stroke-width="2" stroke-linecap="round"/>
<path d="M31.9109 8.34521C39.5273 12.8052 42.1368 22.6829 37.7395 30.4078M37.7395 30.4078L41.365 29.4225M37.7395 30.4078L35.7776 27.394" stroke="white" stroke-width="2" stroke-linecap="round"/>
<path d="M30.8829 36.9045C23.3445 41.4987 13.5614 39.0248 9.03185 31.379M9.03185 31.379L8.12385 35.0727M9.03185 31.379L12.5819 31.0997" stroke="white" stroke-width="2" stroke-linecap="round"/>
</svg>
