<svg width="46" height="46" viewBox="0 0 46 46" fill="none" xmlns="http://www.w3.org/2000/svg">
<rect width="46" height="46" rx="6" fill="#5754D5"/>
<path fill-rule="evenodd" clip-rule="evenodd" d="M32.199 20.3602C33.3821 20.4376 34.4182 20.7314 35.5128 21.1072C35.6724 21.162 36.0434 21.1557 35.923 21.2739V21.2739C36.0076 21.1908 36.0076 21.0248 36.0076 20.9417V20.9417C36.0076 20.9416 36.0076 20.9416 36.0076 20.9415L36.0075 20.9413C35.8383 20.1938 35.669 19.4464 35.4151 18.7819C34.9073 17.3698 34.2303 16.0407 33.2146 14.9608C32.2837 14.0471 31.1834 13.6318 29.9139 13.7148C29.2368 13.7979 28.6444 13.964 28.0519 14.2132C27.6124 14.4093 27.1824 14.6193 26.7684 14.8497C25.23 15.7059 25.927 17.7719 27.1443 19.044V19.044C27.9283 19.8633 29.0155 20.4075 30.1467 20.3272C30.8376 20.2782 31.5266 20.2868 32.199 20.3602ZM30.5497 21.9167C29.6242 21.5965 28.8844 22.5206 28.8506 23.4994V23.4994C28.8506 24.0273 28.7893 24.5419 28.6733 25.0358C28.4046 26.1804 28.4916 27.445 29.1522 28.4176V28.4176C30.0832 29.9958 30.7602 31.6572 31.0141 33.4846C31.0141 33.6689 31.1067 33.7623 31.2576 33.7314C31.3841 33.7054 31.5144 33.6582 31.6066 33.5677V33.5677C33.13 32.1556 34.3149 30.5773 35.1612 28.6668C35.8383 27.1716 35.4998 25.4272 34.3149 24.2643C33.4685 23.4336 32.5376 22.7691 31.4373 22.2707C31.1495 22.1423 30.8537 22.0218 30.5497 21.9167ZM27.7134 28.8329C27.5841 28.3253 26.9187 28.2284 26.5195 28.5676C25.4035 29.5158 23.9659 30.0895 22.3848 30.0895V30.0895C22.1826 30.0895 21.999 30.2128 21.9271 30.4018C21.1392 32.4731 19.7723 34.2375 17.9804 35.6444C17.8958 35.7274 17.8112 35.8936 17.8112 35.9766V35.9766C17.8112 36.2238 18.1828 36.2732 18.4163 36.3541C20.2556 36.9919 22.1698 37.1246 24.1587 36.8904C25.8514 36.6412 27.121 35.7274 27.6288 34.0661C28.2212 32.3217 28.2212 30.5773 27.7134 28.8329V28.8329ZM17.6603 32.3044C19.3521 31.525 18.6864 29.2837 17.44 27.8994C17.3239 27.7705 17.2129 27.6368 17.1074 27.4989C16.6168 26.8576 15.8527 26.4173 15.049 26.4958V26.4958C15.0104 26.4995 14.9719 26.5033 14.9336 26.5071C13.1927 26.5847 11.4518 26.2993 9.78008 25.7187C9.54985 25.6388 9.26775 25.4226 9.09381 25.5933V25.5933V25.5933C8.92681 25.7572 9.02493 26.0421 9.06844 26.2721C9.35879 27.8063 10.0051 29.2637 10.8711 30.5773L10.8712 30.5774C11.2943 31.2419 11.7175 31.9064 12.3946 32.3217C13.4948 33.1524 14.7643 33.3185 16.1185 32.9032C16.6527 32.7284 17.1685 32.5309 17.6603 32.3044ZM14.313 24.9512C15.106 25.2533 15.7947 24.4724 15.7947 23.6237V23.6237C15.7947 22.2955 16.1731 21.0777 16.8231 20.06C16.8967 19.9447 16.8932 19.7914 16.7956 19.6956V19.6956C15.1986 17.8807 14.2694 15.82 13.9251 13.5135C13.9203 13.4817 13.9197 13.4547 13.9125 13.4233V13.4233C13.8733 13.2528 13.645 13.1451 13.4949 13.2349C13.4626 13.2542 13.4333 13.2769 13.4102 13.2995C11.8021 14.6286 10.6172 16.2899 9.77088 18.2835C9.17844 19.6126 9.34771 20.9416 10.2787 22.1876C10.8711 23.0183 11.7175 23.5997 12.5638 24.0981C13.1414 24.4316 13.719 24.7249 14.313 24.9512ZM16.9648 14.8778C16.8653 16.929 19.309 17.4349 21.3376 17.1153C21.6791 17.0615 22.0289 17.0336 22.3848 17.0336C22.5481 17.0336 22.71 17.0395 22.8704 17.051C22.8792 17.0516 22.8871 17.046 22.8892 17.0375V17.0375C23.6509 14.7116 25.0051 12.8011 26.9517 11.3059C27.0363 11.2229 27.2056 11.0567 27.2056 10.9736C27.2056 10.8906 27.0364 10.8075 26.8671 10.7245L26.8671 10.7244C25.0051 10.0599 23.0585 9.89379 21.1119 10.0599C19.5039 10.2261 18.2343 10.9736 17.5573 12.3858C17.1439 13.116 17.0536 14.0048 16.9707 14.8199C16.9687 14.8392 16.9668 14.8585 16.9648 14.8778V14.8778ZM22.3848 27.8513C24.7473 27.8513 26.6125 25.9862 26.7368 23.7481C26.8611 21.2612 24.996 19.2718 22.3848 19.1474C20.0223 19.1474 18.0329 21.1369 18.0329 23.3751C18.0329 25.9862 20.0223 27.8513 22.3848 27.8513Z" fill="white"/>
<path d="M34 11L10 36" stroke="#E30000" stroke-width="3" stroke-linecap="round"/>
</svg>
