<svg width="40" height="40" viewBox="0 0 40 40" fill="none" xmlns="http://www.w3.org/2000/svg">
<path fill-rule="evenodd" clip-rule="evenodd" d="M2.42743 0H37.5725C38.9446 0 40 1.05541 40 2.42744V37.5726C40 38.9446 38.9446 40 37.5725 40H2.42743C1.0554 40 0 38.9446 0 37.5726V2.42744C0 1.05541 1.0554 0 2.42743 0ZM35.0395 20.0528C35.0395 28.3881 28.2825 35.1451 19.9472 35.1451C11.6119 35.1451 4.85486 28.3881 4.85486 20.0528C4.85486 11.7175 11.6119 4.96044 19.9472 4.96044C28.2825 4.96044 35.0395 11.7175 35.0395 20.0528Z" fill="url(#paint0_linear_298_1851)"/>
<path d="M26.8291 12.7558C25.246 12.4392 23.6628 12.9669 22.3963 14.0223C20.8132 15.2888 19.9689 17.5051 19.8633 20.0381C18.3858 20.0381 14.0586 16.2387 13.2143 13.6001C13.1087 13.3891 12.8977 13.178 12.581 13.2835C10.0481 14.1278 9.94251 17.1885 10.2591 18.7716V18.8772C10.7868 20.3548 11.9478 21.4102 13.5309 22.0434C14.2697 22.2545 15.0085 22.4656 15.7473 22.4656C17.2248 22.4656 18.7024 22.0434 20.18 21.1991C20.9188 22.4656 19.7578 28.1648 17.9636 30.2756C17.7525 30.4867 17.7525 30.8033 17.9636 31.0144C18.5969 31.6476 19.4412 31.8587 20.18 31.8587C21.6576 31.8587 23.1352 31.0144 23.8739 30.2756C23.8739 30.2756 23.8739 30.2756 23.9795 30.1701C24.9293 29.0091 25.3515 27.426 25.0349 25.8429C24.6127 23.8376 23.2407 21.9379 21.0243 20.5658C22.0797 19.2993 27.2512 17.6107 29.8897 18.1384C30.2063 18.1384 30.4174 18.0329 30.4174 17.7162C30.9451 14.9722 28.3066 13.2835 26.8291 12.7558Z" fill="url(#paint1_linear_298_1851)"/>
<defs>
<linearGradient id="paint0_linear_298_1851" x1="20.0103" y1="0" x2="20.0103" y2="40" gradientUnits="userSpaceOnUse">
<stop stop-color="#7EB6FF"/>
<stop offset="1" stop-color="#2570EC"/>
</linearGradient>
<linearGradient id="paint1_linear_298_1851" x1="20.3142" y1="12.6646" x2="20.3142" y2="31.8587" gradientUnits="userSpaceOnUse">
<stop stop-color="#7EB6FF"/>
<stop offset="1" stop-color="#2570EC"/>
</linearGradient>
</defs>
</svg>
