<svg width="50" height="50" viewBox="0 0 50 50" fill="none" xmlns="http://www.w3.org/2000/svg">
<mask id="path-1-inside-1_322_1862" fill="white">
<path d="M23.2414 15C16.4414 15.9025 8 19.8133 8 29.4398C8 37.8631 14.7414 44 22.3621 44C22.831 44 24.5897 43.9398 25 43.8797"/>
</mask>
<path d="M23.1098 14.0087C19.5974 14.4749 15.601 15.7227 12.4582 18.1579C9.27954 20.6209 7 24.2857 7 29.4398H9C9 24.9674 10.9412 21.8635 13.6832 19.7389C16.461 17.5865 20.0854 16.4276 23.3729 15.9913L23.1098 14.0087ZM7 29.4398C7 38.4336 14.2075 45 22.3621 45V43C15.2752 43 9 37.2925 9 29.4398H7ZM22.3621 45C22.6182 45 23.1921 44.9842 23.744 44.9615C24.2726 44.9398 24.876 44.9085 25.1451 44.8691L24.8549 42.8902C24.7136 42.911 24.2326 42.9398 23.662 42.9632C23.1148 42.9857 22.5749 43 22.3621 43V45Z" fill="#1D8CC6" mask="url(#path-1-inside-1_322_1862)"/>
<mask id="path-3-inside-2_322_1862" fill="white">
<path d="M22.4108 14.7043C15.0558 14.1021 3.41033 19.5216 4.02325 29.1562C4.57488 37.5865 11.0718 43.7286 19.0398 43.7286C19.5301 43.7286 21.3689 43.6684 21.7979 43.6082"/>
</mask>
<path d="M4.02325 29.1562L3.02527 29.2197L3.02538 29.2215L4.02325 29.1562ZM22.4924 13.7076C18.573 13.3867 13.6023 14.6605 9.67726 17.2575C5.73763 19.8641 2.68859 23.9274 3.02527 29.2197L5.02123 29.0927C4.74499 24.7504 7.21222 21.2866 10.7809 18.9254C14.3641 16.5546 18.8936 15.4197 22.3292 15.701L22.4924 13.7076ZM3.02538 29.2215C3.60976 38.1524 10.5199 44.7286 19.0398 44.7286V42.7286C11.6237 42.7286 5.53999 37.0207 5.02112 29.0909L3.02538 29.2215ZM19.0398 44.7286C19.5271 44.7286 21.4303 44.6696 21.9369 44.5985L21.6589 42.6179C21.3074 42.6672 19.5332 42.7286 19.0398 42.7286V44.7286Z" fill="#1D8CC6" mask="url(#path-3-inside-2_322_1862)"/>
<path d="M32.5735 16.4211C32.5735 16.4211 41.1014 15.7413 38.0116 4" stroke="#1D8CC6" stroke-miterlimit="10" stroke-linecap="round"/>
<path fill-rule="evenodd" clip-rule="evenodd" d="M28 35.2381C28 34.5543 28.3788 34 28.8462 34H47.4615C47.9288 34 48.3077 34.5543 48.3077 35.2381C48.3077 35.9219 47.9288 36.4762 47.4615 36.4762H45.7692V44.5238H47.4615C47.9288 44.5238 48.3077 45.0781 48.3077 45.7619C48.3077 46.4457 47.9288 47 47.4615 47H28.8462C28.3788 47 28 46.4457 28 45.7619C28 45.0781 28.3788 44.5238 28.8462 44.5238H30.5385V36.4762H28.8462C28.3788 36.4762 28 35.9219 28 35.2381ZM32.2308 43.2857C31.9971 43.2857 31.8077 43.0086 31.8077 42.6667C31.8077 42.3248 31.9971 42.0476 32.2308 42.0476H39.8461C40.0798 42.0476 40.2692 42.3248 40.2692 42.6667C40.2692 43.0086 40.0798 43.2857 39.8461 43.2857H32.2308ZM32.2308 38.3333C31.9971 38.3333 31.8077 38.0562 31.8077 37.7143C31.8077 37.3724 31.9971 37.0952 32.2308 37.0952H39.8461C40.0798 37.0952 40.2692 37.3724 40.2692 37.7143C40.2692 38.0562 40.0798 38.3333 39.8461 38.3333H32.2308Z" fill="#1D8CC6"/>
<path fill-rule="evenodd" clip-rule="evenodd" d="M29 43.4608C27.7266 43.8122 26.3852 44 25 44C16.7157 44 10 37.2843 10 29C10 20.7157 16.7157 14 25 14C33.2843 14 40 20.7157 40 29C40 30.3852 39.8122 31.7266 39.4608 33H27.5116C26.1245 33 25 34.1193 25 35.5C25 36.8807 26.1245 38 27.5116 38H29V43.4608ZM25 33C27.2091 33 29 31.2091 29 29C29 26.7909 27.2091 25 25 25C22.7909 25 21 26.7909 21 29C21 31.2091 22.7909 33 25 33Z" fill="#1D8CC6"/>
</svg>
