<svg width="50" height="50" viewBox="0 0 50 50" fill="none" xmlns="http://www.w3.org/2000/svg">
<path d="M39.5 38.25H12.5C9.7 38.25 7.5 36.05 7.5 33.25V16.25C7.5 13.45 9.7 11.25 12.5 11.25H20C21.6 11.25 23.1 12.05 24 13.25L25.9 15.85C26.6 16.75 27.6 17.25 28.7 17.25H39.5C42.3 17.25 44.5 19.45 44.5 22.25V33.25C44.5 36.05 42.3 38.25 39.5 38.25Z" fill="#1D8CC6"/>
<path d="M41.1999 18.45H39.7999C39.7999 16.65 38.2999 15.15 36.4999 15.15H23.3999V13.75H36.4999C39.0999 13.75 41.1999 15.85 41.1999 18.45Z" fill="#1D8CC6"/>
</svg>
