<svg width="60" height="60" viewBox="0 0 60 60" fill="none" xmlns="http://www.w3.org/2000/svg">
<rect width="60" height="60" rx="10" fill="url(#paint0_linear_2009_1678)"/>
<path opacity="0.998" d="M41.9221 24.168H17.0784V33.168H41.9221V24.168Z" fill="white"/>
<path opacity="0.998" d="M35.7488 24.168H23.3269V33.168H35.7488V24.168Z" fill="white"/>
<path d="M23.2893 33.168H35.7112L31.5688 38.168H27.4317L23.2893 33.168Z" fill="white"/>
<path opacity="0.998" d="M37.4879 19.168H21.5879V24.168H37.4879V19.168Z" fill="white"/>
<path opacity="0.998" d="M39.0613 14.168H20.0144C19.0997 14.168 18.3582 14.9142 18.3582 15.8346V17.5013C18.3582 18.4218 19.0997 19.168 20.0144 19.168H39.0613C39.976 19.168 40.7175 18.4218 40.7175 17.5013V15.8346C40.7175 14.9142 39.976 14.168 39.0613 14.168Z" fill="white"/>
<path opacity="0.998" d="M40.7175 11.7424H18.3582V16.7424H40.7175V11.7424Z" fill="white"/>
<path opacity="0.998" d="M9.1496 31.3645C7.40679 31.5814 5.91339 35.5739 6.3605 39.6223C6.30621 39.805 6.26733 39.9936 6.26733 40.1946V46.1946C6.26733 47.3026 7.15376 48.1946 8.25483 48.1946H15.149C16.0191 48.2687 16.945 48.2878 17.9769 48.1946H41.0234C42.0553 48.2878 42.9811 48.2687 43.8513 48.1946H50.7454C51.8465 48.1946 52.7329 47.3026 52.7329 46.1946V40.1946C52.7329 39.9936 52.694 39.805 52.6397 39.6223C53.0869 35.5739 51.5935 31.5814 49.8506 31.3645C49.4652 31.3165 49.0681 31.4536 48.6783 31.8156C42.4924 37.5628 34.4456 38.1946 34.4456 38.1946H24.5547C24.5547 38.1946 16.5078 37.5628 10.3219 31.8156C9.93217 31.4536 9.53508 31.3165 9.1496 31.3645Z" fill="#FFDCAD"/>
<defs>
<linearGradient id="paint0_linear_2009_1678" x1="30" y1="0" x2="30" y2="60" gradientUnits="userSpaceOnUse">
<stop stop-color="#FFDCAD"/>
<stop offset="1" stop-color="#F0953E"/>
</linearGradient>
</defs>
</svg>
