<svg width="60" height="60" viewBox="0 0 60 60" fill="none" xmlns="http://www.w3.org/2000/svg">
<rect width="60" height="60" rx="10" fill="url(#paint0_linear_2009_1702)"/>
<path opacity="0.998" d="M42.6563 24.5969H17.3438V33.7769H42.6563V24.5969Z" fill="white"/>
<path opacity="0.998" d="M36.3665 24.5969H23.7102V33.7769H36.3665V24.5969Z" fill="white"/>
<path d="M23.6719 33.7769H36.3281L32.1076 38.8769H27.8924L23.6719 33.7769Z" fill="white"/>
<path opacity="0.998" d="M38.1382 19.4968H21.9382V24.5968H38.1382V19.4968Z" fill="white"/>
<path opacity="0.998" d="M39.7415 14.397H20.3352C19.4032 14.397 18.6477 15.1581 18.6477 16.097V17.797C18.6477 18.7359 19.4032 19.497 20.3352 19.497H39.7415C40.6734 19.497 41.429 18.7359 41.429 17.797V16.097C41.429 15.1581 40.6734 14.397 39.7415 14.397Z" fill="white"/>
<path opacity="0.998" d="M41.429 11.9229H18.6477V17.0229H41.429V11.9229Z" fill="white"/>
<path opacity="0.998" d="M36.4124 38.877H23.5874C22.6554 38.877 21.8999 39.6381 21.8999 40.577V47.377C21.8999 48.3158 22.6554 49.077 23.5874 49.077H36.4124C37.3444 49.077 38.0999 48.3158 38.0999 47.377V40.577C38.0999 39.6381 37.3444 38.877 36.4124 38.877Z" fill="#FFDCAD"/>
<defs>
<linearGradient id="paint0_linear_2009_1702" x1="30" y1="0" x2="30" y2="60" gradientUnits="userSpaceOnUse">
<stop stop-color="#FFDCAD"/>
<stop offset="1" stop-color="#F0953E"/>
</linearGradient>
</defs>
</svg>
