<svg width="64" height="64" viewBox="0 0 64 64" fill="none" xmlns="http://www.w3.org/2000/svg">
<path d="M37.162 48.2871C37.162 50.9796 34.851 53.1623 32.0002 53.1623C29.1494 53.1623 26.8384 50.9796 26.8384 48.2871C26.8384 45.5947 29.1494 43.412 32.0002 43.412C34.851 43.412 37.162 45.5947 37.162 48.2871Z" fill="#DC322F"/>
<path d="M31.9995 42.4099C28.643 42.4099 25.842 45.0182 25.842 48.2879C25.842 51.5575 28.643 54.1659 31.9995 54.1659C35.356 54.1659 38.1589 51.5575 38.1589 48.2879C38.1589 45.0182 35.356 42.4099 31.9995 42.4099ZM31.9995 44.4151C34.3446 44.4151 36.1657 46.1726 36.1657 48.2879C36.1657 50.4031 34.3446 52.1587 31.9995 52.1587C29.6544 52.1587 27.8352 50.4031 27.8352 48.2879C27.8352 46.1726 29.6544 44.4151 31.9995 44.4151Z" fill="#DC322F"/>
<path d="M30.1245 20.49H33.8753V44.1862H30.1245V20.49Z" fill="#DC322F"/>
<path d="M30.1242 19.0786C29.8261 19.0789 29.5403 19.2276 29.3295 19.4923C29.1187 19.757 29.0002 20.1159 29 20.4902V44.187C29.0002 44.5613 29.1187 44.9202 29.3295 45.1849C29.5403 45.4495 29.8261 45.5983 30.1242 45.5985H33.8758C34.1739 45.5983 34.4597 45.4495 34.6705 45.1849C34.8813 44.9202 34.9998 44.5613 35 44.187V20.4902C34.9998 20.1159 34.8813 19.757 34.6705 19.4923C34.4597 19.2276 34.1739 19.0789 33.8758 19.0786H30.1242ZM31.25 21.9017H32.75V42.7735H31.25V21.9017Z" fill="#DC322F"/>
<path d="M31.999 42.4099C28.4271 42.4099 25.4463 45.2674 25.4463 48.8496C25.4463 52.4317 28.4271 55.2893 31.999 55.2893C35.571 55.2893 38.5538 52.4317 38.5538 48.8496C38.5538 45.2674 35.571 42.4099 31.999 42.4099Z" fill="#CCCCCC" stroke="#CCCCCC" stroke-width="8" stroke-linecap="round" stroke-linejoin="round"/>
<path d="M30.1242 9.07864C29.5035 9.07909 29.0004 9.71078 29 10.4902V44.187C29.0004 44.9664 29.5035 45.5981 30.1242 45.5985H33.8758C34.4965 45.5981 34.9996 44.9664 35 44.187V10.4902C34.9996 9.71078 34.4965 9.07909 33.8758 9.07864H30.1242Z" fill="#CCCCCC" stroke="#CCCCCC" stroke-width="8" stroke-linecap="round" stroke-linejoin="round"/>
<path d="M31.999 42.4099C28.4271 42.4099 25.4463 45.2674 25.4463 48.8496C25.4463 52.4317 28.4271 55.2893 31.999 55.2893C35.571 55.2893 38.5538 52.4317 38.5538 48.8496C38.5538 45.2674 35.571 42.4099 31.999 42.4099Z" fill="#DC322F"/>
<path d="M30.1242 19.0786C29.5035 19.0791 29.0004 19.7108 29 20.4902V48.187C29.0004 48.9664 29.5035 49.5981 30.1242 49.5985H33.8758C34.4965 49.5981 34.9996 48.9664 35 48.187V20.4902C34.9996 19.7108 34.4965 19.0791 33.8758 19.0786H30.1242Z" fill="#DC322F"/>
</svg>
