<svg width="65" height="65" viewBox="0 0 65 65" fill="none" xmlns="http://www.w3.org/2000/svg">
<g clip-path="url(#clip0_1357_5472)">
<path d="M32.8571 0.702867L2.7771 11.8572V50.8057L32.8571 64.1543L62.9371 50.8057V11.9486L32.8571 0.702867Z" fill="url(#paint0_radial_1357_5472)"/>
<path d="M32.8571 0.702867L2.7771 11.8572V50.8057L32.8571 64.1543L62.9371 50.8057V11.9486L32.8571 0.702867Z" fill="url(#paint1_radial_1357_5472)"/>
<path d="M32.8571 0.702867L2.7771 11.8572V50.8057L32.8571 64.1543L62.9371 50.8057V11.9486L32.8571 0.702867Z" fill="url(#paint2_radial_1357_5472)"/>
<path opacity="0.3" d="M29.2914 62.3257L8.26282 53.1829C4.97139 51.72 2.7771 48.4286 2.7771 44.7715V16.3372C2.7771 15.0572 4.14853 14.1429 5.3371 14.6915L30.7542 25.7543C31.3942 26.0286 31.8514 26.6686 31.8514 27.4V60.68C31.8514 61.96 30.48 62.8743 29.2914 62.3257Z" fill="url(#paint3_linear_1357_5472)"/>
<path opacity="0.7" d="M58.7314 13.7772L33.5885 24.3829C33.1314 24.5657 32.5828 24.5657 32.1257 24.3829L6.98283 13.6857C5.42854 13.0457 5.51997 10.8514 7.07425 10.3029L29.6571 1.89145C31.76 1.16002 33.9543 1.16002 36.0571 1.89145L58.64 10.3029C60.1943 10.9429 60.1943 13.1372 58.7314 13.7772Z" fill="url(#paint4_linear_1357_5472)"/>
<path opacity="0.5" d="M36.4228 62.3257L57.4514 53.1829C60.7428 51.72 62.9371 48.4286 62.9371 44.7715V16.3372C62.9371 15.0572 61.5657 14.1429 60.3771 14.6915L34.9599 25.7543C34.3199 26.0286 33.8628 26.6686 33.8628 27.4V60.68C33.8628 61.96 35.2342 62.8743 36.4228 62.3257Z" fill="url(#paint5_linear_1357_5472)"/>
</g>
<defs>
<radialGradient id="paint0_radial_1357_5472" cx="0" cy="0" r="1" gradientUnits="userSpaceOnUse" gradientTransform="translate(32.8571 32.4286) rotate(-90) scale(31.7257 30.08)">
<stop stop-color="#BA0000"/>
<stop offset="1" stop-color="#BA0000" stop-opacity="0"/>
</radialGradient>
<radialGradient id="paint1_radial_1357_5472" cx="0" cy="0" r="1" gradientUnits="userSpaceOnUse" gradientTransform="translate(32.8571 32.4286) rotate(-90) scale(31.7257 30.08)">
<stop stop-color="#BA0000"/>
<stop offset="1" stop-color="#BA0000" stop-opacity="0"/>
</radialGradient>
<radialGradient id="paint2_radial_1357_5472" cx="0" cy="0" r="1" gradientUnits="userSpaceOnUse" gradientTransform="translate(32.8571 32.4286) rotate(-90) scale(31.7257 30.08)">
<stop stop-color="#BA0000"/>
<stop offset="1" stop-color="#BA0000" stop-opacity="0"/>
</radialGradient>
<linearGradient id="paint3_linear_1357_5472" x1="-793.429" y1="43.1045" x2="-149.772" y2="39.4474" gradientUnits="userSpaceOnUse">
<stop offset="0.3408" stop-color="#A5A2A3"/>
<stop offset="0.933" stop-color="#F5F5F5"/>
</linearGradient>
<linearGradient id="paint4_linear_1357_5472" x1="-793.573" y1="17.6044" x2="-149.916" y2="13.9472" gradientUnits="userSpaceOnUse">
<stop offset="0.3408" stop-color="#A5A2A3"/>
<stop offset="0.933" stop-color="#F5F5F5"/>
</linearGradient>
<linearGradient id="paint5_linear_1357_5472" x1="-793.428" y1="43.2812" x2="-149.77" y2="39.624" gradientUnits="userSpaceOnUse">
<stop offset="0.3408" stop-color="#A5A2A3"/>
<stop offset="0.933" stop-color="#F5F5F5"/>
</linearGradient>
<clipPath id="clip0_1357_5472">
<rect width="64" height="64" fill="white" transform="matrix(1 0 0 -1 0.857178 64.4286)"/>
</clipPath>
</defs>
</svg>
