<svg width="60" height="60" viewBox="0 0 60 60" fill="none" xmlns="http://www.w3.org/2000/svg">
<path d="M8.57143 -4.49603e-06L51.4286 -7.49338e-07C56.1429 -3.37202e-07 60 3.85714 60 8.57143L60 51.4286C60 56.1429 56.1429 60 51.4286 60L8.57143 60C3.85714 60 3.37202e-07 56.1429 7.49338e-07 51.4286L4.49603e-06 8.57142C4.90816e-06 3.85714 3.85715 -4.90816e-06 8.57143 -4.49603e-06Z" fill="url(#paint0_linear_2007_1036)"/>
<path d="M41.8714 31.793L30.3857 19.193C30.2143 18.9358 29.9571 18.9358 29.7 19.193L18.1286 31.8787C17.9571 32.1358 17.9571 32.393 18.1286 32.6501C18.2143 32.7358 18.3 32.8215 18.3857 32.8215L21.5571 32.8215L21.5571 32.7358L34.2429 32.7358L37.8428 32.7358L38.7857 32.7358L41.5286 32.7358C41.7 32.7358 41.7857 32.6501 41.8714 32.5644C42.0429 32.3072 42.0429 32.0501 41.8714 31.793Z" fill="white"/>
<path d="M34.6 34L25 34L25 47.4571L34.6 47.4571L34.6 34Z" fill="#A6F5FF"/>
<path d="M40.7988 16.0857L41.7988 16.0857L41.7988 15.0857L41.7988 11.0857L41.7988 10.0857L40.7988 10.0857L18.256 10.0857L17.256 10.0857L17.256 11.0857L17.256 15.0857L17.256 16.0857L18.256 16.0857L40.7988 16.0857Z" stroke="white" stroke-width="2"/>
<circle cx="30" cy="13" r="5" fill="#4DC9DA"/>
<defs>
<linearGradient id="paint0_linear_2007_1036" x1="30" y1="-2.62268e-06" x2="30" y2="60" gradientUnits="userSpaceOnUse">
<stop stop-color="#A7F5FF"/>
<stop offset="1" stop-color="#4DC9DA"/>
</linearGradient>
</defs>
</svg>
