<svg width="64" height="64" viewBox="0 0 64 64" fill="none" xmlns="http://www.w3.org/2000/svg">
<path d="M14.25 5.5V18.1134C14.2477 20.9255 15.3968 23.6235 17.4448 25.6131L24.053 32L17.4448 38.3869C15.3968 40.3765 14.2477 43.0745 14.25 45.8866V58.5H49.75V45.8866C49.7523 43.0745 48.6032 40.3765 46.5552 38.3869L39.947 32L46.5552 25.6131C48.6032 23.6235 49.7523 20.9255 49.75 18.1134V5.5H14.25Z" fill="white" stroke="#586E75" stroke-width="4"/>
<path d="M17.7114 18.1135C17.7091 20.9256 18.8583 23.6236 20.9062 25.6132L29.5145 32.0001L32.2319 38.387C30.5623 48.683 26.3316 51.5985 19.7114 56.5001H44.2884C36.7113 53.1934 34.3544 45.7845 31.7679 38.387L34.4853 32.0001L43.0936 25.6132C45.1415 23.6236 46.2906 20.9256 46.2884 18.1135C36.558 21.942 18.0995 13.7925 17.7114 18.1135Z" fill="#2C6BE2"/>
<path d="M11.0083 3.5H52.9917" stroke="#073642" stroke-width="6" stroke-linecap="round"/>
<path d="M11.0083 60.5H52.9917" stroke="#073642" stroke-width="6" stroke-linecap="round"/>
</svg>
