<svg width="42" height="40" viewBox="0 0 42 40" fill="none" xmlns="http://www.w3.org/2000/svg">
<path fill-rule="evenodd" clip-rule="evenodd" d="M0 3.18017C0 2.0756 0.895431 1.18018 2 1.18018H15.9718C17.0764 1.18018 17.9718 2.07561 17.9718 3.18018V17.152C17.9718 18.2566 17.0764 19.152 15.9718 19.152H2C0.895429 19.152 0 18.2566 0 17.152V3.18017ZM0 24.0283C0 22.9237 0.895431 22.0283 2 22.0283H15.9718C17.0764 22.0283 17.9718 22.9237 17.9718 24.0283V38.0001C17.9718 39.1047 17.0764 40.0001 15.9718 40.0001H2C0.895429 40.0001 0 39.1047 0 38.0001V24.0283ZM22.9522 22.0283C21.8476 22.0283 20.9522 22.9237 20.9522 24.0283V38.0001C20.9522 39.1047 21.8476 40.0001 22.9522 40.0001H36.9241C38.0286 40.0001 38.9241 39.1047 38.9241 38.0001V24.0283C38.9241 22.9237 38.0286 22.0283 36.9241 22.0283H22.9522Z" fill="url(#paint0_linear_298_1880)"/>
<rect x="20.7197" y="10.1665" width="14.3775" height="14.3775" rx="2" transform="rotate(-45 20.7197 10.1665)" fill="url(#paint1_linear_298_1880)"/>
<defs>
<linearGradient id="paint0_linear_298_1880" x1="19.472" y1="1.18018" x2="19.472" y2="40.0001" gradientUnits="userSpaceOnUse">
<stop stop-color="#7EB6FF"/>
<stop offset="1" stop-color="#2570EC"/>
</linearGradient>
<linearGradient id="paint1_linear_298_1880" x1="27.9122" y1="10.1665" x2="27.9122" y2="24.544" gradientUnits="userSpaceOnUse">
<stop stop-color="#7EB6FF"/>
<stop offset="1" stop-color="#2570EC"/>
</linearGradient>
</defs>
</svg>
