<svg width="53" height="55" viewBox="0 0 53 55" fill="none" xmlns="http://www.w3.org/2000/svg">
<path fill-rule="evenodd" clip-rule="evenodd" d="M26.1499 11.4321C30.3771 11.4321 34.3889 13.0476 37.3776 15.9555C40.3932 18.8903 42.0356 22.7675 42.0086 26.9409C42.0086 29.6872 41.2548 32.4067 39.8277 34.776C38.4276 37.0647 36.4352 38.9763 34.0658 40.3226L33.2311 40.8072V44.6306H19.0148V40.7803L18.1801 40.2957C15.8107 38.9763 13.8452 37.0377 12.4451 34.7491C11.0181 32.3797 10.2642 29.6872 10.2642 26.914C10.2642 22.7675 11.9066 18.8903 14.9222 15.9555C17.9108 13.0476 21.9227 11.4321 26.1499 11.4321ZM20.0649 51.3895C19.4994 51.3895 19.0148 50.9318 19.0148 50.3663V46.4891H33.2042V50.3663C33.2042 50.9318 32.7465 51.3895 32.1541 51.3895H20.0649Z" fill="url(#paint0_linear_298_1911)"/>
<path fill-rule="evenodd" clip-rule="evenodd" d="M19.28 53.5C19.28 52.9477 19.7277 52.5 20.28 52.5H31.9924C32.5447 52.5 32.9924 52.9477 32.9924 53.5C32.9924 54.0523 32.5447 54.5 31.9924 54.5H20.28C19.7277 54.5 19.28 54.0523 19.28 53.5Z" fill="url(#paint1_linear_298_1911)"/>
<path d="M7.34274 12.0169L4.42139 9.67977M26.6236 6.17416V1.5M42.9832 13.1854L46.4888 9.67977" stroke="#FFBF3E" stroke-width="2" stroke-linecap="round"/>
<path d="M6.17416 28.3763H1.5M45.9045 27.792H51.7472" stroke="white" stroke-width="2" stroke-linecap="round"/>
<path d="M30.1292 18.4443C32.4662 18.8338 37.2572 21.2488 37.7247 27.7927" stroke="white" stroke-width="2" stroke-linecap="round"/>
<defs>
<linearGradient id="paint0_linear_298_1911" x1="26.1447" y1="11.4321" x2="26.1447" y2="51.3895" gradientUnits="userSpaceOnUse">
<stop stop-color="#7EB6FF"/>
<stop offset="1" stop-color="#2570EC"/>
</linearGradient>
<linearGradient id="paint1_linear_298_1911" x1="26.1397" y1="52.5" x2="26.1397" y2="54.5" gradientUnits="userSpaceOnUse">
<stop stop-color="#7EB6FF"/>
<stop offset="1" stop-color="#2570EC"/>
</linearGradient>
</defs>
</svg>
