<svg width="32" height="32" viewBox="0 0 32 32" fill="none" xmlns="http://www.w3.org/2000/svg">
<path d="M17.3561 16.954L10.5275 10.91C10.361 10.7538 10.2283 10.5651 10.1375 10.3557C10.0468 10.1462 10 9.92029 10 9.692C10 9.46371 10.0468 9.23784 10.1375 9.02835C10.2283 8.81885 10.361 8.63019 10.5275 8.474C11.3296 7.842 12.5357 7.842 13.2378 8.474L21.4725 15.78C21.639 15.9362 21.7717 16.1249 21.8625 16.3343C21.9532 16.5438 22 16.7697 22 16.998C22 17.2263 21.9532 17.4522 21.8625 17.6617C21.7717 17.8711 21.639 18.0598 21.4725 18.216L13.2398 25.526C12.4377 26.158 11.2316 26.158 10.5295 25.526C10.363 25.3698 10.2303 25.1811 10.1395 24.9717C10.0488 24.7622 10.002 24.5363 10.002 24.308C10.002 24.0797 10.0488 23.8538 10.1395 23.6443C10.2303 23.4349 10.363 23.2462 10.5295 23.09L17.3581 16.954H17.3561Z" fill="#2C6BE2"/>
</svg>
