<svg width="50" height="50" viewBox="0 0 50 50" fill="none" xmlns="http://www.w3.org/2000/svg">
<path d="M42.3475 27.3389C38.3817 24.0918 34.4349 20.8262 30.4785 17.5668C28.6597 16.0699 26.8409 14.5729 25.019 13.0698C24.8597 13.1855 24.7253 13.2793 24.5972 13.3823C18.9064 18.0762 13.2095 22.7668 7.53126 27.4763C7.32189 27.6513 7.17501 28.0294 7.17189 28.3138C7.15002 33.067 7.15314 37.8234 7.15938 42.5766C7.15938 44.0516 7.93753 44.8141 9.42818 44.8141C13.0876 44.8172 16.744 44.8141 20.4033 44.8141C20.6003 44.8141 20.7971 44.7922 21.0471 44.7766C21.0471 40.8046 21.0471 36.8858 21.0471 32.9389C23.7003 32.9389 26.2972 32.9389 28.9504 32.9389C28.9504 36.8733 28.9504 40.7952 28.9504 44.8172C29.2504 44.8172 29.4503 44.8172 29.6535 44.8172C33.2723 44.8172 36.8879 44.8172 40.5067 44.8172C42.1068 44.8172 42.8474 44.0735 42.8474 42.4578C42.8506 37.7858 42.8412 33.1139 42.8568 28.4451C42.8599 27.9638 42.7194 27.6482 42.3475 27.3389Z" fill="#1D8CC6"/>
<path d="M49.3038 24.1163C47.4443 22.5695 45.6037 21.0006 43.7099 19.4975C43.0662 18.9881 42.8193 18.4663 42.8286 17.6319C42.8787 13.8912 42.8537 10.1473 42.8505 6.40666C42.8505 5.49727 42.5631 5.12852 41.8004 5.12227C39.8567 5.10665 37.9129 5.10665 35.9691 5.12227C35.2848 5.12852 34.9536 5.46602 34.9285 6.16291C34.9035 6.78167 34.9192 7.40355 34.9192 8.02231C34.9192 9.34108 34.9192 10.6599 34.9192 12.1255C34.6066 11.8755 34.4316 11.738 34.2597 11.5942C32.1034 9.79109 29.9472 7.98794 27.7878 6.18478C25.8909 4.60664 24.119 4.60351 22.219 6.18478C18.2627 9.47547 14.3094 12.7724 10.3531 16.0662C7.14683 18.7381 3.94053 21.4131 0.731101 24.0851C-0.197038 24.8601 -0.228289 25.2507 0.562348 26.1883C1.01548 26.7258 1.46237 27.2664 1.91549 27.8039C2.59363 28.607 3.04051 28.6477 3.84677 27.9726C9.16248 23.5381 14.4781 19.0974 19.797 14.663C21.5221 13.2224 23.2534 11.7817 25.0002 10.3255C26.744 11.7787 28.4596 13.2068 30.1722 14.6349C35.5036 19.085 40.838 23.5351 46.1693 27.9852C46.9662 28.6507 47.4099 28.6039 48.0943 27.7914C48.56 27.2382 49.0225 26.682 49.4881 26.1289C50.2163 25.2632 50.1788 24.8444 49.3038 24.1163Z" fill="#1D8CC6"/>
</svg>
