<svg width="42" height="42" viewBox="0 0 42 42" fill="none" xmlns="http://www.w3.org/2000/svg">
<rect width="42" height="42" rx="6" fill="url(#paint0_linear_2009_1647)"/>
<path fill-rule="evenodd" clip-rule="evenodd" d="M23.1107 11.4494C23.1625 11.2724 23.146 11.0758 23.0443 10.9219L22.6641 10.3465C22.4885 10.0808 22.2518 9.85376 21.9481 9.75768C21.833 9.72127 21.7179 9.69066 21.6028 9.66004V9.66004C21.6028 9.66003 21.6028 9.66 21.6027 9.65996L21.0736 7.68917C20.9413 7.19646 20.809 7.05566 20.4783 7.05566H15.848C15.5173 7.05566 15.385 7.12607 15.2527 7.68917L15.2285 7.77921C14.9124 8.95675 14.0398 9.91302 12.9376 10.4343V10.4343V10.4343C12.9376 10.4343 12.9376 10.4343 12.9376 10.4343L11.2839 9.44887C10.8209 9.16732 10.6886 9.23771 10.4902 9.44887L7.249 12.8979C7.05056 13.109 7.05056 13.3202 7.249 13.7425L7.72978 14.6561C8.01021 15.189 8.02359 15.8052 7.79754 16.3634V16.3634C7.55917 16.9519 7.08399 17.4428 6.47649 17.6275L5.59533 17.8954C5.13231 18.0362 5 18.1769 5 18.5289V23.456C5 23.808 5.13231 23.9488 5.59533 24.0896V24.0896C6.75417 24.4419 7.66996 25.3431 8.13652 26.4609C8.14935 26.4916 8.16219 26.5224 8.17503 26.5531V26.5531C8.17504 26.5531 8.17504 26.5531 8.17503 26.5532L7.249 28.3128C6.98441 28.8055 7.05056 28.9463 7.249 29.1575L10.4902 32.6065C10.6886 32.8176 10.887 32.8176 11.2839 32.6065L12.0871 32.1279C12.615 31.8133 13.2329 31.7926 13.7951 32.0409V32.0409C14.342 32.2824 14.8172 32.7443 14.9723 33.3217L15.2527 34.3662C15.385 34.8589 15.5173 34.9997 15.848 34.9997H20.4783C20.809 34.9997 20.9413 34.8589 21.0736 34.3662L21.352 33.3292C21.509 32.7445 21.936 32.2825 22.4895 32.0374V32.0374C23.0499 31.7891 23.7045 31.8093 24.231 32.123L25.0424 32.6065C25.4393 32.8176 25.6377 32.8176 25.8361 32.6065L29.0773 29.1575C29.2758 28.9463 29.3419 28.7352 29.0773 28.3128L28.3329 26.8982C28.2178 26.6797 28.2064 26.4212 28.3034 26.1941V26.1941V26.1941C28.7061 25.2504 29.4726 24.4721 30.4543 24.1737L30.731 24.0896C31.0716 23.986 31.2333 23.8824 31.2949 23.6947C31.3441 23.545 31.28 23.3859 31.1931 23.2544V23.2544C31.0442 23.0291 30.7922 22.8936 30.5221 22.8936H28.308C28.0942 22.8936 28.0229 22.8174 27.9516 22.5127L27.7581 21.8509C27.6578 21.5077 27.3934 21.2641 27.0644 21.124V21.124C26.7315 20.9822 26.329 20.9491 26.0146 21.1283L25.4569 21.4462C25.1718 21.5985 25.1005 21.5985 24.9579 21.4462L24.4734 20.9283C24.417 20.8681 24.3147 20.91 24.3147 20.9926V20.9926C24.3147 24.5488 21.5712 27.4683 18.2293 27.4683C14.8874 27.4683 12.1438 24.5488 12.1438 20.9926C12.1438 17.4364 14.8874 14.5169 18.2293 14.5169C18.3943 14.5169 18.5578 14.524 18.7196 14.538C19.9954 14.648 21.5366 13.8139 21.5366 12.5334V12.5334C21.5366 12.3049 21.6078 12.2287 21.893 12.1525L22.7151 11.878C22.9116 11.8123 23.0525 11.6482 23.1107 11.4494V11.4494ZM22.9601 16.394C22.7958 16.3391 22.6563 16.5614 22.7675 16.6942C22.998 16.9691 23.2069 17.2649 23.3913 17.5783C23.4056 17.6025 23.441 17.6014 23.4535 17.5763V17.5763C23.4583 17.5667 23.4584 17.5555 23.4539 17.5458C23.3613 17.3445 23.2686 17.0804 23.176 16.8164C23.1374 16.7064 23.0988 16.5964 23.0602 16.4909C23.0434 16.4451 23.0065 16.4095 22.9601 16.394V16.394Z" fill="white"/>
<path fill-rule="evenodd" clip-rule="evenodd" d="M35.9564 11.6153C36.0385 11.8484 36.225 12.0283 36.4595 12.1063L37.1471 12.3349V12.3349C37.481 12.4238 37.3455 12.8701 37.3455 13.2157V15.5728C37.3455 15.7839 37.2794 15.8543 37.0148 15.9247L36.5211 16.0889C36.1726 16.2048 35.9295 16.4885 35.7975 16.8312V16.8312C35.6765 17.145 35.6499 17.5128 35.8006 17.8134L36.0887 18.3883C36.221 18.6699 36.221 18.7402 36.0887 18.881L34.1705 20.9223C34.0382 21.063 33.972 21.063 33.7075 20.9223L33.3289 20.7074C32.9468 20.4906 32.4767 20.4778 32.0686 20.6407V20.6407V20.6407C31.8492 20.7282 31.6845 20.9128 31.6179 21.1395L31.3923 21.9077C31.3262 22.1893 31.26 22.2596 31.0616 22.2596H28.3496C28.1511 22.2596 28.085 22.1893 28.0189 21.9077L27.8401 21.2989C27.7465 20.9801 27.5004 20.754 27.1945 20.6242V20.6242C26.886 20.4932 26.5136 20.4626 26.2221 20.6281L25.7037 20.9223C25.4391 21.063 25.373 21.063 25.2407 20.9223L23.3225 18.881C23.1902 18.7402 23.1902 18.6699 23.3225 18.3883L23.5212 17.9918C23.7298 17.5755 23.7419 17.0836 23.5871 16.6443V16.6443V16.6443C23.5049 16.4112 23.3185 16.2314 23.084 16.1534L22.3964 15.9247C22.1318 15.8543 22.0657 15.7839 22.0657 15.5728V12.6869C22.0657 12.4757 22.1318 12.4053 22.3964 12.3349L22.8901 12.1707C23.2386 12.0549 23.4816 11.7712 23.6137 11.4285V11.4285C23.7346 11.1146 23.7613 10.7469 23.6106 10.4462L23.3225 9.87134C23.1902 9.58979 23.1902 9.51941 23.3225 9.37863L25.2407 7.33739C25.373 7.19661 25.4391 7.19661 25.7037 7.33739L26.2004 7.61926C26.5127 7.79649 26.8902 7.81891 27.2251 7.68932V7.68932V7.68932C27.5615 7.55914 27.8132 7.27758 27.9148 6.93146L28.085 6.35194C28.1512 6.07039 28.2173 6 28.4157 6H31.1277C31.3262 6 31.3923 6.07039 31.4585 6.35194L31.6253 6.91995C31.7257 7.26191 32.0206 7.50466 32.3505 7.63953V7.63953C32.6726 7.77117 33.0368 7.79306 33.3394 7.62135L33.8397 7.33739C34.1043 7.19661 34.1705 7.19661 34.3028 7.33739L36.221 9.37863C36.3533 9.51941 36.3533 9.58979 36.221 9.87134L36.0223 10.2678C35.8136 10.6841 35.8016 11.1761 35.9564 11.6153V11.6153V11.6153ZM29.8048 10.2231C27.7657 10.2231 26.1667 12.0041 26.1667 14.0944C26.1667 16.2642 27.8405 17.9657 29.8048 17.9657C31.8438 17.9657 33.4428 16.1846 33.4428 14.0944C33.4428 12.0041 31.8438 10.2231 29.8048 10.2231Z" fill="white"/>
<defs>
<linearGradient id="paint0_linear_2009_1647" x1="21" y1="0" x2="21" y2="42" gradientUnits="userSpaceOnUse">
<stop stop-color="#7EB6FF"/>
<stop offset="1" stop-color="#2570EC"/>
</linearGradient>
</defs>
</svg>
