<svg width="50" height="50" viewBox="0 0 50 50" fill="none" xmlns="http://www.w3.org/2000/svg">
<path fill-rule="evenodd" clip-rule="evenodd" d="M30.5 12.6C30.2 12.6 30 12.5 29.8 12.3L27.7001 10.2V22.7H39.3L37.3 20.7C36.9 20.3 36.9 19.7 37.3 19.3C37.7 18.9 38.3 18.9 38.7 19.3L44.3 24.9C44.7 25.3 44.7 25.9 44.3 26.3L38.7 31.9C38.5 32.1 38.3 32.2 38 32.2C37.7 32.2 37.5 32.1 37.3 31.9C36.9 31.5 36.9 30.9 37.3 30.5L39.6 28.2H27.7001V40L29.9 37.8C30.3 37.4 30.9 37.4 31.3 37.8C31.7 38.2 31.7 38.8 31.3 39.2L25.7 44.8C25.5 45 25.2 45.1 25 45.1C24.7 45.1 24.5 45 24.3 44.8L18.7 39.2C18.3 38.8 18.3 38.2 18.7 37.8C19.1 37.4 19.7 37.4 20.1 37.8L22.2001 39.9V28.2H10L12.3 30.5C12.7 30.9 12.7 31.5 12.3 31.9C12.1 32.1 11.9 32.2 11.6 32.2C11.3 32.2 11.1 32.1 10.9 31.9L5.3 26.3C4.9 25.9 4.9 25.3 5.3 24.9L10.9 19.3C11.3 18.9 11.9 18.9 12.3 19.3C12.7 19.7 12.7 20.3 12.3 20.7L10.3 22.7H22.2001V10.1L20 12.3C19.6 12.7 19 12.7 18.6 12.3C18.2 11.9 18.2 11.3 18.6 10.9L24.2 5.3C24.6 4.9 25.2 4.9 25.6 5.3L31.2 10.9C31.6 11.3 31.6 11.9 31.2 12.3C31 12.5 30.8 12.6 30.5 12.6Z" fill="#1D8CC6"/>
</svg>
