<svg width="44" height="40" viewBox="0 0 44 40" fill="none" xmlns="http://www.w3.org/2000/svg">
<path d="M38.1333 40H5.86667C2.64 40 0 37.5839 0 34.6309V5.36913C0 2.41611 2.64 0 5.86667 0H38.1333C41.36 0 44 2.41611 44 5.36913V34.6309C44 37.5839 41.36 40 38.1333 40Z" fill="url(#paint0_linear_298_1943)"/>
<path d="M21.7737 33.4616C21.7737 33.9246 21.3979 34.3011 20.9331 34.3011C20.4682 34.3011 20.0925 33.9246 20.0925 33.4616C20.0925 32.9986 20.4682 32.6221 20.9331 32.6221C21.3979 32.6221 21.7737 32.9986 21.7737 33.4616Z" fill="white" stroke="white" stroke-width="3"/>
<path d="M25.8477 27.8034C23.2608 24.947 18.9492 24.947 16.3623 27.8034" stroke="white" stroke-width="4" stroke-miterlimit="10" stroke-linecap="round" stroke-linejoin="round"/>
<path d="M31.0217 22.9061C25.4782 16.7852 16.4856 16.7852 10.9421 22.9061" stroke="white" stroke-width="4" stroke-miterlimit="10" stroke-linecap="round" stroke-linejoin="round"/>
<path d="M37.1126 17.5518C27.5669 8.00612 15.1925 7.65245 6 17.5519" stroke="white" stroke-width="4" stroke-miterlimit="10" stroke-linecap="round" stroke-linejoin="round"/>
<defs>
<linearGradient id="paint0_linear_298_1943" x1="22.0113" y1="0" x2="22.0113" y2="40" gradientUnits="userSpaceOnUse">
<stop stop-color="#7EB6FF"/>
<stop offset="1" stop-color="#2570EC"/>
</linearGradient>
</defs>
</svg>
