<svg width="36" height="48" viewBox="0 0 36 48" fill="none" xmlns="http://www.w3.org/2000/svg">
<path d="M32.9688 39.6124H2.66873C1.76873 39.6124 0.968783 39.231 0.468783 38.4683C-0.0312166 37.8009 -0.131265 36.9429 0.168735 36.1802L2.66873 30.3645V21.498C2.66873 19.5913 3.06875 17.7798 3.86875 16.0637C4.56875 14.443 5.66878 12.9176 6.96878 11.6782C8.26878 10.4388 9.86876 9.39003 11.5688 8.72266C13.3688 7.95995 15.2688 7.57861 17.2688 7.57861C19.2688 7.57861 21.1688 7.95995 22.9688 8.72266C24.6688 9.39003 26.2688 10.4388 27.5688 11.6782C28.8688 12.9176 29.9687 14.443 30.6687 16.0637C31.4687 17.7798 31.8687 19.5913 31.8687 21.498V30.2692L35.2688 35.8942C35.7688 36.6569 35.7688 37.6103 35.2688 38.373C34.7688 39.1357 33.9688 39.6124 32.9688 39.6124Z" fill="url(#paint0_linear_298_1873)"/>
<path d="M13.2688 8.15039C12.5688 8.15039 11.9688 7.67372 11.8688 7.00635C11.7688 6.72033 11.7688 6.43432 11.7688 6.14831C11.7688 3.28815 14.1688 1 17.1688 1C20.1688 1 22.5688 3.28815 22.5688 6.14831C22.5688 6.43432 22.5688 6.72033 22.4688 7.00635C22.3688 7.76906 21.5688 8.24573 20.8688 8.15039L17.9688 7.6737C17.3688 7.57836 16.7688 7.57836 16.2688 7.6737L13.3688 8.15039C13.4688 8.15039 13.3688 8.15039 13.2688 8.15039Z" fill="url(#paint1_linear_298_1873)" stroke="white" stroke-width="2" stroke-miterlimit="10"/>
<path fill-rule="evenodd" clip-rule="evenodd" d="M7.86865 46C7.86865 45.1716 8.54023 44.5 9.36865 44.5H25.6686C26.4971 44.5 27.1686 45.1716 27.1686 46C27.1686 46.8284 26.4971 47.5 25.6686 47.5H9.36865C8.54023 47.5 7.86865 46.8284 7.86865 46Z" fill="url(#paint2_linear_298_1873)"/>
<defs>
<linearGradient id="paint0_linear_298_1873" x1="17.8311" y1="7.57861" x2="17.8311" y2="39.6124" gradientUnits="userSpaceOnUse">
<stop stop-color="#7EB6FF"/>
<stop offset="1" stop-color="#2570EC"/>
</linearGradient>
<linearGradient id="paint1_linear_298_1873" x1="17.1716" y1="1" x2="17.1716" y2="8.16248" gradientUnits="userSpaceOnUse">
<stop stop-color="#7EB6FF"/>
<stop offset="1" stop-color="#2570EC"/>
</linearGradient>
<linearGradient id="paint2_linear_298_1873" x1="17.5236" y1="44.5" x2="17.5236" y2="47.5" gradientUnits="userSpaceOnUse">
<stop stop-color="#7EB6FF"/>
<stop offset="1" stop-color="#2570EC"/>
</linearGradient>
</defs>
</svg>
