<svg width="32" height="32" viewBox="0 0 32 32" fill="none" xmlns="http://www.w3.org/2000/svg">
<path d="M7.97168 9.04492H23.6072V11.1748H7.97168V9.04492Z" fill="#BDC2C2"/>
<path d="M7.97181 9.57741H23.6073C23.4659 9.57741 23.3302 9.52122 23.2302 9.4212C23.1302 9.32118 23.074 9.18552 23.074 9.04408V11.174C23.074 11.0325 23.1302 10.8969 23.2302 10.7969C23.3302 10.6969 23.4659 10.6407 23.6073 10.6407H7.97181C8.11326 10.6407 8.24891 10.6969 8.34893 10.7969C8.44895 10.8969 8.50514 11.0325 8.50514 11.174V9.04408C8.50514 9.18552 8.44895 9.32118 8.34893 9.4212C8.24891 9.52122 8.11326 9.57741 7.97181 9.57741ZM7.97181 11.7073H23.6073C23.7488 11.7073 23.8844 11.6511 23.9845 11.5511C24.0845 11.4511 24.1407 11.3154 24.1407 11.174V9.04408C24.1407 8.90263 24.0845 8.76697 23.9845 8.66695C23.8844 8.56693 23.7488 8.51074 23.6073 8.51074H7.97181C7.83036 8.51074 7.69471 8.56693 7.59469 8.66695C7.49467 8.76697 7.43848 8.90263 7.43848 9.04408V11.174C7.43848 11.3154 7.49467 11.4511 7.59469 11.5511C7.69471 11.6511 7.83036 11.7073 7.97181 11.7073Z" fill="#6E6E96"/>
<path d="M9.53223 13.199V5.89617C9.53223 5.38119 9.95356 4.95996 10.4684 4.95996H21.2354C21.7504 4.95996 22.1716 5.38129 22.1716 5.89617V13.199" fill="white"/>
<path d="M10.0657 13.1991V5.8963C10.0658 5.78948 10.1082 5.68706 10.1838 5.61152C10.2593 5.53598 10.3617 5.49351 10.4686 5.49342H21.2355C21.3423 5.49351 21.4448 5.53598 21.5203 5.61152C21.5958 5.68706 21.6383 5.78948 21.6384 5.8963V13.1991H22.705V5.8963C22.705 5.08596 22.0457 4.42676 21.2355 4.42676H10.4686C9.65822 4.42676 8.99902 5.08606 8.99902 5.8963V13.1991H10.0657Z" fill="#6E6E96"/>
<path d="M5.6001 12.2991C5.6001 11.7124 6.0801 11.2324 6.66676 11.2324H25.0374C25.6241 11.2324 26.1041 11.7124 26.1041 12.2991V20.5583C26.1041 21.145 25.6241 21.625 25.0374 21.625H6.66676C6.0801 21.625 5.6001 21.145 5.6001 20.5583V12.2991Z" fill="#EBEBFA"/>
<path opacity="0.64" d="M24.8119 11.3037H6.92324C6.35193 11.3037 5.88452 11.7711 5.88452 12.3424V13.5888C5.88452 13.0176 6.35193 12.5501 6.92324 12.5501H24.8121C25.3832 12.5501 25.8506 13.0175 25.8506 13.5888V12.3424C25.8507 11.7711 25.3833 11.3037 24.8119 11.3037Z" fill="white"/>
<path opacity="0.15" d="M24.5419 20.1947H6.9419C6.37976 20.1947 5.91992 19.7349 5.91992 19.1729V20.6037C5.91992 21.1657 6.37976 21.6255 6.9419 21.6255H24.5419C25.1041 21.6255 25.5639 21.1656 25.5639 20.6037V19.1729C25.5639 19.735 25.1041 20.1947 24.5419 20.1947Z" fill="#6E6E96"/>
<path d="M6.13332 12.2992C6.13332 12.0051 6.37257 11.7659 6.66665 11.7659H25.0373C25.3315 11.7659 25.5707 12.0051 25.5707 12.2992V20.5584C25.5707 20.8525 25.3315 21.0918 25.0373 21.0918H6.66665C6.37257 21.0918 6.13332 20.8525 6.13332 20.5584V12.2992ZM5.06665 20.5584C5.06665 21.4407 5.78441 22.1584 6.66665 22.1584H25.0373C25.9196 22.1584 26.6373 21.4407 26.6373 20.5584V12.2992C26.6373 11.417 25.9196 10.6992 25.0373 10.6992H6.66665C5.78441 10.6992 5.06665 11.417 5.06665 12.2992V20.5584Z" fill="#6E6E96"/>
<path d="M7.80444 17.7871H23.9091V21.5321H7.80444V17.7871Z" fill="#A7A7C2"/>
<path d="M7.80457 18.3196H23.9092C23.7678 18.3196 23.6321 18.2634 23.5321 18.1634C23.4321 18.0634 23.3759 17.9277 23.3759 17.7863V21.5312C23.3759 21.3898 23.4321 21.2541 23.5321 21.1541C23.6321 21.0541 23.7678 20.9979 23.9092 20.9979H7.80457C7.94602 20.9979 8.08168 21.0541 8.1817 21.1541C8.28172 21.2541 8.33791 21.3898 8.33791 21.5312V17.7863C8.33791 17.8563 8.32411 17.9257 8.29731 17.9904C8.27051 18.0551 8.23122 18.1139 8.1817 18.1634C8.13217 18.2129 8.07338 18.2522 8.00867 18.279C7.94396 18.3058 7.87461 18.3196 7.80457 18.3196ZM7.80457 22.0646H23.9092C24.2039 22.0646 24.4425 21.8258 24.4425 21.5312V17.7863C24.4425 17.4916 24.2039 17.2529 23.9092 17.2529H7.80457C7.66312 17.2529 7.52747 17.3091 7.42745 17.4091C7.32743 17.5092 7.27124 17.6448 7.27124 17.7863V21.5312C7.27124 21.6727 7.32743 21.8083 7.42745 21.9083C7.52747 22.0084 7.66312 22.0646 7.80457 22.0646Z" fill="#6E6E96"/>
<path d="M22.1716 19.1914V26.4942C22.1716 27.0092 21.7504 27.4304 21.2354 27.4304H10.4684C9.95356 27.4304 9.53223 27.0092 9.53223 26.4942V19.1914" fill="white"/>
<path d="M21.6382 19.1914V26.4942C21.6382 26.6009 21.596 26.7017 21.5195 26.7784C21.4824 26.816 21.4381 26.8458 21.3893 26.8662C21.3406 26.8866 21.2882 26.8971 21.2354 26.8971H10.4684C10.3618 26.8971 10.261 26.8549 10.1843 26.7783C10.1467 26.7411 10.1168 26.6969 10.0964 26.6482C10.076 26.5994 10.0655 26.5471 10.0654 26.4942V19.1914H8.99878V26.4942C8.99878 26.8858 9.15195 27.2546 9.43003 27.5326C9.56602 27.6695 9.7278 27.7781 9.90602 27.8521C10.0842 27.9261 10.2754 27.9641 10.4683 27.9638H21.2353C21.6268 27.9638 21.9956 27.8105 22.2734 27.5325C22.4104 27.3966 22.5191 27.2348 22.5931 27.0566C22.6671 26.8784 22.7051 26.6872 22.7047 26.4942V19.1914H21.6382Z" fill="#6E6E96"/>
<path d="M22.1296 13.9648C22.1296 14.0896 22.1542 14.2133 22.202 14.3287C22.2498 14.4441 22.3198 14.5489 22.4081 14.6373C22.4964 14.7256 22.6012 14.7956 22.7166 14.8434C22.832 14.8912 22.9557 14.9158 23.0806 14.9158C23.2055 14.9158 23.3291 14.8912 23.4445 14.8434C23.5599 14.7956 23.6647 14.7256 23.753 14.6373C23.8413 14.5489 23.9114 14.4441 23.9592 14.3287C24.0069 14.2133 24.0315 14.0896 24.0315 13.9648C24.0315 13.8399 24.0069 13.7162 23.9592 13.6008C23.9114 13.4854 23.8413 13.3806 23.753 13.2922C23.6647 13.2039 23.5599 13.1339 23.4445 13.0861C23.3291 13.0383 23.2055 13.0137 23.0806 13.0137C22.9557 13.0137 22.832 13.0383 22.7166 13.0861C22.6012 13.1339 22.4964 13.2039 22.4081 13.2922C22.3198 13.3806 22.2498 13.4854 22.202 13.6008C22.1542 13.7162 22.1296 13.8399 22.1296 13.9648Z" fill="#00CCC6"/>
<path d="M23.0805 13.5482C23.1919 13.5482 23.2968 13.5916 23.3758 13.6705C23.4147 13.7091 23.4456 13.7551 23.4665 13.8058C23.4875 13.8565 23.4982 13.9109 23.4981 13.9657C23.498 14.0764 23.4539 14.1826 23.3757 14.2608C23.2974 14.3391 23.1913 14.3832 23.0806 14.3833C22.9699 14.3832 22.8637 14.3391 22.7854 14.2608C22.7072 14.1826 22.6631 14.0764 22.663 13.9657C22.663 13.8541 22.7064 13.7493 22.7852 13.6705C22.8239 13.6316 22.8699 13.6007 22.9206 13.5798C22.9713 13.5588 23.0256 13.5481 23.0805 13.5482ZM21.5962 13.9657C21.5962 14.7841 22.262 15.45 23.0805 15.45C23.8988 15.45 24.5646 14.7842 24.5646 13.9657C24.5646 13.5692 24.4104 13.1965 24.13 12.9162C23.8496 12.6359 23.4771 12.4814 23.0805 12.4814C22.6839 12.4814 22.3112 12.6358 22.0309 12.9162C21.8926 13.0537 21.783 13.2173 21.7084 13.3974C21.6338 13.5776 21.5957 13.7707 21.5962 13.9657Z" fill="#6E6E96"/>
<path d="M11.3423 20.8789H19.9558V21.9456H11.3423V20.8789ZM11.4359 22.871H16.9598V23.9377H11.4359V22.871ZM11.4359 24.7567H18.2706V25.8233H11.4359V24.7567Z" fill="#00CCC6"/>
<path opacity="0.15" d="M8.33789 18.3203H23.3759V20.1949H8.33789V18.3203Z" fill="#6E6E96"/>
<path opacity="0.15" d="M8.50513 9.57812H23.0934V10.6493H8.50513V9.57812Z" fill="#6E6E96"/>
</svg>
