<svg width="46" height="46" viewBox="0 0 46 46" fill="none" xmlns="http://www.w3.org/2000/svg">
<circle cx="23" cy="23" r="23" fill="url(#paint0_linear_298_1950)"/>
<path d="M38.36 14.2646L37.1 19.3221L31.46 18.1727" fill="url(#paint1_linear_298_1950)"/>
<path d="M38.36 14.2646L37.1 19.3221L31.46 18.1727" stroke="white" stroke-width="3" stroke-miterlimit="10" stroke-linecap="round" stroke-linejoin="round"/>
<path d="M8 21.9081C8 14.2069 14.48 8 22.52 8C28.76 8 34.1 11.7931 36.14 17.0805" stroke="white" stroke-width="3" stroke-miterlimit="10" stroke-linecap="round" stroke-linejoin="round"/>
<path d="M8 31.7934L9.32001 26.7358L14.96 27.8853" fill="url(#paint2_linear_298_1950)"/>
<path d="M8 31.7934L9.32001 26.7358L14.96 27.8853" stroke="white" stroke-width="3" stroke-miterlimit="10" stroke-linecap="round" stroke-linejoin="round"/>
<path d="M38.36 24.1489C38.36 24.2639 38.36 24.4363 38.36 24.5512C38.12 32.0226 31.7 37.9996 23.84 37.9996C17.6 37.9996 12.26 34.2065 10.22 28.9191" stroke="white" stroke-width="3" stroke-miterlimit="10" stroke-linecap="round" stroke-linejoin="round"/>
<defs>
<linearGradient id="paint0_linear_298_1950" x1="23.0118" y1="0" x2="23.0118" y2="46" gradientUnits="userSpaceOnUse">
<stop stop-color="#7EB6FF"/>
<stop offset="1" stop-color="#2570EC"/>
</linearGradient>
<linearGradient id="paint1_linear_298_1950" x1="34.9117" y1="14.2646" x2="34.9117" y2="19.3221" gradientUnits="userSpaceOnUse">
<stop stop-color="#7EB6FF"/>
<stop offset="1" stop-color="#2570EC"/>
</linearGradient>
<linearGradient id="paint2_linear_298_1950" x1="11.4818" y1="26.7358" x2="11.4818" y2="31.7934" gradientUnits="userSpaceOnUse">
<stop stop-color="#7EB6FF"/>
<stop offset="1" stop-color="#2570EC"/>
</linearGradient>
</defs>
</svg>
