<svg width="48" height="48" viewBox="0 0 48 48" fill="none" xmlns="http://www.w3.org/2000/svg">
<g clip-path="url(#clip0_2005_1016)">
<path d="M31.4559 36H15.5839C15.1657 36.0002 14.7516 35.918 14.3652 35.758C13.9788 35.5981 13.6277 35.3636 13.332 35.0679C13.0363 34.7722 12.8018 34.4211 12.6419 34.0347C12.4819 33.6483 12.3997 33.2342 12.3999 32.816V15.328C12.3977 14.4666 12.7302 13.6381 13.3272 13.0171C13.9242 12.3962 14.7391 12.0315 15.5999 12H21.9999V13.6H15.5999C15.1617 13.6296 14.7511 13.8245 14.4511 14.1453C14.1511 14.4661 13.9841 14.8888 13.9839 15.328V32.816C13.9839 33.2403 14.1525 33.6473 14.4525 33.9474C14.7526 34.2474 15.1596 34.416 15.5839 34.416H31.4559C31.8968 34.416 32.3214 34.2496 32.6448 33.95C32.9681 33.6503 33.1664 33.2396 33.1999 32.8V26.4H34.7999V32.8C34.7647 33.6623 34.3967 34.4775 33.7731 35.0742C33.1495 35.671 32.319 36.0028 31.4559 36ZM25.9519 27.488C25.7284 27.7062 25.4438 27.8513 25.1359 27.904L18.1759 31.344C18.0188 31.4293 17.8384 31.4619 17.6614 31.4369C17.4843 31.4119 17.32 31.3306 17.1927 31.2051C17.0654 31.0796 16.9818 30.9165 16.9543 30.7398C16.9268 30.5631 16.9568 30.3823 17.0399 30.224L20.4959 23.248C20.5355 22.9393 20.6761 22.6524 20.8959 22.432L30.0639 13.264C30.2103 13.1158 30.3847 12.9981 30.577 12.9178C30.7693 12.8375 30.9755 12.7961 31.1839 12.7961C31.3923 12.7961 31.5985 12.8375 31.7908 12.9178C31.9831 12.9981 32.1575 13.1158 32.3039 13.264L35.1199 16.064C35.4179 16.3638 35.5852 16.7693 35.5852 17.192C35.5852 17.6147 35.4179 18.0202 35.1199 18.32L25.9519 27.488ZM18.5759 29.264C18.5333 29.3423 18.5171 29.4322 18.5298 29.5204C18.5425 29.6087 18.5835 29.6904 18.6465 29.7534C18.7095 29.8164 18.7912 29.8574 18.8795 29.8701C18.9677 29.8828 19.0576 29.8666 19.1359 29.824L23.4239 27.216L21.1679 24.96L18.5759 29.264ZM22.0159 23.552L27.7919 17.776L30.6239 20.576L24.8319 26.368L22.0159 23.552ZM33.4239 16.64L31.7439 14.944C31.5944 14.7974 31.3933 14.7153 31.1839 14.7153C30.9745 14.7153 30.7734 14.7974 30.6239 14.944L28.9759 16.592L31.7439 19.44L33.4239 17.76C33.4998 17.6878 33.5602 17.6009 33.6015 17.5047C33.6428 17.4084 33.6641 17.3047 33.6641 17.2C33.6641 17.0952 33.6428 16.9916 33.6015 16.8953C33.5602 16.7991 33.4998 16.7122 33.4239 16.64Z" fill="#459BFB"/>
</g>
<defs>
<clipPath id="clip0_2005_1016">
<rect width="24" height="24" fill="white" transform="translate(12 12)"/>
</clipPath>
</defs>
</svg>
