<svg width="50" height="50" viewBox="0 0 50 50" fill="none" xmlns="http://www.w3.org/2000/svg">
<path d="M33.1516 37.0992L11.5132 36.7221C11.1119 36.7221 10.727 36.8749 10.4432 37.1469C10.1594 37.4189 10 37.7878 10 38.1725C10 38.5572 10.1594 38.9261 10.4432 39.1981C10.727 39.4701 11.1119 39.6229 11.5132 39.6229L33.1364 40C33.5377 40 33.9226 39.8472 34.2064 39.5752C34.4902 39.3032 34.6496 38.9343 34.6496 38.5496C34.6496 38.1649 34.4902 37.796 34.2064 37.524C33.9226 37.252 33.5377 37.0992 33.1364 37.0992H33.1516ZM39.4615 18.6936C39.178 18.4235 38.7945 18.2718 38.3947 18.2718C37.9949 18.2718 37.6114 18.4235 37.3279 18.6936L35.0279 20.8982C34.8485 18.9789 34.1882 17.1296 33.1032 15.5074C32.0181 13.8852 30.5403 12.5382 28.7956 11.5809C27.0508 10.6237 25.0907 10.0844 23.0819 10.0091C21.073 9.93384 19.0749 10.3247 17.2575 11.1484C15.4401 11.9721 13.8571 13.2044 12.6432 14.7404C11.4292 16.2764 10.6203 18.0707 10.2851 19.9707C9.94987 21.8706 10.0983 23.8201 10.7179 25.6533C11.3374 27.4865 12.4097 29.1491 13.8435 30.4999C16.174 32.7299 19.3268 33.9908 22.6199 34.0098H23.1495C23.3482 34.0098 23.545 33.9723 23.7285 33.8994C23.9121 33.8265 24.0789 33.7197 24.2195 33.585C24.36 33.4503 24.4714 33.2905 24.5475 33.1145C24.6235 32.9385 24.6627 32.7499 24.6627 32.5594C24.6627 32.369 24.6235 32.1804 24.5475 32.0044C24.4714 31.8284 24.36 31.6685 24.2195 31.5339C24.0789 31.3992 23.9121 31.2923 23.7285 31.2194C23.545 31.1466 23.3482 31.109 23.1495 31.109C21.3119 31.1864 19.4907 30.7484 17.9089 29.8488C16.327 28.9491 15.0532 27.6269 14.2434 26.0439C13.4335 24.461 13.1229 22.686 13.3494 20.9364C13.5759 19.1868 14.3297 17.5385 15.5186 16.1933C16.7075 14.8481 18.2799 13.8644 20.0432 13.3626C21.8064 12.8608 23.6841 12.8628 25.4462 13.3683C27.2083 13.8738 28.7784 14.8608 29.9642 16.2085C31.15 17.5562 31.9001 19.2061 32.1226 20.9562L29.6713 18.6936C29.5356 18.5418 29.3687 18.4185 29.1809 18.3314C28.9932 18.2443 28.7887 18.1954 28.5803 18.1877C28.3719 18.18 28.1641 18.2136 27.97 18.2866C27.7758 18.3595 27.5994 18.4701 27.452 18.6114C27.3045 18.7528 27.1891 18.9218 27.113 19.1079C27.037 19.2941 27.0018 19.4933 27.0099 19.693C27.0179 19.8927 27.069 20.0887 27.1598 20.2687C27.2506 20.4486 27.3793 20.6086 27.5377 20.7387L33.5904 26.5403L39.6431 20.7387C39.7714 20.593 39.8684 20.4245 39.9287 20.2429C39.9891 20.0612 40.0114 19.87 39.9945 19.6801C39.9777 19.4901 39.9219 19.3052 39.8305 19.136C39.739 18.9667 39.6136 18.8164 39.4615 18.6936Z" fill="#3E93F3"/>
</svg>
