<svg width="60" height="60" viewBox="0 0 60 60" fill="none" xmlns="http://www.w3.org/2000/svg">
<rect width="60" height="60" rx="6" fill="url(#paint0_linear_2009_1609)"/>
<path opacity="0.998" d="M41.7188 38.8298H18.2812V47.2898H41.7188V38.8298Z" fill="white"/>
<path opacity="0.998" d="M35.8948 38.8298H24.176V47.2898H35.8948V38.8298Z" fill="white"/>
<path d="M24.1406 47.2898H35.8594L31.9514 51.9898H28.0485L24.1406 47.2898Z" fill="white"/>
<path opacity="0.998" d="M37.5354 34.1299H22.5354V38.8299H37.5354V34.1299Z" fill="white"/>
<path opacity="0.998" d="M39.0198 29.4299H21.051C20.1881 29.4299 19.4885 30.1313 19.4885 30.9966V32.5633C19.4885 33.4285 20.1881 34.1299 21.051 34.1299H39.0198C39.8827 34.1299 40.5823 33.4285 40.5823 32.5633V30.9966C40.5823 30.1313 39.8827 29.4299 39.0198 29.4299Z" fill="white"/>
<path opacity="0.998" d="M40.5823 27.1499H19.4885V31.8499H40.5823V27.1499Z" fill="white"/>
<path opacity="0.998" d="M31.8735 26.5473H28.1057C27.8263 26.5473 27.6669 26.3697 27.6669 26.1696V16.1904C27.6667 15.4709 26.8076 15.1013 26.2875 15.5971L24.9877 16.8348C24.8136 17.0007 24.5097 17.0007 24.3355 16.8348L22.5603 15.1435C22.4728 15.0601 22.4448 14.9773 22.4448 14.892C22.4448 14.8067 22.4728 14.723 22.5603 14.6396L27.8883 9.56499L29.6642 7.87211C29.8389 7.70572 30.1402 7.70572 30.3149 7.87211L32.0909 9.56499L37.4188 14.6396C37.5935 14.806 37.5935 14.9771 37.4188 15.1435L35.6437 16.8348C35.4695 17.0007 35.1656 17.0007 34.9914 16.8348L33.6917 15.5971C33.1716 15.1013 32.3124 15.4709 32.3123 16.1904V26.1696C32.3123 26.3697 32.1528 26.5473 31.8735 26.5473Z" fill="#4DC9DA"/>
<defs>
<linearGradient id="paint0_linear_2009_1609" x1="30" y1="0" x2="30" y2="60" gradientUnits="userSpaceOnUse">
<stop stop-color="#A7F5FF"/>
<stop offset="1" stop-color="#4DC9DA"/>
</linearGradient>
</defs>
</svg>
