<svg width="50" height="50" viewBox="0 0 50 50" fill="none" xmlns="http://www.w3.org/2000/svg">
<path fill-rule="evenodd" clip-rule="evenodd" d="M21.4 43.6H26.9C28.4 43.6 29.8 42.3 29.8 40.8V40.3C29.8 39.1 30.5 38 31.6 37.3C32.8 36.5 34.4 36.5 35.6 37.2L36.1 37.4C37.5 38.1 39.1 37.6 40 36.3L42.8 31.8C43.1 31.2 43.2 30.4 43 29.7C42.8 29 42.3 28.4 41.7 28.1L41.2 27.8C40 27.2 39.3 26 39.3 24.7C39.3 23.4 40 22.3 41.1 21.6H41.6L41.7 21.5C43 20.8 43.5 19.1 42.8 17.6L40 13C39.2 11.7 37.4 11.2 36.1 11.9L35.5 12.3C34.3 13 32.7 12.9 31.5 12.2C30.3 11.5 29.7 10.4 29.7 9.2V8.8C29.7 7.2 28.4 6 26.8 6H21.3C19.8 6 18.4 7.3 18.4 8.8V9.2C18.4 10.4 17.7 11.5 16.6 12.2C15.4 12.9 13.8 13 12.6 12.3L12.1 12.1C10.8 11.4 9.1 11.9 8.1 13.2L5.4 17.7C5 18.3 4.9 19.1 5.1 19.8C5.4 20.6 5.9 21.2 6.6 21.6L7.1 21.8C8.2 22.5 8.9 23.6 8.9 24.9C8.9 26.2 8.2 27.3 7.1 28H6.7L6.6 28.1C5.3 28.8 4.8 30.5 5.5 32L8.3 36.6C9.1 37.8 10.8 38.3 12.1 37.7L12.5 37.5L12.7 37.4C13.9 36.7 15.5 36.8 16.7 37.5C17.9 38.2 18.5 39.3 18.5 40.5V40.8C18.5 42.4 19.8 43.6 21.4 43.6ZM18 25.05C18 28.35 20.8 31.05 24.3 31.05C27.8 31.05 30.6 28.45 30.6 25.05C30.6 21.75 27.8 19.05 24.3 19.05C20.8 19.05 18 21.65 18 25.05Z" fill="#1D8CC6"/>
</svg>
