<svg width="46" height="46" viewBox="0 0 46 46" fill="none" xmlns="http://www.w3.org/2000/svg">
<circle cx="23" cy="23" r="23" fill="url(#paint0_linear_298_1930)"/>
<path d="M28.5441 11.5811C32.9412 13.684 36 18.0811 36 23.3384C36 30.5075 30.1691 36.3384 23 36.3384C15.8309 36.3384 10 30.5075 10 23.3384C10 19.8972 11.3382 16.7428 13.5368 14.4487C14.4926 13.4928 15.5441 12.6325 16.6912 11.9634" fill="url(#paint1_linear_298_1930)"/>
<path d="M28.5441 11.5811C32.9412 13.684 36 18.0811 36 23.3384C36 30.5075 30.1691 36.3384 23 36.3384C15.8309 36.3384 10 30.5075 10 23.3384C10 19.8972 11.3382 16.7428 13.5368 14.4487C14.4926 13.4928 15.5441 12.6325 16.6912 11.9634" stroke="white" stroke-width="3" stroke-miterlimit="10" stroke-linecap="round"/>
<path d="M23 9V14.2574" stroke="white" stroke-width="3" stroke-miterlimit="10" stroke-linecap="round"/>
<defs>
<linearGradient id="paint0_linear_298_1930" x1="23.0118" y1="0" x2="23.0118" y2="46" gradientUnits="userSpaceOnUse">
<stop stop-color="#7EB6FF"/>
<stop offset="1" stop-color="#2570EC"/>
</linearGradient>
<linearGradient id="paint1_linear_298_1930" x1="23.0067" y1="11.5811" x2="23.0067" y2="36.3384" gradientUnits="userSpaceOnUse">
<stop stop-color="#7EB6FF"/>
<stop offset="1" stop-color="#2570EC"/>
</linearGradient>
</defs>
</svg>
