<svg width="60" height="60" viewBox="0 0 60 60" fill="none" xmlns="http://www.w3.org/2000/svg">
<rect width="60" height="60" rx="10" fill="url(#paint0_linear_2010_1748)"/>
<path d="M10.3093 50.7076H16.1888C16.1888 50.7076 16.1888 49.173 15.6341 48.9511L14.9315 48.3965C14.9315 48.3965 14.8576 47.7678 15.3568 47.6199H31.5531C31.5531 47.6199 33.7902 47.546 34.918 46.64L36.1013 50.7076H42.2027C42.2027 50.7076 42.9052 50.5597 42.2027 49.6537L39.4663 45.8635L51.0219 38.7083C51.0219 38.7083 55.2188 36.5451 52.5564 32.9582C52.5564 32.9582 48.2855 29.0386 40.3538 37.3771C40.3538 37.3771 38.5234 37.3771 37.488 36.8779C37.488 36.8779 32.1632 27.0048 22.6969 28.0402C22.6969 28.0402 11.7699 28.5394 9.5143 39.7437C9.5143 39.7437 5.16941 39.7437 5.24337 44.0146L6.92585 44.1625C6.92585 44.1625 7.48052 47.1022 9.38488 47.2502L10.3093 50.7076Z" fill="white"/>
<path d="M52.9262 18.3675V14.5772C52.1867 14.4293 51.3547 14.2814 50.4857 14.1705C50.2638 13.3015 49.931 12.488 49.4873 11.73C50.0235 11.0089 50.5227 10.3248 50.9294 9.69618L48.2485 7.01529C47.6199 7.42204 46.9358 7.90276 46.2148 8.45742C45.4567 8.01369 44.6432 7.68089 43.7927 7.45902C43.6633 6.57156 43.5339 5.73956 43.3675 5H39.5772C39.4293 5.73956 39.2814 6.55307 39.152 7.45902C38.283 7.68089 37.4695 8.01369 36.73 8.45742C36.0089 7.92124 35.3248 7.42204 34.6962 7.01529L32.0153 9.69618C32.422 10.3248 32.9028 11.0089 33.4574 11.73C33.0137 12.488 32.6809 13.3015 32.459 14.152C31.5716 14.2814 30.7396 14.4108 30 14.5772V18.3675C30.7396 18.5154 31.5531 18.6633 32.459 18.7927C32.6809 19.6617 33.0137 20.4752 33.4574 21.2148C32.9212 21.9358 32.422 22.6199 32.0153 23.2485L34.6962 25.9294C35.3248 25.5227 36.0089 25.042 36.73 24.4873C37.488 24.931 38.3015 25.2638 39.152 25.4857C39.2814 26.3732 39.4108 27.2052 39.5772 27.9447H43.349C43.4969 27.2052 43.6448 26.3916 43.7742 25.4857C44.6432 25.2638 45.4567 24.931 46.2148 24.4688C46.9358 25.005 47.6014 25.4857 48.2485 25.9109L50.9294 23.23C50.5227 22.6014 50.0235 21.9173 49.4873 21.1963C49.931 20.4382 50.2823 19.6247 50.5042 18.7557C51.3547 18.6633 52.1867 18.5154 52.9262 18.3675ZM41.4631 22.2132C38.3015 22.2132 35.7316 19.6432 35.7316 16.4816C35.7316 13.32 38.3015 10.75 41.4631 10.75C44.6247 10.75 47.1947 13.32 47.1947 16.4816C47.1947 19.6432 44.6247 22.2132 41.4631 22.2132Z" fill="white"/>
<defs>
<linearGradient id="paint0_linear_2010_1748" x1="30" y1="0" x2="30" y2="60" gradientUnits="userSpaceOnUse">
<stop stop-color="#7EB6FF"/>
<stop offset="1" stop-color="#2570EC"/>
</linearGradient>
</defs>
</svg>
