<svg width="48" height="48" viewBox="0 0 48 48" fill="none" xmlns="http://www.w3.org/2000/svg">
<path d="M23.1589 41.48C24.9039 41.48 26.3185 40.066 26.3185 38.3218C26.3185 36.5776 24.9039 35.1636 23.1589 35.1636C21.4139 35.1636 19.9993 36.5776 19.9993 38.3218C19.9993 40.066 21.4139 41.48 23.1589 41.48Z" fill="#191827"/>
<path fill-rule="evenodd" clip-rule="evenodd" d="M23.1589 38.48C23.2483 38.48 23.3185 38.4079 23.3185 38.3218C23.3185 38.2357 23.2483 38.1636 23.1589 38.1636C23.0695 38.1636 22.9993 38.2356 22.9993 38.3218C22.9993 38.408 23.0695 38.48 23.1589 38.48ZM26.3185 38.3218C26.3185 40.066 24.9039 41.48 23.1589 41.48C21.4139 41.48 19.9993 40.066 19.9993 38.3218C19.9993 36.5776 21.4139 35.1636 23.1589 35.1636C24.9039 35.1636 26.3185 36.5776 26.3185 38.3218Z" fill="#333333"/>
<path fill-rule="evenodd" clip-rule="evenodd" d="M15.5059 29.3409C19.792 24.6084 26.9893 24.6084 31.2754 29.3409C32.0169 30.1596 31.9543 31.4244 31.1356 32.1659C30.3169 32.9074 29.0521 32.8447 28.3106 32.026C25.6123 29.0467 21.169 29.0467 18.4707 32.026C17.7292 32.8447 16.4644 32.9074 15.6457 32.1659C14.827 31.4244 14.7644 30.1596 15.5059 29.3409Z" fill="#333333"/>
<path fill-rule="evenodd" clip-rule="evenodd" d="M8.18924 22.73C16.4664 13.5906 29.983 13.5906 38.2602 22.73C39.0016 23.5487 38.939 24.8135 38.1203 25.555C37.3016 26.2965 36.0368 26.2338 35.2953 25.4151C28.6059 18.0289 17.8434 18.0289 11.1541 25.4151C10.4126 26.2338 9.1478 26.2965 8.32909 25.555C7.51038 24.8135 7.44776 23.5487 8.18924 22.73Z" fill="#C0C0C1"/>
<path fill-rule="evenodd" clip-rule="evenodd" d="M23.8375 5.00088C31.7982 5.0656 39.6756 8.69152 46.4142 15.4302C47.1953 16.2112 47.1953 17.4776 46.4142 18.2586C45.6332 19.0397 44.3668 19.0396 43.5858 18.2586C37.4384 12.1112 30.5204 9.05535 23.8049 9.00075C17.1079 8.9463 10.3454 11.8734 4.46559 18.2055C3.71398 19.0149 2.44852 19.0617 1.6391 18.3101C0.829682 17.5585 0.782818 16.2931 1.53443 15.4836C8.06386 8.45201 15.8584 4.93601 23.8375 5.00088Z" fill="#C0C0C1"/>
</svg>
