<svg width="45" height="46" viewBox="0 0 45 46" fill="none" xmlns="http://www.w3.org/2000/svg">
<path d="M22.2998 39.6475C31.6755 39.6475 39.276 32.0471 39.276 22.6714C39.276 13.2958 31.6755 5.69531 22.2998 5.69531C12.9242 5.69531 5.32373 13.2958 5.32373 22.6714C5.32373 32.0471 12.9242 39.6475 22.2998 39.6475Z" stroke="url(#paint0_linear_298_1921)" stroke-width="3" stroke-miterlimit="10"/>
<path d="M22.5 32C27.7467 32 32 27.7467 32 22.5C32 17.2533 27.7467 13 22.5 13C17.2533 13 13 17.2533 13 22.5C13 27.7467 17.2533 32 22.5 32Z" fill="url(#paint1_linear_298_1921)"/>
<path fill-rule="evenodd" clip-rule="evenodd" d="M34 22L45 22L45 24L34 24L34 22Z" fill="url(#paint2_linear_298_1921)"/>
<path fill-rule="evenodd" clip-rule="evenodd" d="M0 22L11 22L11 24L-1.74846e-07 24L0 22Z" fill="url(#paint3_linear_298_1921)"/>
<path fill-rule="evenodd" clip-rule="evenodd" d="M23.5 34.5L23.5 45.5L21.5 45.5L21.5 34.5L23.5 34.5Z" fill="url(#paint4_linear_298_1921)"/>
<path fill-rule="evenodd" clip-rule="evenodd" d="M23.5 0.5L23.5 11.5L21.5 11.5L21.5 0.5L23.5 0.5Z" fill="url(#paint5_linear_298_1921)"/>
<path d="M26.7905 23H18.6858" stroke="white" stroke-width="1.4" stroke-miterlimit="10"/>
<path d="M22.738 26.9425V18.9473" stroke="white" stroke-width="1.4" stroke-miterlimit="10"/>
<defs>
<linearGradient id="paint0_linear_298_1921" x1="22.3086" y1="5.69531" x2="22.3086" y2="39.6475" gradientUnits="userSpaceOnUse">
<stop stop-color="#7EB6FF"/>
<stop offset="1" stop-color="#2570EC"/>
</linearGradient>
<linearGradient id="paint1_linear_298_1921" x1="22.5049" y1="13" x2="22.5049" y2="32" gradientUnits="userSpaceOnUse">
<stop stop-color="#7EB6FF"/>
<stop offset="1" stop-color="#2570EC"/>
</linearGradient>
<linearGradient id="paint2_linear_298_1921" x1="39.5028" y1="22" x2="39.5028" y2="24" gradientUnits="userSpaceOnUse">
<stop stop-color="#7EB6FF"/>
<stop offset="1" stop-color="#2570EC"/>
</linearGradient>
<linearGradient id="paint3_linear_298_1921" x1="5.50283" y1="22" x2="5.50283" y2="24" gradientUnits="userSpaceOnUse">
<stop stop-color="#7EB6FF"/>
<stop offset="1" stop-color="#2570EC"/>
</linearGradient>
<linearGradient id="paint4_linear_298_1921" x1="23.5" y1="40.0028" x2="21.5" y2="40.0028" gradientUnits="userSpaceOnUse">
<stop stop-color="#7EB6FF"/>
<stop offset="1" stop-color="#2570EC"/>
</linearGradient>
<linearGradient id="paint5_linear_298_1921" x1="23.5" y1="6.00283" x2="21.5" y2="6.00283" gradientUnits="userSpaceOnUse">
<stop stop-color="#7EB6FF"/>
<stop offset="1" stop-color="#2570EC"/>
</linearGradient>
</defs>
</svg>
