<svg width="60" height="60" viewBox="0 0 60 60" fill="none" xmlns="http://www.w3.org/2000/svg">
<circle cx="30" cy="30" r="30" transform="rotate(-180 30 30)" fill="url(#paint0_linear_298_1270)"/>
<path d="M41.3988 30.7144L29.9131 18.1144C29.7417 17.8572 29.4845 17.8572 29.2273 18.1144L17.6559 30.8001C17.4845 31.0572 17.4845 31.3143 17.6559 31.5715C17.7416 31.6572 17.8274 31.7429 17.9131 31.7429L21.0845 31.7429L21.0845 31.6572L33.7702 31.6572L37.3702 31.6572L38.3131 31.6572L41.0559 31.6572C41.2274 31.6572 41.3131 31.5715 41.3988 31.4858C41.5702 31.2286 41.5702 30.9715 41.3988 30.7144Z" fill="white"/>
<path d="M34.2724 33.4309L24.6724 33.4309L24.6724 46.888L34.2724 46.888L34.2724 33.4309Z" fill="#7BF5FF"/>
<path d="M18.2562 14.0857L40.7991 14.0857L40.7991 11.0857L18.2562 11.0857L18.2562 14.0857Z" fill="white"/>
<defs>
<linearGradient id="paint0_linear_298_1270" x1="30" y1="-1.90735e-06" x2="30" y2="60" gradientUnits="userSpaceOnUse">
<stop stop-color="#0CCAE1"/>
<stop offset="1" stop-color="#82F0ED"/>
</linearGradient>
</defs>
</svg>
