<svg width="60" height="60" viewBox="0 0 60 60" fill="none" xmlns="http://www.w3.org/2000/svg">
<circle cx="30" cy="30" r="30" fill="url(#paint0_linear_298_1265)"/>
<path d="M18.6012 29.2856L30.0869 41.8856C30.2583 42.1428 30.5155 42.1428 30.7727 41.8856L42.3441 29.1999C42.5155 28.9428 42.5155 28.6856 42.3441 28.4285C42.2584 28.3428 42.1726 28.2571 42.0869 28.2571H38.9155V28.3428H26.2298H22.6298H21.6869H18.9441C18.7726 28.3428 18.6869 28.4285 18.6012 28.5142C18.4298 28.7714 18.4298 29.0285 18.6012 29.2856Z" fill="white"/>
<path d="M25.7276 26.5691H35.3276V13.112L25.7276 13.112V26.5691Z" fill="#7BF5FF"/>
<path d="M41.7438 45.9143H19.2009V48.9143H41.7438V45.9143Z" fill="white"/>
<defs>
<linearGradient id="paint0_linear_298_1265" x1="30" y1="0" x2="30" y2="60" gradientUnits="userSpaceOnUse">
<stop stop-color="#0CCAE1"/>
<stop offset="1" stop-color="#82F0ED"/>
</linearGradient>
</defs>
</svg>
