<svg width="50" height="50" viewBox="0 0 50 50" fill="none" xmlns="http://www.w3.org/2000/svg">
<path d="M6.43302 23.4342C6.15126 23.6281 5.98818 23.9526 6.00067 24.2944L6.00917 24.5271C6.02299 24.9053 6.2492 25.2434 6.5936 25.4004C6.82225 25.5047 7.0433 25.6238 7.25527 25.757L21.8799 35.881L21.8961 35.892L22.8473 36.5234C23.1543 36.7272 23.5484 36.7456 23.8731 36.5715C24.1977 36.3973 24.4003 36.0587 24.4003 35.6903V29.9866C27.7746 29.8482 30.716 30.391 33.2321 31.6413C35.9688 33.0011 38.2739 35.233 40.1006 38.4893C40.3187 38.8779 40.7676 39.0754 41.2015 38.9735C41.6353 38.8716 41.9494 38.4948 41.9715 38.0497C42.1165 35.1351 41.707 32.2198 40.7642 29.4522C40.7614 29.4438 40.7584 29.4355 40.7553 29.4272C39.7214 26.637 38.2048 24.3255 36.1435 22.5921C34.0802 20.8571 31.5196 19.7421 28.4627 19.2734C27.4052 19.1075 26.2992 18.9827 25.1839 18.8568C24.8976 18.8245 24.6107 18.7921 24.3239 18.759V13C24.3239 12.6278 24.1172 12.2864 23.7874 12.1139C23.4576 11.9414 23.0593 11.9663 22.7536 12.1786C22.6576 12.2452 22.5667 12.3084 22.4797 12.3689C22.084 12.644 21.7718 12.861 21.4531 13.0733L21.4388 13.083C16.4397 16.539 11.4378 19.9893 6.43302 23.4342Z" stroke="white" stroke-width="2" stroke-linejoin="round"/>
</svg>
