<svg width="43" height="40" viewBox="0 0 43 40" fill="none" xmlns="http://www.w3.org/2000/svg">
<path d="M36.6443 40H5.63758C2.53691 40 0 37.5839 0 34.6309V5.36913C0 2.41611 2.53691 0 5.63758 0H36.6443C39.745 0 42.2819 2.41611 42.2819 5.36913V34.6309C42.2819 37.5839 39.745 40 36.6443 40Z" fill="url(#paint0_linear_56_1593)"/>
<path d="M6.38927 10.2012C16.349 10.2012 26.2148 10.2012 36.1745 10.2012" stroke="#191827" stroke-width="1.5" stroke-miterlimit="10" stroke-linecap="round"/>
<path d="M6.38927 19.7764C16.349 19.7764 26.2148 19.7764 36.1745 19.7764" stroke="#191827" stroke-width="1.5" stroke-miterlimit="10" stroke-linecap="round"/>
<path d="M6.38927 29.4404C16.349 29.4404 26.2148 29.4404 36.1745 29.4404" stroke="#191827" stroke-width="1.5" stroke-miterlimit="10" stroke-linecap="round"/>
<path d="M31.3825 5.6377C31.3825 15.1232 31.3825 24.5191 31.3825 34.0046" stroke="#191827" stroke-width="1.5" stroke-miterlimit="10" stroke-linecap="round"/>
<path d="M21.2349 5.6377C21.2349 15.1232 21.2349 24.5191 21.2349 34.0046" stroke="#191827" stroke-width="1.5" stroke-miterlimit="10" stroke-linecap="round"/>
<path d="M11.1812 5.6377C11.1812 15.1232 11.1812 24.5191 11.1812 34.0046" stroke="#191827" stroke-width="1.5" stroke-miterlimit="10" stroke-linecap="round"/>
<defs>
<linearGradient id="paint0_linear_56_1593" x1="21" y1="40.4762" x2="21" y2="-0.952381" gradientUnits="userSpaceOnUse">
<stop offset="0.34" stop-color="#A5A2A3"/>
<stop offset="0.93" stop-color="#F5F5F5"/>
</linearGradient>
</defs>
</svg>
