<svg width="92" height="84" viewBox="0 0 92 84" fill="none" xmlns="http://www.w3.org/2000/svg">
<g filter="url(#filter0_d_1_102)">
<path d="M86.2808 39.8262L61.1025 30.7671C59.4588 30.1959 57.6657 30.0326 55.8726 30.2775C47.3553 31.6649 5.14238 39.9078 5.14238 39.9078C3.87225 40.1527 3.5734 41.9482 4.6941 42.6827L21.5793 55.2511C24.0448 56.8834 27.0333 57.3731 29.8724 56.7202L37.5679 54.7615L43.6943 55.904L74.8497 47.5795L76.2693 45.0495L81.8727 43.6621L86.2061 42.6827C87.5509 42.3562 87.6256 40.3159 86.2808 39.8262Z" fill="url(#paint0_linear_1_102)"/>
</g>
<path d="M87.0279 39.0101L61.8496 29.951C60.2059 29.3797 58.4128 29.2165 56.6197 29.4613C48.1024 30.8488 5.88951 39.0917 5.88951 39.0917C4.61939 39.3365 4.32053 41.132 5.44123 41.8666L22.3264 54.435C24.7919 56.0673 27.7804 56.557 30.6195 55.904L37.5679 54.1086L43.6943 55.2511L74.5509 46.7634L75.9704 44.2333L82.6199 42.8459L86.9532 41.8666C88.2981 41.5401 88.3728 39.4998 87.0279 39.0101Z" fill="url(#paint1_radial_1_102)"/>
<g filter="url(#filter1_d_1_102)">
<path d="M30.4701 37.0514C30.246 37.0514 30.0218 36.9698 29.8724 36.8065C29.5735 36.4801 29.5735 35.9088 29.8724 35.5007C31.292 34.0317 31.8897 32.6443 31.7402 31.4201C31.6655 30.9304 31.5161 30.6855 30.769 29.6246C30.4701 29.2165 30.1713 28.7268 29.723 28.0739C27.7804 25.1358 26.7345 23.5036 26.8092 21.8713C26.8839 20.7287 27.4816 18.9332 30.0218 17.1377C30.3954 16.8929 30.9184 16.9745 31.1425 17.3826C31.3667 17.7906 31.292 18.3619 30.9184 18.6068C29.3494 19.6677 28.5276 20.8103 28.4529 21.8713C28.3781 22.8507 29.4988 24.4829 31.0678 26.9313C31.4414 27.5842 31.8149 27.9923 32.0391 28.4004C32.8609 29.543 33.2345 30.1142 33.3092 31.0936C33.5333 32.8891 32.7115 34.7662 30.9184 36.6433C30.8437 36.9698 30.6942 37.0514 30.4701 37.0514Z" fill="url(#paint2_linear_1_102)"/>
<path d="M42.7978 37.0514C42.5737 37.0514 42.3495 36.9698 42.2001 36.8065C41.9012 36.4801 41.9012 35.9088 42.2001 35.5007C43.6196 34.0317 44.2174 32.6442 44.0679 31.42C43.9932 30.9304 43.8438 30.6855 43.0967 29.6246C42.7978 29.2165 42.499 28.7268 42.0507 28.0739C40.1081 25.1358 39.0621 23.5036 39.1369 21.8713C39.2116 20.7287 39.8093 18.9332 42.3495 17.1377C42.7231 16.8929 43.2461 16.9745 43.4702 17.3826C43.6944 17.7906 43.6196 18.3619 43.2461 18.6068C41.6771 19.6677 40.8553 20.8103 40.7806 21.8713C40.7058 22.8507 41.8265 24.4829 43.3955 26.9313C43.7691 27.5842 44.1426 27.9923 44.3668 28.4004C45.1886 29.5429 45.5622 30.1142 45.6369 31.0936C45.861 32.8891 45.0392 34.7662 43.2461 36.6433C43.1714 36.9698 43.0219 37.0514 42.7978 37.0514Z" fill="url(#paint3_linear_1_102)"/>
<path d="M54.9761 37.0514C54.7519 37.0514 54.5278 36.9698 54.3784 36.8065C54.0795 36.4801 54.0795 35.9088 54.3784 35.5007C55.7979 34.0317 56.3956 32.6442 56.2462 31.42C56.1715 30.9304 56.022 30.6855 55.2749 29.6246C54.9761 29.2165 54.6772 28.7268 54.2289 28.0739C52.2864 25.1358 51.2404 23.5036 51.3151 21.8713C51.3898 20.7287 51.9875 18.9332 54.5278 17.1377C54.9013 16.8929 55.4243 16.9745 55.6485 17.3826C55.8726 17.7906 55.7979 18.3619 55.4243 18.6068C53.8554 19.6677 53.0335 20.8103 52.9588 21.8713C52.8841 22.8507 54.0048 24.4829 55.5738 26.9313C55.9473 27.5842 56.3209 27.9923 56.545 28.4004C57.3669 29.5429 57.7404 30.1142 57.8152 31.0936C58.0393 32.8891 57.2175 34.7662 55.4243 36.6433C55.4243 36.9698 55.2002 37.0514 54.9761 37.0514Z" fill="url(#paint4_linear_1_102)"/>
</g>
<defs>
<filter id="filter0_d_1_102" x="0" y="30.1673" width="91.2529" height="34.8327" filterUnits="userSpaceOnUse" color-interpolation-filters="sRGB">
<feFlood flood-opacity="0" result="BackgroundImageFix"/>
<feColorMatrix in="SourceAlpha" type="matrix" values="0 0 0 0 0 0 0 0 0 0 0 0 0 0 0 0 0 0 127 0" result="hardAlpha"/>
<feOffset dy="4"/>
<feGaussianBlur stdDeviation="2"/>
<feComposite in2="hardAlpha" operator="out"/>
<feColorMatrix type="matrix" values="0 0 0 0 0 0 0 0 0 0 0 0 0 0 0 0 0 0 0.25 0"/>
<feBlend mode="normal" in2="BackgroundImageFix" result="effect1_dropShadow_1_102"/>
<feBlend mode="normal" in="SourceGraphic" in2="effect1_dropShadow_1_102" result="shape"/>
</filter>
<filter id="filter1_d_1_102" x="22.8054" y="17" width="39.0458" height="30.0514" filterUnits="userSpaceOnUse" color-interpolation-filters="sRGB">
<feFlood flood-opacity="0" result="BackgroundImageFix"/>
<feColorMatrix in="SourceAlpha" type="matrix" values="0 0 0 0 0 0 0 0 0 0 0 0 0 0 0 0 0 0 127 0" result="hardAlpha"/>
<feOffset dy="6"/>
<feGaussianBlur stdDeviation="2"/>
<feComposite in2="hardAlpha" operator="out"/>
<feColorMatrix type="matrix" values="0 0 0 0 0 0 0 0 0 0 0 0 0 0 0 0 0 0 0.6 0"/>
<feBlend mode="normal" in2="BackgroundImageFix" result="effect1_dropShadow_1_102"/>
<feBlend mode="normal" in="SourceGraphic" in2="effect1_dropShadow_1_102" result="shape"/>
</filter>
<linearGradient id="paint0_linear_1_102" x1="0.136593" y1="42.8459" x2="84.8701" y2="43.2034" gradientUnits="userSpaceOnUse">
<stop offset="0.3408" stop-color="white"/>
<stop offset="0.933" stop-color="#F5F5F5"/>
</linearGradient>
<radialGradient id="paint1_radial_1_102" cx="0" cy="0" r="1" gradientUnits="userSpaceOnUse" gradientTransform="translate(45.7116 53.8637) rotate(-89.2507) scale(28.5671 88.637)">
<stop stop-color="#FF0000" stop-opacity="0.5"/>
<stop offset="1" stop-color="#FF0000" stop-opacity="0"/>
</radialGradient>
<linearGradient id="paint2_linear_1_102" x1="33.0104" y1="3.67152" x2="30.7834" y2="35.4756" gradientUnits="userSpaceOnUse">
<stop stop-color="#FF3E3E"/>
<stop offset="0.933" stop-color="#FFDEDE"/>
</linearGradient>
<linearGradient id="paint3_linear_1_102" x1="43.4703" y1="8.16025" x2="43.916" y2="37.5399" gradientUnits="userSpaceOnUse">
<stop offset="0.0282578" stop-color="#FF3E3E"/>
<stop offset="0.933" stop-color="#FFDEDE"/>
</linearGradient>
<linearGradient id="paint4_linear_1_102" x1="59.9072" y1="13.057" x2="54.6016" y2="36.1276" gradientUnits="userSpaceOnUse">
<stop offset="0.0282578" stop-color="#FF3E3E"/>
<stop offset="0.933" stop-color="#FFDEDE"/>
</linearGradient>
</defs>
</svg>
