<svg width="72" height="64" viewBox="0 0 72 64" fill="none" xmlns="http://www.w3.org/2000/svg">
<g filter="url(#filter0_d_298_685)">
<path d="M66.6901 30.3592L47.5067 17.6589C46.2543 16.858 44.8881 16.6291 43.522 16.9724C37.0326 18.9175 4.87038 30.4736 4.87038 30.4736C3.90267 30.8168 3.67497 33.334 4.52884 34.3638L17.3937 51.984C19.2722 54.2723 21.5492 54.9588 23.7123 54.0435L29.5755 51.2975L34.2433 52.8993L57.9807 41.2288L59.0623 37.6818L63.3316 35.7368L66.6332 34.3638C67.6579 33.9061 67.7148 31.0457 66.6901 30.3592Z" fill="white"/>
</g>
<path d="M67.2595 29.215L48.076 16.5147C46.8237 15.7138 45.4575 15.485 44.0913 15.8282C37.6019 17.7733 5.43972 29.3294 5.43972 29.3294C4.47201 29.6727 4.24431 32.1898 5.09817 33.2196L17.9631 50.8398C19.8416 53.1281 22.1185 53.8146 24.2817 52.8993L29.5756 50.3821L34.2434 51.984L57.7531 40.0846L58.8347 36.5377L63.901 34.5926L67.2026 33.2196C68.2272 32.7619 68.2841 29.9015 67.2595 29.215Z" fill="url(#paint0_radial_298_685)"/>
<g filter="url(#filter1_d_298_685)">
<path d="M16.1891 26.469C15.9559 26.469 15.7226 26.3876 15.5671 26.2248C15.2561 25.8992 15.2561 25.3293 15.5671 24.9223C17.0444 23.457 17.6664 22.0732 17.5109 20.8521C17.4331 20.3637 17.2776 20.1195 16.5001 19.0612C16.1891 18.6542 15.8781 18.1658 15.4116 17.5145C13.3901 14.584 12.3016 12.9559 12.3794 11.3278C12.4571 10.1882 13.0791 8.39726 15.7226 6.60637C16.1114 6.36215 16.6556 6.44356 16.8889 6.85058C17.1221 7.2576 17.0444 7.82743 16.6556 8.07164C15.0229 9.12989 14.1676 10.2696 14.0899 11.3278C14.0121 12.3047 15.1784 13.9327 16.8111 16.3749C17.1999 17.0261 17.5886 17.4331 17.8219 17.8401C18.6771 18.9798 19.0659 19.5496 19.1436 20.5265C19.3769 22.3174 18.5216 24.1897 16.6556 26.062C16.5779 26.3876 16.4224 26.469 16.1891 26.469Z" fill="url(#paint1_linear_298_685)"/>
<path d="M29.018 26.469C28.7847 26.469 28.5515 26.3876 28.396 26.2248C28.085 25.8992 28.085 25.3293 28.396 24.9223C29.8732 23.457 30.4952 22.0732 30.3397 20.8521C30.262 20.3637 30.1065 20.1195 29.329 19.0612C29.018 18.6542 28.707 18.1658 28.2405 17.5145C26.219 14.584 25.1305 12.9559 25.2082 11.3278C25.286 10.1882 25.908 8.39726 28.5515 6.60637C28.9402 6.36215 29.4845 6.44356 29.7177 6.85058C29.951 7.2576 29.8732 7.82743 29.4845 8.07164C27.8517 9.12989 26.9965 10.2696 26.9187 11.3278C26.841 12.3047 28.0072 13.9327 29.64 16.3749C30.0287 17.0261 30.4175 17.4331 30.6507 17.8401C31.506 18.9798 31.8947 19.5496 31.9725 20.5265C32.2057 22.3174 31.3505 24.1897 29.4845 26.062C29.4067 26.3876 29.2512 26.469 29.018 26.469Z" fill="url(#paint2_linear_298_685)"/>
<path d="M41.6911 26.469C41.4578 26.469 41.2246 26.3876 41.0691 26.2248C40.7581 25.8992 40.7581 25.3293 41.0691 24.9223C42.5463 23.457 43.1683 22.0732 43.0128 20.8521C42.9351 20.3637 42.7796 20.1195 42.0021 19.0612C41.6911 18.6542 41.3801 18.1658 40.9136 17.5145C38.8921 14.584 37.8036 12.9559 37.8813 11.3278C37.9591 10.1882 38.5811 8.39726 41.2246 6.60637C41.6133 6.36215 42.1576 6.44356 42.3908 6.85058C42.6241 7.2576 42.5463 7.82743 42.1576 8.07164C40.5248 9.12989 39.6696 10.2696 39.5918 11.3278C39.5141 12.3047 40.6803 13.9327 42.3131 16.3749C42.7018 17.0261 43.0906 17.4331 43.3238 17.8401C44.1791 18.9798 44.5678 19.5496 44.6456 20.5265C44.8788 22.3174 44.0236 24.1897 42.1576 26.062C42.1576 26.3876 41.9243 26.469 41.6911 26.469Z" fill="url(#paint3_linear_298_685)"/>
</g>
<defs>
<filter id="filter0_d_298_685" x="0" y="16.8179" width="71.4307" height="45.6178" filterUnits="userSpaceOnUse" color-interpolation-filters="sRGB">
<feFlood flood-opacity="0" result="BackgroundImageFix"/>
<feColorMatrix in="SourceAlpha" type="matrix" values="0 0 0 0 0 0 0 0 0 0 0 0 0 0 0 0 0 0 127 0" result="hardAlpha"/>
<feOffset dy="4"/>
<feGaussianBlur stdDeviation="2"/>
<feComposite in2="hardAlpha" operator="out"/>
<feColorMatrix type="matrix" values="0 0 0 0 0.729412 0 0 0 0 0 0 0 0 0 0 0 0 0 0.2 0"/>
<feBlend mode="normal" in2="BackgroundImageFix" result="effect1_dropShadow_298_685"/>
<feBlend mode="normal" in="SourceGraphic" in2="effect1_dropShadow_298_685" result="shape"/>
</filter>
<filter id="filter1_d_298_685" x="9.37549" y="5.46899" width="38.3076" height="26" filterUnits="userSpaceOnUse" color-interpolation-filters="sRGB">
<feFlood flood-opacity="0" result="BackgroundImageFix"/>
<feColorMatrix in="SourceAlpha" type="matrix" values="0 0 0 0 0 0 0 0 0 0 0 0 0 0 0 0 0 0 127 0" result="hardAlpha"/>
<feOffset dy="2"/>
<feGaussianBlur stdDeviation="1.5"/>
<feComposite in2="hardAlpha" operator="out"/>
<feColorMatrix type="matrix" values="0 0 0 0 0 0 0 0 0 0 0 0 0 0 0 0 0 0 0.6 0"/>
<feBlend mode="normal" in2="BackgroundImageFix" result="effect1_dropShadow_298_685"/>
<feBlend mode="normal" in="SourceGraphic" in2="effect1_dropShadow_298_685" result="shape"/>
</filter>
<radialGradient id="paint0_radial_298_685" cx="0" cy="0" r="1" gradientUnits="userSpaceOnUse" gradientTransform="translate(35.7804 50.0389) rotate(-89.5928) scale(40.0469 67.537)">
<stop stop-color="#FF0000" stop-opacity="0.5"/>
<stop offset="1" stop-color="#FF0000" stop-opacity="0.1"/>
</radialGradient>
<linearGradient id="paint1_linear_298_685" x1="18.8327" y1="-6.82534" x2="16.7027" y2="24.9098" gradientUnits="userSpaceOnUse">
<stop stop-color="#FF3E3E"/>
<stop offset="0.933" stop-color="#FFDEDE"/>
</linearGradient>
<linearGradient id="paint2_linear_298_685" x1="29.7178" y1="-2.34811" x2="30.1439" y2="26.9569" gradientUnits="userSpaceOnUse">
<stop offset="0.0282578" stop-color="#FF3E3E"/>
<stop offset="0.933" stop-color="#FFDEDE"/>
</linearGradient>
<linearGradient id="paint3_linear_298_685" x1="46.8226" y1="2.53615" x2="41.7296" y2="25.642" gradientUnits="userSpaceOnUse">
<stop offset="0.0282578" stop-color="#FF3E3E"/>
<stop offset="0.933" stop-color="#FFDEDE"/>
</linearGradient>
</defs>
</svg>
