<svg width="37" height="45" viewBox="0 0 37 45" fill="none" xmlns="http://www.w3.org/2000/svg">
<path fill-rule="evenodd" clip-rule="evenodd" d="M36.7688 18.1031C36.7688 28.0667 28.6917 36.1438 18.7281 36.1438C8.76457 36.1438 0.6875 28.0667 0.6875 18.1031C0.6875 8.13957 8.76457 0.0625 18.7281 0.0625C28.6917 0.0625 36.7688 8.13957 36.7688 18.1031ZM18.6374 38.3599C22.8356 38.3599 26.7424 37.1435 30.0073 35.0525L33.182 41.1372C33.8767 42.4688 32.9107 44.0624 31.4088 44.0624H6.38448C4.88261 44.0624 3.9166 42.4688 4.61131 41.1372L7.6585 35.2968C10.8424 37.2379 14.6055 38.3599 18.6374 38.3599Z" fill="url(#paint0_linear_47_1404)"/>
<path d="M18.7282 28.0629C24.229 28.0629 28.6882 23.6037 28.6882 18.103C28.6882 12.6023 24.229 8.14307 18.7282 8.14307C13.2275 8.14307 8.76831 12.6023 8.76831 18.103C8.76831 23.6037 13.2275 28.0629 18.7282 28.0629Z" fill="#191827"/>
<path d="M18.6374 23.8445C22.0731 23.8445 24.8583 21.2914 24.8583 18.142C24.8583 14.9926 22.0731 12.4395 18.6374 12.4395C15.2017 12.4395 12.4165 14.9926 12.4165 18.142C12.4165 21.2914 15.2017 23.8445 18.6374 23.8445Z" fill="url(#paint1_linear_47_1404)"/>
<path d="M19.9135 6.85676C21.1909 6.85676 22.2264 5.82124 22.2264 4.54386C22.2264 3.26648 21.1909 2.23096 19.9135 2.23096C18.6361 2.23096 17.6006 3.26648 17.6006 4.54386C17.6006 5.82124 18.6361 6.85676 19.9135 6.85676Z" fill="#191827"/>
<defs>
<linearGradient id="paint0_linear_47_1404" x1="18.6374" y1="36.2864" x2="18.6374" y2="-0.00230065" gradientUnits="userSpaceOnUse">
<stop offset="0.34" stop-color="#A5A2A3"/>
<stop offset="0.93" stop-color="#F5F5F5"/>
</linearGradient>
<linearGradient id="paint1_linear_47_1404" x1="18.6374" y1="24.3608" x2="18.6374" y2="12.4395" gradientUnits="userSpaceOnUse">
<stop offset="0.34" stop-color="#A5A2A3"/>
<stop offset="0.93" stop-color="#F5F5F5"/>
</linearGradient>
</defs>
</svg>
