<svg width="48" height="38" viewBox="0 0 48 38" fill="none" xmlns="http://www.w3.org/2000/svg">
<path d="M4.7619 6C4.7619 2.68629 7.44819 0 10.7619 0H41.6189C44.9326 0 47.6189 2.68629 47.6189 6V27.478C47.6189 30.7917 44.9326 33.478 41.6189 33.478H10.7619C7.44819 33.478 4.7619 30.7917 4.7619 27.478V6Z" fill="url(#paint0_linear_71_424)"/>
<path d="M7.61902 9.95312H44.7618M26.5584 20.3584H40.9965M11.271 16.2868L19.764 20.3584L11.271 26.2397" stroke="#191827" stroke-width="3" stroke-linecap="round"/>
<path fill-rule="evenodd" clip-rule="evenodd" d="M3.31234 5.15576C2.91737 5.95566 2.69543 6.85629 2.69543 7.80875V29.2867C2.69543 32.6004 5.38172 35.2867 8.69543 35.2867H39.822C40.7882 35.2867 41.7011 35.0583 42.5097 34.6526C41.5305 36.6356 39.4878 37.9996 37.1266 37.9996H6C2.68629 37.9996 0 35.3133 0 31.9996V10.5216C0 8.17414 1.3481 6.14154 3.31234 5.15576Z" fill="#646464"/>
<defs>
<linearGradient id="paint0_linear_71_424" x1="26.1904" y1="34.3828" x2="26.1904" y2="-1.32221e-06" gradientUnits="userSpaceOnUse">
<stop offset="0.34" stop-color="#A5A2A3"/>
<stop offset="0.93" stop-color="#F5F5F5"/>
</linearGradient>
</defs>
</svg>
