<svg width="46" height="46" viewBox="0 0 46 46" fill="none" xmlns="http://www.w3.org/2000/svg">
<path fill-rule="evenodd" clip-rule="evenodd" d="M19.4472 10.1441V12.5847H19.115H14.93C14.3321 12.5847 14 12.9661 14 13.6525V14.7203C14 15.483 14.3986 15.8643 15.0629 15.8643H31.7365C32.4008 15.8643 32.6665 15.4067 32.733 14.7203V13.7287C32.733 12.8898 32.4672 12.5847 31.7365 12.5847H27.5515H27.2194V12.2033V9.91523C27.2194 9.30507 26.9536 9 26.4222 9H20.3107C19.9786 9 19.6465 9.15253 19.5136 9.53388C19.4472 9.68642 19.4472 9.91524 19.4472 10.1441ZM25.6915 12.5084H21.0415V10.7542H25.6915V12.5084ZM31.6701 17.6952H15.1293V18.2291C15.3286 21.7375 15.4614 25.3221 15.5943 28.9067L15.5943 28.907C15.6607 30.5087 15.7271 32.1866 15.7936 33.8645C15.7936 34.7035 16.0593 35.39 16.7236 35.7713C16.9893 35.9238 17.3879 36.0001 17.72 36.0001H22.7022H29.0794C29.8101 36.0001 30.4744 35.7713 30.8065 34.9323C30.9394 34.6272 31.0058 34.2459 31.0058 33.8645L31.2051 29.7459C31.4044 26.085 31.5372 22.5003 31.6701 18.8393V17.6952ZM18.65 31.8815V26.5426V21.1274C18.65 20.7461 18.7164 20.3647 18.9822 20.1359C19.4472 19.7545 20.1115 20.0596 20.1779 20.6698C20.2443 20.8223 20.2443 21.0511 20.2443 21.2036V21.2037V31.9578C20.2443 32.1866 20.1779 32.4917 20.1114 32.7205C19.9786 33.0256 19.6464 33.2544 19.3807 33.1781C19.0486 33.1018 18.7829 32.873 18.7164 32.4917C18.65 32.2629 18.65 32.1104 18.65 31.8816V31.8815ZM22.5693 31.9578V26.5426V21.2037C22.5693 21.1274 22.5859 21.0321 22.6025 20.9367C22.6191 20.8414 22.6358 20.746 22.6358 20.6698C22.7022 20.2884 23.0343 19.9833 23.3665 19.9833C23.6986 19.9833 24.0308 20.2884 24.0972 20.6698C24.1636 20.8223 24.1636 21.0511 24.1636 21.2037V31.9578C24.1636 32.0341 24.147 32.1294 24.1304 32.2247C24.1138 32.3201 24.0972 32.4154 24.0972 32.4917C24.0308 32.873 23.6986 33.1781 23.3665 33.1781C23.0343 33.1781 22.7022 32.873 22.6358 32.4917C22.5693 32.3391 22.5693 32.1103 22.5693 31.9578ZM28.0165 21.2037V26.5426V32.034C28.0165 32.1103 27.9999 32.2057 27.9833 32.301C27.9667 32.3963 27.9501 32.4917 27.9501 32.5679C27.8836 32.9493 27.5515 33.2544 27.2193 33.2544C26.8872 33.2544 26.5551 32.9493 26.4886 32.5679C26.4222 32.4154 26.4222 32.1866 26.4222 32.034V21.2037C26.4222 21.0511 26.4222 20.8223 26.4886 20.6698C26.5551 20.2122 26.8872 19.9833 27.2193 19.9833C27.5515 19.9833 27.8836 20.2884 27.9501 20.6698C28.0165 20.8223 28.0165 21.0511 28.0165 21.2036V21.2037Z" fill="url(#paint0_linear_2005_794)"/>
<path d="M26.2925 19.8269C26.8591 19.0345 27.8931 18.9338 28.602 19.602V19.602C29.3109 20.2702 29.4262 21.4543 28.8596 22.2468L21.2166 32.9352C20.65 33.7277 19.616 33.8284 18.9071 33.1602V33.1602C18.1982 32.4919 18.0829 31.3079 18.6495 30.5154L26.2925 19.8269Z" fill="#C14242"/>
<path d="M29.063 30.1015C29.6841 30.8633 29.6449 32.0644 28.9753 32.784V32.784C28.3057 33.5037 27.2593 33.4695 26.6382 32.7076L18.4462 22.66C17.825 21.8982 17.8643 20.6972 18.5338 19.9775V19.9775C19.2034 19.2578 20.2498 19.292 20.871 20.0539L29.063 30.1015Z" fill="#C14242"/>
<defs>
<linearGradient id="paint0_linear_2005_794" x1="24.0972" y1="36.3813" x2="24.0972" y2="8.92403" gradientUnits="userSpaceOnUse">
<stop offset="0.34" stop-color="#A5A2A3"/>
<stop offset="0.93" stop-color="#F5F5F5"/>
</linearGradient>
</defs>
</svg>
