<svg width="54" height="66" viewBox="0 0 54 66" fill="none" xmlns="http://www.w3.org/2000/svg">
<path d="M30.3839 51.7289C30.7174 51.7923 31.0608 51.782 31.3899 51.699C31.7191 51.6159 32.0262 51.462 32.2897 51.2479L32.3804 50.6762C32.3804 50.6762 32.2262 50.54 31.7542 50.2133C31.0143 49.9022 30.236 49.6916 29.4401 49.5871C29.4401 49.4692 29.4401 49.3603 29.4401 49.2423C29.4401 49.1243 29.4401 48.843 29.3856 48.6433L30.4928 48.3348C30.825 48.2751 31.1399 48.1425 31.4145 47.9463C31.6892 47.7501 31.9168 47.4953 32.081 47.2003L31.9448 46.6377C31.9448 46.6377 31.7452 46.5742 31.1734 46.438C30.4161 46.418 29.6595 46.4973 28.9228 46.674C28.8031 46.3468 28.6605 46.0284 28.4962 45.7211C28.6505 45.6122 28.9046 45.4398 29.4038 45.1403C29.6958 44.9872 29.948 44.768 30.1403 44.5002C30.3325 44.2323 30.4595 43.9232 30.5109 43.5975L30.1842 43.0893C30.1842 43.0893 29.9846 43.0893 29.4038 43.0893C28.6731 43.2881 27.9758 43.5939 27.3346 43.9968C27.1055 43.742 26.86 43.5025 26.5995 43.2799C26.6993 43.1165 26.8809 42.8715 27.1803 42.4177C27.3878 42.1585 27.5333 41.8553 27.6056 41.5313C27.678 41.2073 27.6753 40.871 27.5978 40.5482L27.1168 40.1943C26.8751 40.2868 26.6388 40.3928 26.4089 40.5119C25.8126 40.9578 25.2891 41.4936 24.8571 42.1001C24.5957 41.9624 24.3259 41.8412 24.0494 41.7371C24.0494 41.5556 24.1764 41.2561 24.3307 40.6843C24.4434 40.3757 24.4848 40.0456 24.4518 39.7187C24.4188 39.3918 24.3122 39.0766 24.1401 38.7967L23.5865 38.6333C23.3917 38.7976 23.2069 38.9734 23.033 39.1597C22.6197 39.8122 22.2962 40.5173 22.071 41.2561C21.7624 41.2561 21.4448 41.2016 21.1634 41.1925C21.1634 41.011 21.0999 40.7025 21.0273 40.0944C21.0128 39.7642 20.9235 39.4416 20.7664 39.1508C20.6092 38.86 20.3881 38.6086 20.1198 38.4155L19.5481 38.47C19.431 38.6964 19.3279 38.9297 19.2395 39.1688C19.0943 39.9067 19.0576 40.6618 19.1306 41.4104C18.779 41.4928 18.4333 41.5989 18.096 41.728C17.7542 41.0652 17.3204 40.4541 16.8073 39.9129C16.5997 39.7631 16.3846 39.6238 16.163 39.4955L15.6548 39.7587C15.5381 40.0653 15.4922 40.3943 15.5205 40.7212C15.5487 41.048 15.6505 41.3643 15.8181 41.6463C16.0813 42.209 16.2265 42.4903 16.2991 42.6537C16.0359 42.8352 15.7909 43.0257 15.555 43.2254C14.9585 42.7204 14.2959 42.2991 13.5856 41.973C13.3375 41.9105 13.086 41.862 12.8324 41.8278L12.4603 42.2634C12.4728 42.5954 12.5611 42.92 12.7184 43.2126C12.8757 43.5052 13.0979 43.7579 13.3678 43.9514C13.867 44.4142 14.1029 44.6139 14.2209 44.741C14.056 44.9679 13.9045 45.2042 13.7671 45.4488C13.0466 45.1663 12.2881 44.9919 11.5165 44.9315C10.9447 45.0041 10.7542 45.0495 10.7542 45.0495L10.5364 45.6122C10.6482 45.9252 10.8297 46.2087 11.0671 46.4413C11.3045 46.674 11.5916 46.8497 11.9067 46.9553C12.4512 47.1913 12.7598 47.3456 12.9413 47.4363C12.8599 47.7348 12.7962 48.0378 12.7507 48.3438C11.9584 48.3671 11.1733 48.5015 10.4184 48.7431C9.91016 49.0336 9.74681 49.1515 9.74681 49.1515V49.7505C9.97182 50.0031 10.2539 50.1983 10.5696 50.3199C10.8853 50.4414 11.2255 50.4858 11.5619 50.4493C12.2697 50.4493 12.5874 50.4493 12.7598 50.4493C12.7883 50.7762 12.8399 51.1007 12.9141 51.4203L12.8415 51.4657C12.0967 51.7166 11.391 52.0709 10.7451 52.5184C10.3367 52.9359 10.2096 53.0902 10.2096 53.0902L10.4002 53.6438C10.6986 53.802 11.0283 53.8922 11.3656 53.9079C11.703 53.9236 12.0396 53.8644 12.3514 53.7345C13.1682 53.4895 13.4404 53.3806 13.5947 53.3624C13.7206 53.6195 13.8631 53.868 14.0212 54.1066C13.3733 54.6621 12.7971 55.2962 12.306 55.9943C12.203 56.2346 12.1121 56.4799 12.0338 56.7293L12.4149 57.1559C12.7447 57.1887 13.0777 57.1497 13.391 57.0416C13.7044 56.9335 13.9906 56.7589 14.23 56.5297C14.5658 56.2346 14.9205 55.9618 15.2918 55.7129C15.4824 55.8944 15.682 56.0578 15.8817 56.2211C15.4565 56.9319 15.1327 57.6986 14.9197 58.499C14.9065 58.759 14.9065 59.0195 14.9197 59.2795L15.4461 59.5699C15.7818 59.5069 16.0991 59.3689 16.3741 59.1662C16.6491 58.9635 16.8747 58.7013 17.0342 58.3992C17.2339 58.0997 17.37 57.891 17.4698 57.7276C17.5391 57.6086 17.6148 57.4935 17.6967 57.3828C17.978 57.5007 18.2685 57.6096 18.6042 57.7004C18.6042 57.9545 18.5498 58.3992 18.5316 58.8711C18.5316 58.9982 18.5316 59.1252 18.5316 59.2523C18.5316 59.3793 18.5316 59.4973 18.5316 59.6153C18.5321 59.8064 18.5627 59.9963 18.6224 60.1779C18.6195 60.2172 18.6195 60.2566 18.6224 60.2959C18.7948 60.7406 18.8765 60.904 18.8765 60.904L19.294 60.9675H19.4845C19.7695 60.7875 20.0088 60.5438 20.1836 60.2556C20.3584 59.9674 20.4639 59.6426 20.4919 59.3067C20.6008 58.6624 20.6462 58.3447 20.6825 58.1632C20.676 58.1272 20.676 58.0903 20.6825 58.0543C20.9093 58.0543 21.1453 58.0543 21.3813 58.0543C21.7436 58.0349 22.1043 57.9925 22.4612 57.9273C22.6597 58.6467 22.9656 59.3321 23.3687 59.9601C23.5528 60.1516 23.7467 60.3333 23.9496 60.5046L24.5576 60.3231C24.7528 60.0457 24.8814 59.7269 24.9334 59.3917C24.9853 59.0564 24.9592 58.7136 24.8571 58.3901C24.7119 57.7458 24.6302 57.4826 24.5939 57.2648C25.0058 57.072 25.4005 56.8443 25.7737 56.5842C25.9007 56.7021 26.1004 56.9381 26.5814 57.4917C26.7871 57.7578 27.0512 57.9731 27.3533 58.121C27.6554 58.2689 27.9874 58.3455 28.3238 58.3447L28.7957 57.9454C28.761 57.6859 28.7125 57.4284 28.6505 57.174C28.3274 56.449 27.9027 55.7737 27.3891 55.1684C27.6066 54.9202 27.8097 54.6596 27.9971 54.3879C28.1605 54.4515 28.4509 54.5967 29.0498 54.8598C29.3482 55.0255 29.6796 55.1228 30.0202 55.1448C30.3608 55.1668 30.702 55.1128 31.0192 54.9869L31.3096 54.4515C31.1794 54.229 31.037 54.0139 30.883 53.8071C30.3144 53.2724 29.669 52.8258 28.9682 52.4821C29.068 52.2099 29.1406 51.9376 29.2132 51.6563C29.3675 51.5928 29.676 51.6381 30.3839 51.7289ZM21.1362 52.9359C20.4798 52.9641 19.8297 52.7969 19.2683 52.4555C18.7068 52.1141 18.2593 51.6139 17.9822 51.0181C17.7051 50.4223 17.6109 49.7577 17.7116 49.1084C17.8123 48.4591 18.1033 47.8542 18.5479 47.3704C18.9924 46.8865 19.5704 46.5453 20.2089 46.39C20.8473 46.2347 21.5175 46.2722 22.1346 46.4979C22.7517 46.7235 23.288 47.1271 23.6757 47.6577C24.0634 48.1882 24.285 48.8217 24.3126 49.4782C24.3396 50.3556 24.0192 51.2082 23.421 51.8506C22.8228 52.4929 21.9951 52.8732 21.1181 52.9087L21.1362 52.9359Z" fill="url(#paint0_linear_36_613)"/>
<path d="M51.9285 51.7289C52.262 51.7923 52.6054 51.782 52.9345 51.699C53.2637 51.6159 53.5708 51.462 53.8343 51.2479L53.925 50.6762C53.925 50.6762 53.7708 50.54 53.2988 50.2133C52.5589 49.9022 51.7806 49.6916 50.9847 49.5871C50.9847 49.4692 50.9847 49.3603 50.9847 49.2423C50.9847 49.1243 50.9847 48.843 50.9302 48.6433L52.0374 48.3348C52.3696 48.2751 52.6845 48.1425 52.9591 47.9463C53.2338 47.7501 53.4614 47.4953 53.6256 47.2003L53.4894 46.6377C53.4894 46.6377 53.2898 46.5742 52.718 46.438C51.9607 46.418 51.2041 46.4973 50.4674 46.674C50.3477 46.3468 50.2051 46.0284 50.0408 45.7211C50.1951 45.6122 50.4492 45.4398 50.9484 45.1403C51.2404 44.9872 51.4926 44.768 51.6849 44.5002C51.8771 44.2323 52.0041 43.9232 52.0555 43.5975L51.7288 43.0893C51.7288 43.0893 51.5292 43.0893 50.9484 43.0893C50.2177 43.2881 49.5204 43.5939 48.8792 43.9968C48.6501 43.742 48.4046 43.5025 48.1441 43.2799C48.2439 43.1165 48.4255 42.8715 48.7249 42.4177C48.9324 42.1585 49.0779 41.8553 49.1502 41.5313C49.2226 41.2073 49.2199 40.871 49.1424 40.5482L48.6614 40.1943C48.4197 40.2868 48.1834 40.3928 47.9535 40.5119C47.3572 40.9578 46.8337 41.4936 46.4017 42.1001C46.1403 41.9624 45.8705 41.8412 45.594 41.7371C45.594 41.5556 45.721 41.2561 45.8753 40.6843C45.988 40.3757 46.0294 40.0456 45.9964 39.7187C45.9634 39.3918 45.8568 39.0766 45.6847 38.7967L45.1311 38.6333C44.9363 38.7976 44.7515 38.9734 44.5776 39.1597C44.1643 39.8122 43.8408 40.5173 43.6156 41.2561C43.307 41.2561 42.9894 41.2016 42.7081 41.1925C42.7081 41.011 42.6445 40.7025 42.5719 40.0944C42.5574 39.7642 42.4681 39.4416 42.311 39.1508C42.1538 38.86 41.9327 38.6086 41.6644 38.4155L41.0927 38.47C40.9756 38.6964 40.8725 38.9297 40.7841 39.1688C40.6389 39.9067 40.6022 40.6618 40.6752 41.4104C40.3236 41.4928 39.9779 41.5989 39.6406 41.728C39.2988 41.0652 38.865 40.4541 38.3519 39.9129C38.1443 39.7631 37.9292 39.6238 37.7076 39.4955L37.1994 39.7587C37.0827 40.0653 37.0368 40.3943 37.0651 40.7212C37.0933 41.048 37.1951 41.3643 37.3627 41.6463C37.6259 42.209 37.7711 42.4903 37.8437 42.6537C37.5806 42.8352 37.3355 43.0257 37.0996 43.2254C36.5031 42.7204 35.8405 42.2991 35.1302 41.973C34.8821 41.9105 34.6306 41.862 34.377 41.8278L34.0049 42.2634C34.0174 42.5954 34.1057 42.92 34.263 43.2126C34.4203 43.5052 34.6425 43.7579 34.9124 43.9514C35.4116 44.4142 35.6475 44.6139 35.7655 44.741C35.6006 44.9679 35.4491 45.2042 35.3117 45.4488C34.5912 45.1663 33.8327 44.9919 33.0611 44.9315C32.4893 45.0041 32.2988 45.0495 32.2988 45.0495L32.081 45.6122C32.1928 45.9252 32.3743 46.2087 32.6117 46.4413C32.8491 46.674 33.1362 46.8497 33.4513 46.9553C33.9958 47.1913 34.3044 47.3456 34.4859 47.4363C34.4045 47.7348 34.3408 48.0378 34.2953 48.3438C33.503 48.3671 32.7179 48.5015 31.963 48.7431C31.4548 49.0336 31.2914 49.1515 31.2914 49.1515V49.7505C31.5164 50.0031 31.7985 50.1983 32.1142 50.3199C32.4299 50.4414 32.7701 50.4858 33.1065 50.4493C33.8143 50.4493 34.132 50.4493 34.3044 50.4493C34.3329 50.7762 34.3845 51.1007 34.4587 51.4203L34.3861 51.4657C33.6413 51.7166 32.9356 52.0709 32.2897 52.5184C31.8813 52.9359 31.7542 53.0902 31.7542 53.0902L31.9448 53.6438C32.2432 53.802 32.5729 53.8922 32.9102 53.9079C33.2476 53.9236 33.5842 53.8644 33.896 53.7345C34.7128 53.4895 34.985 53.3806 35.1393 53.3624C35.2652 53.6195 35.4077 53.868 35.5658 54.1066C34.9179 54.6621 34.3417 55.2962 33.8506 55.9943C33.7476 56.2346 33.6567 56.4799 33.5784 56.7293L33.9595 57.1559C34.2893 57.1887 34.6223 57.1497 34.9357 57.0416C35.249 56.9335 35.5352 56.7589 35.7746 56.5297C36.1104 56.2346 36.4651 55.9618 36.8364 55.7129C37.027 55.8944 37.2266 56.0578 37.4263 56.2211C37.0011 56.9319 36.6773 57.6986 36.4643 58.499C36.4511 58.759 36.4511 59.0195 36.4643 59.2795L36.9907 59.5699C37.3264 59.5069 37.6437 59.3689 37.9187 59.1662C38.1937 58.9635 38.4193 58.7013 38.5788 58.3992C38.7785 58.0997 38.9146 57.891 39.0144 57.7276C39.0837 57.6086 39.1594 57.4935 39.2413 57.3828C39.5226 57.5007 39.8131 57.6096 40.1488 57.7004C40.1488 57.9545 40.0944 58.3992 40.0762 58.8711C40.0762 58.9982 40.0762 59.1252 40.0762 59.2523C40.0762 59.3793 40.0762 59.4973 40.0762 59.6153C40.0767 59.8064 40.1073 59.9963 40.167 60.1779C40.1641 60.2172 40.1641 60.2566 40.167 60.2959C40.3394 60.7406 40.4211 60.904 40.4211 60.904L40.8386 60.9675H41.0291C41.3141 60.7875 41.5534 60.5438 41.7282 60.2556C41.903 59.9674 42.0085 59.6426 42.0365 59.3067C42.1454 58.6624 42.1908 58.3447 42.2271 58.1632C42.2206 58.1272 42.2206 58.0903 42.2271 58.0543C42.4539 58.0543 42.6899 58.0543 42.9259 58.0543C43.2882 58.0349 43.6489 57.9925 44.0058 57.9273C44.2043 58.6467 44.5102 59.3321 44.9133 59.9601C45.0974 60.1516 45.2913 60.3333 45.4942 60.5046L46.1022 60.3231C46.2974 60.0457 46.426 59.7269 46.478 59.3917C46.5299 59.0564 46.5038 58.7136 46.4017 58.3901C46.2565 57.7458 46.1748 57.4826 46.1385 57.2648C46.5504 57.072 46.9451 56.8443 47.3183 56.5842C47.4453 56.7021 47.645 56.9381 48.126 57.4917C48.3317 57.7578 48.5958 57.9731 48.8979 58.121C49.2 58.2689 49.532 58.3455 49.8684 58.3447L50.3403 57.9454C50.3056 57.6859 50.2571 57.4284 50.1951 57.174C49.872 56.449 49.4473 55.7737 48.9337 55.1684C49.1512 54.9202 49.3543 54.6596 49.5417 54.3879C49.7051 54.4515 49.9955 54.5967 50.5944 54.8598C50.8928 55.0255 51.2242 55.1228 51.5648 55.1448C51.9054 55.1668 52.2466 55.1128 52.5638 54.9869L52.8542 54.4515C52.724 54.229 52.5816 54.0139 52.4276 53.8071C51.859 53.2724 51.2136 52.8258 50.5128 52.4821C50.6126 52.2099 50.6852 51.9376 50.7578 51.6563C50.9121 51.5928 51.2206 51.6381 51.9285 51.7289ZM42.6808 52.9359C42.0244 52.9641 41.3743 52.7969 40.8129 52.4555C40.2514 52.1141 39.8039 51.6139 39.5268 51.0181C39.2497 50.4223 39.1555 49.7577 39.2562 49.1084C39.3569 48.4591 39.6479 47.8542 40.0925 47.3704C40.537 46.8865 41.115 46.5453 41.7535 46.39C42.3919 46.2347 43.0621 46.2722 43.6792 46.4979C44.2963 46.7235 44.8326 47.1271 45.2203 47.6577C45.608 48.1882 45.8296 48.8217 45.8572 49.4782C45.8842 50.3556 45.5638 51.2082 44.9656 51.8506C44.3674 52.4929 43.5397 52.8732 42.6627 52.9087L42.6808 52.9359Z" fill="url(#paint1_linear_36_613)"/>
<path d="M21.227 55.4315C22.3767 55.3819 23.486 54.9924 24.4143 54.3122C25.3426 53.6321 26.0484 52.6918 26.4422 51.6105C26.836 50.5291 26.9003 49.3553 26.6268 48.2374C26.3534 47.1195 25.7545 46.1079 24.9059 45.3305C24.0573 44.553 22.9973 44.0448 21.8598 43.87C20.7223 43.6952 19.5585 43.8617 18.5157 44.3485C17.4729 44.8353 16.5979 45.6204 16.0014 46.6046C15.4049 47.5888 15.1137 48.7278 15.1647 49.8775C15.1974 50.6405 15.3801 51.3895 15.7026 52.0818C16.0251 52.774 16.4809 53.3959 17.044 53.9117C17.6071 54.4276 18.2664 54.8274 18.9841 55.0882C19.7019 55.349 20.4641 55.4656 21.227 55.4315ZM20.8367 46.2837C21.4932 46.2556 22.1433 46.4227 22.7047 46.7641C23.2661 47.1055 23.7137 47.6057 23.9908 48.2015C24.2679 48.7973 24.362 49.4619 24.2613 50.1112C24.1606 50.7605 23.8696 51.3654 23.4251 51.8492C22.9806 52.3331 22.4025 52.6743 21.7641 52.8296C21.1256 52.9849 20.4555 52.9474 19.8383 52.7217C19.2212 52.4961 18.6849 52.0925 18.2972 51.5619C17.9096 51.0314 17.6879 50.3979 17.6604 49.7414C17.6409 49.3055 17.7077 48.8701 17.857 48.4602C18.0062 48.0503 18.235 47.6739 18.5302 47.3526C18.8253 47.0313 19.181 46.7715 19.5768 46.5881C19.9727 46.4046 20.4008 46.3012 20.8367 46.2837Z" fill="url(#paint2_linear_36_613)"/>
<path d="M42.7716 55.4315C43.9213 55.3819 45.0306 54.9924 45.9589 54.3122C46.8872 53.6321 47.593 52.6918 47.9868 51.6105C48.3806 50.5291 48.4449 49.3553 48.1714 48.2374C47.898 47.1195 47.2991 46.1079 46.4505 45.3305C45.6019 44.553 44.5419 44.0448 43.4044 43.87C42.2669 43.6952 41.1031 43.8617 40.0603 44.3485C39.0175 44.8353 38.1425 45.6204 37.546 46.6046C36.9495 47.5888 36.6583 48.7278 36.7093 49.8775C36.742 50.6405 36.9247 51.3895 37.2472 52.0818C37.5697 52.774 38.0255 53.3959 38.5886 53.9117C39.1517 54.4276 39.811 54.8274 40.5287 55.0882C41.2465 55.349 42.0087 55.4656 42.7716 55.4315ZM42.3813 46.2837C43.0378 46.2556 43.6879 46.4227 44.2493 46.7641C44.8107 47.1055 45.2583 47.6057 45.5354 48.2015C45.8125 48.7973 45.9066 49.4619 45.8059 50.1112C45.7052 50.7605 45.4142 51.3654 44.9697 51.8492C44.5252 52.3331 43.9471 52.6743 43.3087 52.8296C42.6702 52.9849 42.0001 52.9474 41.3829 52.7217C40.7658 52.4961 40.2295 52.0925 39.8418 51.5619C39.4542 51.0314 39.2325 50.3979 39.205 49.7414C39.1855 49.3055 39.2523 48.8701 39.4016 48.4602C39.5509 48.0503 39.7796 47.6739 40.0748 47.3526C40.3699 47.0313 40.7256 46.7715 41.1214 46.5881C41.5173 46.4046 41.9454 46.3012 42.3813 46.2837Z" fill="url(#paint3_linear_36_613)"/>
<path d="M31.2914 24.8024C31.2914 24.7117 31.2914 18.2138 31.2914 18.0141C31.3163 16.4244 31.0197 14.846 30.4192 13.3738C29.8188 11.9016 28.927 10.566 27.7974 9.44712C26.1741 7.94186 24.1455 6.94491 21.9621 6.57935" stroke="url(#paint4_linear_36_613)" stroke-width="2" stroke-linecap="round" stroke-linejoin="round"/>
<path d="M31.2914 63.5265V30.7014" stroke="url(#paint5_linear_36_613)" stroke-width="2" stroke-linecap="round" stroke-linejoin="round"/>
<path d="M33.9868 23.5051L27.8519 27.7796" stroke="url(#paint6_linear_36_613)" stroke-linecap="round" stroke-linejoin="round"/>
<path d="M34.4677 27.4526L28.3238 31.7361" stroke="url(#paint7_linear_36_613)" stroke-linecap="round" stroke-linejoin="round"/>
<path fill-rule="evenodd" clip-rule="evenodd" d="M13.4677 7.67353e-05C10.8111 -0.00890434 8.21156 0.77066 5.99832 2.24005C3.78507 3.70944 2.05765 5.80256 1.03478 8.25435C0.0119233 10.7061 -0.260362 13.4063 0.252403 16.013C0.765169 18.6196 2.03992 21.0155 3.91524 22.8972C5.79056 24.7788 8.18209 26.0617 10.787 26.5833C13.3919 27.1049 16.093 26.8417 18.5482 25.8272C21.0035 24.8126 23.1024 23.0923 24.5793 20.8841C26.0562 18.6758 26.8445 16.079 26.8446 13.4223C26.8481 11.6625 26.5049 9.91924 25.8345 8.29212C25.164 6.665 24.1796 5.18592 22.9373 3.93943C21.695 2.69294 20.2193 1.70345 18.5944 1.02752C16.9696 0.351588 15.2275 0.00245769 13.4677 7.67353e-05ZM13.4677 17.7694C12.6071 17.773 11.7649 17.5211 11.0476 17.0456C10.3304 16.5701 9.77039 15.8925 9.43859 15.0985C9.10679 14.3045 9.01811 13.4299 9.18379 12.5855C9.34946 11.741 9.76204 10.9648 10.3693 10.355C10.9765 9.74524 11.751 9.32942 12.5947 9.16021C13.4385 8.991 14.3134 9.07603 15.1088 9.40451C15.9042 9.73298 16.5842 10.2901 17.0627 11.0054C17.5411 11.7206 17.7965 12.5618 17.7965 13.4223C17.8001 13.9935 17.6909 14.5598 17.475 15.0887C17.2592 15.6175 16.9411 16.0986 16.5388 16.5041C16.1366 16.9097 15.6583 17.2319 15.1312 17.4521C14.6042 17.6724 14.0389 17.7863 13.4677 17.7875V17.7694Z" fill="url(#paint8_linear_36_613)"/>
<g opacity="0.8">
<path d="M13.4677 0.471909C16.0349 0.46113 18.5475 1.21255 20.6873 2.63098C22.8272 4.04941 24.4978 6.07103 25.4877 8.43974C26.4777 10.8085 26.7423 13.4177 26.248 15.9369C25.7538 18.4561 24.523 20.772 22.7115 22.5911C20.9 24.4102 18.5893 25.6508 16.0722 26.1556C13.5551 26.6604 10.9448 26.4068 8.57193 25.4269C6.19907 24.447 4.17044 22.7848 2.74302 20.651C1.3156 18.5171 0.553613 16.0077 0.553591 13.4404C0.551167 10.0096 1.90924 6.71789 4.33006 4.28686C6.75088 1.85584 10.0369 0.483921 13.4677 0.471909ZM13.4677 18.2412C14.4179 18.2448 15.3479 17.9663 16.1398 17.441C16.9316 16.9157 17.5498 16.1671 17.9159 15.2902C18.2821 14.4133 18.3797 13.4475 18.1966 12.515C18.0134 11.5825 17.5576 10.7254 16.8869 10.0522C16.2162 9.37899 15.3608 8.91995 14.4291 8.73324C13.4973 8.54652 12.5311 8.64053 11.6528 9.00335C10.7745 9.36617 10.0237 9.98149 9.49536 10.7714C8.96703 11.5612 8.68501 12.4901 8.685 13.4404C8.68499 14.7105 9.1883 15.9289 10.0847 16.8287C10.9811 17.7285 12.1975 18.2364 13.4677 18.2412ZM13.4677 0.0181474C10.8111 0.00916634 8.21156 0.78873 5.99832 2.25812C3.78507 3.72751 2.05765 5.82063 1.03478 8.27242C0.0119233 10.7242 -0.260362 13.4244 0.252403 16.031C0.765169 18.6377 2.03992 21.0336 3.91524 22.9152C5.79056 24.7969 8.18209 26.0798 10.787 26.6014C13.3919 27.123 16.093 26.8598 18.5482 25.8453C21.0035 24.8307 23.1024 23.1104 24.5793 20.9021C26.0562 18.6939 26.8445 16.097 26.8446 13.4404C26.8505 11.6791 26.509 9.93384 25.8397 8.30462C25.1703 6.6754 24.1862 5.19419 22.9437 3.94577C21.7012 2.69736 20.2247 1.70624 18.5986 1.02918C16.9726 0.352108 15.229 0.00237656 13.4677 0V0.0181474ZM13.4677 17.7875C12.6071 17.7911 11.7649 17.5392 11.0476 17.0637C10.3304 16.5882 9.77039 15.9106 9.43859 15.1166C9.10679 14.3226 9.01811 13.448 9.18379 12.6035C9.34946 11.7591 9.76204 10.9828 10.3693 10.3731C10.9765 9.76332 11.751 9.3475 12.5947 9.17829C13.4385 9.00908 14.3134 9.0941 15.1088 9.42258C15.9042 9.75105 16.5842 10.3082 17.0626 11.0235C17.5411 11.7387 17.7965 12.5799 17.7965 13.4404C17.7977 14.0101 17.6867 14.5744 17.4698 15.1012C17.2529 15.6279 16.9344 16.1068 16.5324 16.5105C16.1304 16.9141 15.6529 17.2347 15.127 17.4538C14.6012 17.6729 14.0373 17.7863 13.4677 17.7875Z" fill="#F5F5F5"/>
</g>
<path d="M31.9902 65.723L34.7128 62.2472C34.8081 62.125 34.8672 61.9785 34.8832 61.8244C34.8993 61.6703 34.8717 61.5148 34.8035 61.3757C34.7353 61.2365 34.6294 61.1194 34.4978 61.0376C34.3663 60.9558 34.2143 60.9126 34.0594 60.9131H28.6868C28.5319 60.9126 28.38 60.9558 28.2484 61.0376C28.1168 61.1194 28.0109 61.2365 27.9427 61.3757C27.8746 61.5148 27.8469 61.6703 27.863 61.8244C27.879 61.9785 27.9381 62.125 28.0334 62.2472L30.756 65.723C30.8335 65.8101 30.9285 65.8798 31.0349 65.9276C31.1413 65.9753 31.2565 66 31.3731 66C31.4897 66 31.605 65.9753 31.7113 65.9276C31.8177 65.8798 31.9127 65.8101 31.9902 65.723Z" fill="url(#paint9_linear_36_613)"/>
<path d="M22.2162 11.1897C21.8662 9.76777 21.1558 8.46004 20.1533 7.39261C19.1509 6.32519 17.8903 5.53409 16.4932 5.09561C15.0961 4.65713 13.6095 4.58607 12.1769 4.88928C10.7443 5.19249 9.41406 5.85975 8.31438 6.82669C7.21471 7.79363 6.38275 9.02763 5.89876 10.4097C5.41477 11.7917 5.29507 13.2751 5.55122 14.7169C5.80736 16.1586 6.4307 17.51 7.36112 18.6408C8.29153 19.7715 9.49762 20.6434 10.8631 21.1724" stroke="#40405B" stroke-width="2" stroke-linecap="round" stroke-linejoin="round"/>
<path d="M23.0329 14.7473L19.4029 12.4331C19.3168 12.379 19.2479 12.3015 19.2043 12.2097C19.1607 12.1179 19.1441 12.0156 19.1564 11.9147C19.1688 11.8138 19.2096 11.7185 19.2742 11.64C19.3387 11.5614 19.4243 11.5029 19.5208 11.4712L24.7209 9.77408C24.8172 9.74151 24.9208 9.73702 25.0196 9.76114C25.1183 9.78525 25.2081 9.83699 25.2786 9.91028C25.349 9.98357 25.3971 10.0754 25.4173 10.175C25.4375 10.2746 25.4289 10.378 25.3925 10.4729L23.8225 14.5204C23.7908 14.5921 23.7438 14.6559 23.6847 14.7074C23.6257 14.7588 23.556 14.7967 23.4807 14.8184C23.4054 14.84 23.3263 14.8449 23.2489 14.8326C23.1716 14.8203 23.0978 14.7912 23.0329 14.7473Z" fill="#40405B"/>
<defs>
<linearGradient id="paint0_linear_36_613" x1="9.50251" y1="50.2068" x2="32.1634" y2="49.3004" gradientUnits="userSpaceOnUse">
<stop offset="0.34" stop-color="#A5A2A3"/>
<stop offset="0.93" stop-color="#F5F5F5"/>
</linearGradient>
<linearGradient id="paint1_linear_36_613" x1="31.0471" y1="50.2068" x2="53.708" y2="49.3004" gradientUnits="userSpaceOnUse">
<stop offset="0.34" stop-color="#A5A2A3"/>
<stop offset="0.93" stop-color="#F5F5F5"/>
</linearGradient>
<linearGradient id="paint2_linear_36_613" x1="15.2566" y1="44.0065" x2="3.62211" y2="44.4719" gradientUnits="userSpaceOnUse">
<stop offset="0.34" stop-color="#A5A2A3"/>
<stop offset="0.93" stop-color="#F5F5F5"/>
</linearGradient>
<linearGradient id="paint3_linear_36_613" x1="36.8012" y1="44.0065" x2="25.1667" y2="44.4719" gradientUnits="userSpaceOnUse">
<stop offset="0.34" stop-color="#A5A2A3"/>
<stop offset="0.93" stop-color="#F5F5F5"/>
</linearGradient>
<linearGradient id="paint4_linear_36_613" x1="34.9033" y1="22.4701" x2="19.8566" y2="7.42334" gradientUnits="userSpaceOnUse">
<stop offset="0.34" stop-color="#A5A2A3"/>
<stop offset="0.93" stop-color="#F5F5F5"/>
</linearGradient>
<linearGradient id="paint5_linear_36_613" x1="-nan" y1="-nan" x2="-nan" y2="-nan" gradientUnits="userSpaceOnUse">
<stop offset="0.34" stop-color="#A5A2A3"/>
<stop offset="0.93" stop-color="#F5F5F5"/>
</linearGradient>
<linearGradient id="paint6_linear_36_613" x1="31.7089" y1="26.4274" x2="30.1298" y2="24.8573" gradientUnits="userSpaceOnUse">
<stop offset="0.34" stop-color="#A5A2A3"/>
<stop offset="0.93" stop-color="#F5F5F5"/>
</linearGradient>
<linearGradient id="paint7_linear_36_613" x1="32.1808" y1="30.3839" x2="30.6108" y2="28.8048" gradientUnits="userSpaceOnUse">
<stop offset="0.34" stop-color="#A5A2A3"/>
<stop offset="0.93" stop-color="#F5F5F5"/>
</linearGradient>
<linearGradient id="paint8_linear_36_613" x1="13.4677" y1="26.8537" x2="13.4677" y2="0.0182281" gradientUnits="userSpaceOnUse">
<stop offset="0.34" stop-color="#A5A2A3"/>
<stop offset="0.93" stop-color="#F5F5F5"/>
</linearGradient>
<linearGradient id="paint9_linear_36_613" x1="29.2041" y1="60.0056" x2="33.4604" y2="64.2528" gradientUnits="userSpaceOnUse">
<stop offset="0.34" stop-color="#A5A2A3"/>
<stop offset="0.93" stop-color="#F5F5F5"/>
</linearGradient>
</defs>
</svg>
