<svg width="64" height="64" viewBox="0 0 64 64" fill="none" xmlns="http://www.w3.org/2000/svg">
<path opacity="0.5" d="M26.1414 56.0501C26.5016 56.1702 26.7418 56.4104 26.9819 56.6505L29.2635 60.3731C29.5037 60.7334 29.8639 60.9735 30.4643 60.9735H33.9467C34.4271 60.9735 34.9074 60.7334 35.1476 60.3731C35.748 59.4124 36.3484 57.9715 36.9488 57.0108C37.0689 56.6506 37.6527 56.1703 38.013 56.0502L26.1414 56.0501Z" fill="#FF3E3E"/>
<path d="M44.1535 44.8824L38.2695 55.6898H25.9009L20.8575 46.0832C21.698 45.843 22.4185 45.1226 23.019 44.1619C23.3792 43.9217 24.3399 43.6816 25.4206 44.282C26.6214 44.8824 29.3833 46.4435 32.9858 46.4435C35.2674 46.4435 37.9092 45.723 40.6711 43.8016C41.0314 43.5615 41.7519 43.4414 42.7125 44.0418C43.0728 44.282 43.5531 44.5221 44.1535 44.8824ZM49.3171 20.6257C48.9568 20.2654 48.5966 20.1453 48.2363 20.1453H43.313V20.2654H41.0314L41.1515 43.0811C41.6318 43.0811 42.2322 43.2012 42.8326 43.5615C44.2736 44.5221 47.0355 45.723 49.197 43.4414L49.3171 43.2012C49.4372 42.9611 49.6773 42.6008 49.6773 42.3606V21.5863C49.6773 21.2261 49.5573 20.9859 49.3171 20.6257ZM20.137 46.2033C18.9361 46.3234 17.7353 45.843 16.7747 45.2426C18.9361 48.2447 23.2591 53.6484 23.9796 54.7292C24.3399 55.2095 24.9403 55.5698 25.5407 55.8099L20.4972 46.0832C20.3771 46.0832 20.2571 46.2033 20.137 46.2033ZM44.5138 44.8824L38.6297 55.6898C38.8699 55.6898 38.99 55.6898 38.99 55.6898C40.9113 55.3296 41.5117 54.489 41.5117 54.489L47.3958 45.9631C47.3958 45.9631 47.3958 45.843 47.5159 45.843L48.2363 44.8824C46.9154 45.4828 45.5945 45.3627 44.5138 44.8824ZM22.5386 43.8016C22.6587 43.6816 22.7788 43.4414 23.139 43.4414L23.019 20.3855H21.9382L16.8947 20.2654C16.5345 20.2654 16.0542 20.3855 15.814 20.7457L15.6939 20.8658C15.5738 21.106 15.3337 21.4662 15.3337 21.7064V42.7209C15.3337 43.0811 15.4537 43.3213 15.5738 43.5615C15.6939 43.8016 15.6939 43.8016 15.814 43.9217C16.7747 44.7623 18.4558 45.843 20.137 45.723C21.2177 45.6029 21.698 45.0025 22.5386 43.8016ZM42.7125 4.97349C42.7125 3.86892 41.8171 2.97349 40.7125 2.97349H23.9382C22.8336 2.97349 21.9382 3.86892 21.9382 4.97349V17.0646C21.9382 18.1692 22.8336 19.0646 23.9382 19.0646H40.7125C41.8171 19.0646 42.7125 18.1692 42.7125 17.0646V4.97349ZM40.551 20.1453L23.7395 20.2654L23.8595 43.3213C24.3399 43.3213 24.9403 43.4414 25.5407 43.8016C27.9424 45.2426 33.8264 48.2447 40.3109 43.3213C40.3109 43.2012 40.551 43.2012 40.6711 43.0811L40.551 20.1453ZM37.1887 39.959H28.0624C28.0624 39.5987 28.0624 39.1184 28.3026 38.7582C28.5428 38.1578 28.903 37.5573 29.3833 36.9569C29.8637 36.3565 30.5842 35.636 31.5448 34.9155C32.9858 33.7147 34.0666 32.754 34.5469 32.0335C35.0272 31.313 35.3875 30.5925 35.3875 29.9921C35.3875 29.2716 35.1473 28.7913 34.667 28.311C34.1867 27.8306 33.5862 27.5905 32.7457 27.5905C31.9051 27.5905 31.3047 27.8306 30.8243 28.311C30.344 28.7913 30.1038 29.5118 30.1038 30.3524L28.4227 30.1122C28.5428 28.7913 29.0231 27.8306 29.7436 27.1101C30.4641 26.3896 31.5448 26.1495 32.8657 26.1495C34.1867 26.1495 35.2674 26.5097 35.9879 27.2302C36.7084 27.9507 37.1887 28.9114 37.1887 29.9921C37.1887 30.5925 37.0686 31.0729 36.8285 31.6733C36.5883 32.1536 36.2281 32.754 35.7477 33.3544C35.2674 33.9549 34.3067 34.7954 33.1059 35.7561C32.1453 36.5967 31.4248 37.1971 31.1846 37.4373C30.9444 37.6774 30.7043 38.0377 30.4641 38.3979H37.1887V39.959Z" fill="url(#paint0_linear_1_141)"/>
<defs>
<linearGradient id="paint0_linear_1_141" x1="28.5428" y1="55.8099" x2="28.5428" y2="2.97349" gradientUnits="userSpaceOnUse">
<stop offset="0.3408" stop-color="#A5A2A3"/>
<stop offset="0.933" stop-color="#F5F5F5"/>
</linearGradient>
</defs>
</svg>
