<svg width="64" height="64" viewBox="0 0 64 64" fill="none" xmlns="http://www.w3.org/2000/svg">
<path d="M44.8013 46.2444L38.3085 58.1698H24.6605L19.0952 47.5694C20.0228 47.3044 20.8178 46.5094 21.4803 45.4493C21.8779 45.1843 22.9379 44.9193 24.1304 45.5818C25.4555 46.2444 28.5031 47.9669 32.4783 47.9669C34.9959 47.9669 37.911 47.1719 40.9586 45.0518C41.3561 44.7868 42.1512 44.6543 43.2112 45.3168C43.6087 45.5818 44.1387 45.8468 44.8013 46.2444ZM50.499 19.4783C50.1015 19.0808 49.704 18.9483 49.3065 18.9483H43.8737V19.0808H41.3561L41.4886 44.2568C42.0187 44.2568 42.6812 44.3893 43.3437 44.7868C44.9338 45.8468 47.9814 47.1719 50.3665 44.6543L50.499 44.3893C50.6315 44.1243 50.8965 43.7268 50.8965 43.4617V20.5383C50.8965 20.1408 50.764 19.8758 50.499 19.4783ZM18.3002 47.7019C16.9752 47.8344 15.6501 47.3044 14.5901 46.6419C16.9752 49.9545 21.7454 55.9172 22.5404 57.1098C22.9379 57.6398 23.6004 58.0373 24.263 58.3023L18.6977 47.5694C18.5652 47.5694 18.4327 47.7019 18.3002 47.7019ZM45.1988 46.2444L38.706 58.1698C38.971 58.1698 39.1035 58.1698 39.1035 58.1698C41.2236 57.7723 41.8862 56.8448 41.8862 56.8448L48.3789 47.4369C48.3789 47.4369 48.3789 47.3044 48.5114 47.3044L49.3065 46.2444C47.8489 46.9069 46.3913 46.7744 45.1988 46.2444ZM20.9503 45.0518C21.0828 44.9193 21.2153 44.6543 21.6128 44.6543L21.4803 19.2133H20.2878L14.7226 19.0808C14.3251 19.0808 13.795 19.2133 13.53 19.6108L13.3975 19.7433C13.265 20.0083 13 20.4058 13 20.6708V43.8593C13 44.2568 13.1325 44.5218 13.265 44.7868C13.3975 45.0518 13.3975 45.0518 13.53 45.1843C14.5901 46.1118 16.4451 47.3044 18.3002 47.1719C19.4928 47.0394 20.0228 46.3769 20.9503 45.0518ZM43.2112 2C43.2112 0.895428 42.3158 0 41.2112 0H22.2878C21.1832 0 20.2878 0.895431 20.2878 2V15.7557C20.2878 16.8603 21.1832 17.7557 22.2878 17.7557H41.2112C42.3158 17.7557 43.2112 16.8603 43.2112 15.7557V2ZM22.2754 19.0808L40.8261 18.9483L40.9586 44.2568C40.8261 44.3893 40.5611 44.3893 40.5611 44.5218C33.4058 49.9545 26.9131 46.6419 24.263 45.0518C23.6004 44.6543 22.9379 44.5218 22.4079 44.5218L22.2754 19.0808ZM26.2505 30.6087C28.7681 29.5487 30.4907 28.4886 31.4182 27.2961V40.9441H33.5383V23.7184H31.8158C30.8882 25.706 29.0331 27.2961 26.118 28.4886V30.6087H26.2505Z" fill="url(#paint0_linear_1356_5402)"/>
<path opacity="0.5" d="M24.9255 58.5673C25.3231 58.6998 25.5881 58.9648 25.8531 59.2298L28.3707 63.3375C28.6357 63.735 29.0332 64 29.6957 64H33.5384C34.0684 64 34.5984 63.735 34.8634 63.3375C35.526 62.2774 36.1885 60.6874 36.851 59.6274C36.9835 59.2299 37.6278 58.6998 38.0253 58.5673L24.9255 58.5673Z" fill="#FF3E3E"/>
<defs>
<linearGradient id="paint0_linear_1356_5402" x1="32.2133" y1="58.3023" x2="32.2133" y2="-1.32505" gradientUnits="userSpaceOnUse">
<stop offset="0.3408" stop-color="#A5A2A3"/>
<stop offset="0.933" stop-color="#F5F5F5"/>
</linearGradient>
</defs>
</svg>
