<svg width="64" height="64" viewBox="0 0 64 64" fill="none" xmlns="http://www.w3.org/2000/svg">
<path opacity="0.5" d="M24.9253 58.5673C25.3228 58.6998 25.5878 58.9648 25.8528 59.2298L28.3704 63.3375C28.6354 63.735 29.033 64 29.6955 64H33.5381C34.0682 64 34.5982 63.735 34.8632 63.3375C35.5257 62.2774 36.1882 60.6874 36.8508 59.6274C36.9833 59.2299 37.6275 58.6998 38.025 58.5673L24.9253 58.5673Z" fill="#FF3E3E"/>
<path d="M44.8013 46.2444L38.3085 58.1698H24.6605L19.0952 47.5694C20.0228 47.3044 20.8178 46.5094 21.4803 45.4493C21.8779 45.1843 22.9379 44.9193 24.1304 45.5818C25.4555 46.2444 28.5031 47.9669 32.4783 47.9669C34.9959 47.9669 37.911 47.1719 40.9586 45.0518C41.3561 44.7868 42.1512 44.6543 43.2112 45.3168C43.6087 45.5818 44.1387 45.8468 44.8013 46.2444ZM50.499 19.4783C50.1015 19.0808 49.704 18.9483 49.3065 18.9483H43.8737V19.0808H41.3561L41.4886 44.2568C42.0187 44.2568 42.6812 44.3893 43.3437 44.7868C44.9338 45.8468 47.9814 47.1719 50.3665 44.6543L50.499 44.3893C50.6315 44.1243 50.8965 43.7268 50.8965 43.4617V20.5383C50.8965 20.1408 50.764 19.8758 50.499 19.4783ZM18.3002 47.7019C16.9752 47.8344 15.6501 47.3044 14.5901 46.6419C16.9752 49.9545 21.7454 55.9172 22.5404 57.1098C22.9379 57.6398 23.6004 58.0373 24.263 58.3023L18.6977 47.5694C18.5652 47.5694 18.4327 47.7019 18.3002 47.7019ZM45.1988 46.2444L38.706 58.1698C38.971 58.1698 39.1035 58.1698 39.1035 58.1698C41.2236 57.7723 41.8862 56.8448 41.8862 56.8448L48.3789 47.4369C48.3789 47.4369 48.3789 47.3044 48.5114 47.3044L49.3065 46.2444C47.8489 46.9069 46.3913 46.7744 45.1988 46.2444ZM20.9503 45.0518C21.0828 44.9193 21.2153 44.6543 21.6128 44.6543L21.4803 19.2133H20.2878L14.7226 19.0808C14.3251 19.0808 13.795 19.2133 13.53 19.6108L13.3975 19.7433C13.265 20.0083 13 20.4058 13 20.6708V43.8593C13 44.2568 13.1325 44.5218 13.265 44.7868C13.3975 45.0518 13.3975 45.0518 13.53 45.1843C14.5901 46.1118 16.4451 47.3044 18.3002 47.1719C19.4928 47.0394 20.0228 46.3769 20.9503 45.0518ZM43.2112 2C43.2112 0.895428 42.3158 0 41.2112 0H22.2878C21.1832 0 20.2878 0.895431 20.2878 2V15.7557C20.2878 16.8603 21.1832 17.7557 22.2878 17.7557H41.2112C42.3158 17.7557 43.2112 16.8603 43.2112 15.7557V2ZM40.8261 18.9483L22.2754 19.0808L22.4079 44.5218C22.9379 44.5218 23.6004 44.6543 24.263 45.0518C26.9131 46.6419 33.4058 49.9545 40.5611 44.5218C40.5611 44.3893 40.8261 44.3893 40.9586 44.2568L40.8261 18.9483ZM37.116 40.8116H27.0456C27.0456 40.4141 27.0456 39.8841 27.3106 39.4866C27.5756 38.8241 27.9731 38.1615 28.5031 37.499C29.0331 36.8365 29.8282 36.0414 30.8882 35.2464C32.4783 33.9214 33.6708 32.8613 34.2008 32.0663C34.7309 31.2713 35.1284 30.4762 35.1284 29.8137C35.1284 29.0187 34.8634 28.4886 34.3334 27.9586C33.8033 27.4286 33.1408 27.1636 32.2133 27.1636C31.2857 27.1636 30.6232 27.4286 30.0932 27.9586C29.5632 28.4886 29.2982 29.2837 29.2982 30.2112L27.4431 29.9462C27.5756 28.4886 28.1056 27.4286 28.9006 26.6336C29.6957 25.8385 30.8882 25.5735 32.3458 25.5735C33.8033 25.5735 34.9959 25.971 35.7909 26.7661C36.5859 27.5611 37.116 28.6211 37.116 29.8137C37.116 30.4762 36.9835 31.0062 36.7184 31.6688C36.4534 32.1988 36.0559 32.8613 35.5259 33.5238C34.9959 34.1864 33.9358 35.1139 32.6108 36.174C31.5507 37.1015 30.7557 37.764 30.4907 38.029C30.2257 38.294 29.9607 38.6916 29.6957 39.0891H37.116V40.8116Z" fill="url(#paint0_linear_1356_5404)"/>
<defs>
<linearGradient id="paint0_linear_1356_5404" x1="26.9131" y1="57.9904" x2="26.9131" y2="-1.32505" gradientUnits="userSpaceOnUse">
<stop offset="0.3408" stop-color="#A5A2A3"/>
<stop offset="0.933" stop-color="#F5F5F5"/>
</linearGradient>
</defs>
</svg>
