<svg width="64" height="64" viewBox="0 0 64 64" fill="none" xmlns="http://www.w3.org/2000/svg">
<path d="M44.1539 44.8825L38.2698 55.6899H25.9013L20.8578 46.0833C21.6984 45.8431 22.4189 45.1226 23.0193 44.162C23.3795 43.9218 24.3402 43.6816 25.421 44.282C26.6218 44.8825 29.3837 46.4435 32.9862 46.4435C35.2678 46.4435 37.9096 45.723 40.6715 43.8017C41.0317 43.5615 41.7522 43.4415 42.7129 44.0419C43.0731 44.282 43.5535 44.5222 44.1539 44.8825ZM49.3175 20.6257C48.9572 20.2655 48.597 20.1454 48.2367 20.1454H43.3133V20.2655H41.0317L41.1518 43.0812C41.6321 43.0812 42.2326 43.2013 42.833 43.5615C44.274 44.5222 47.0359 45.723 49.1974 43.4415L49.3175 43.2013C49.4375 42.9611 49.6777 42.6009 49.6777 42.3607V21.5864C49.6777 21.2261 49.5576 20.986 49.3175 20.6257ZM20.1373 46.2034C18.9365 46.3235 17.7356 45.8431 16.775 45.2427C18.9365 48.2448 23.2595 53.6485 23.98 54.7293C24.3402 55.2096 24.9406 55.5698 25.541 55.81L20.4976 46.0833C20.3775 46.0833 20.2574 46.2034 20.1373 46.2034ZM44.5141 44.8825L38.6301 55.6899C38.8702 55.6899 38.9903 55.6899 38.9903 55.6899C40.9116 55.3297 41.5121 54.4891 41.5121 54.4891L47.3961 45.9632C47.3961 45.9632 47.3961 45.8431 47.5162 45.8431L48.2367 44.8825C46.9158 45.4829 45.5949 45.3628 44.5141 44.8825ZM22.539 43.8017C22.659 43.6816 22.7791 43.4415 23.1394 43.4415L23.0193 20.3855H21.9385L16.8951 20.2655C16.5348 20.2655 16.0545 20.3855 15.8143 20.7458L15.6942 20.8659C15.5742 21.106 15.334 21.4663 15.334 21.7064V42.721C15.334 43.0812 15.4541 43.3214 15.5742 43.5615C15.6942 43.8017 15.6942 43.8017 15.8143 43.9218C16.775 44.7624 18.4561 45.8431 20.1373 45.723C21.218 45.603 21.6984 45.0025 22.539 43.8017ZM42.7129 4.97351C42.7129 3.86894 41.8175 2.97351 40.7129 2.97351H23.9385C22.834 2.97351 21.9385 3.86894 21.9385 4.97351V17.0646C21.9385 18.1692 22.834 19.0646 23.9385 19.0646H40.7129C41.8175 19.0646 42.7129 18.1692 42.7129 17.0646V4.97351ZM23.7398 20.2655L40.5514 20.1454L40.6715 43.0812C40.5514 43.2013 40.3112 43.2013 40.3112 43.3214C33.8268 48.2448 27.9427 45.2427 25.541 43.8017C24.9406 43.4415 24.3402 43.3214 23.8599 43.3214L23.7398 20.2655ZM27.3423 30.7127C29.6239 29.752 31.1849 28.7913 32.0255 27.7106V40.0791H33.9468V24.4684H32.3858C31.5452 26.2696 29.864 27.7106 27.2222 28.7913V30.7127H27.3423Z" fill="url(#paint0_linear_1_146)"/>
<path opacity="0.5" d="M26.1413 56.0501C26.5016 56.1702 26.7417 56.4104 26.9819 56.6505L29.2635 60.3731C29.5036 60.7333 29.8639 60.9735 30.4643 60.9735H33.9467C34.427 60.9735 34.9074 60.7333 35.1475 60.3731C35.748 59.4124 36.3484 57.9715 36.9488 57.0108C37.0689 56.6506 37.6527 56.1702 38.013 56.0502L26.1413 56.0501Z" fill="#FF3E3E"/>
<defs>
<linearGradient id="paint0_linear_1_146" x1="29.7439" y1="55.81" x2="29.7439" y2="2.97351" gradientUnits="userSpaceOnUse">
<stop offset="0.3408" stop-color="#A5A2A3"/>
<stop offset="0.933" stop-color="#F5F5F5"/>
</linearGradient>
</defs>
</svg>
