<svg width="52" height="52" viewBox="0 0 52 52" fill="none" xmlns="http://www.w3.org/2000/svg">
<path d="M45.8591 3H6.14098C4.41851 3 3 4.41851 3 6.14098V45.859C3 47.5815 4.41851 49 6.14098 49H45.8591C47.5815 49 49 47.5815 49 45.859V6.14098C49 4.41851 47.5815 3 45.8591 3ZM25.8987 45.4537C15.1586 45.4537 6.44493 36.7401 6.44493 26C6.44493 15.2599 15.1586 6.54626 25.8987 6.54626C36.6388 6.54626 45.3524 15.2599 45.3524 26C45.4538 36.7401 36.7401 45.4537 25.8987 45.4537Z" fill="url(#paint0_linear_2009_563)"/>
<path d="M36.7931 24.119C35.8276 23.7806 34.931 23.5098 33.8966 23.4421C32.6552 23.3067 31.3448 23.4421 30.1034 23.7806C30.1724 23.8482 30.1724 23.9159 30.1724 23.9836C30.2414 24.322 30.4483 24.3897 30.7931 24.3897C31.6897 24.3897 32.5172 24.6605 33.2759 24.9989C34.1724 25.4051 34.931 25.9465 35.6207 26.6234C36.5862 27.5711 36.8621 28.9925 36.3103 30.2109C35.6207 31.7677 34.6552 33.0538 33.4138 34.2045C33.3448 34.2722 33.3448 34.2722 33.2759 34.2722C33.069 34.4075 32.931 34.3398 32.931 34.1368C32.7241 32.6476 32.1724 31.2939 31.4138 30.0078C31 29.3986 30.5173 28.7895 29.9655 28.248C29.8276 28.3833 29.6897 28.5864 29.6207 28.7218C29.8276 29.2633 30.1035 29.8048 30.2414 30.3463C30.6552 31.7677 30.6552 33.1892 30.1724 34.6106C29.7586 35.9644 28.7241 36.7089 27.3448 36.912C25.6207 37.115 23.9655 36.9797 22.3793 36.3705C22.3104 36.3705 22.1724 36.2351 22.1724 36.1674C22.1724 36.0997 22.2414 35.9644 22.3104 35.8967C24.0345 34.5429 25.2759 32.783 25.8276 30.6847C25.8276 30.617 25.8276 30.5493 25.8966 30.4816V30.4139C25.6897 30.4139 25.5517 30.3463 25.3448 30.3463C25.2759 30.3463 25.2759 30.3463 25.2069 30.4139C24.2414 32.1061 22.6552 33.0538 20.7931 33.663C19.6897 34.0014 18.6552 33.866 17.7586 33.1892C17.2069 32.8507 16.8621 32.3092 16.5173 31.7677C15.7586 30.617 15.2069 29.3309 15 27.9772C15 27.9095 15 27.7741 15.069 27.7064C15.1379 27.6387 15.2759 27.6387 15.3448 27.7064C16.7931 28.2479 18.3103 28.5187 19.8276 28.451C20.5172 28.3833 21.2759 28.3156 21.9655 28.1126C21.8966 27.9095 21.8276 27.7741 21.7586 27.6387C21.7586 27.5711 21.6897 27.5711 21.6207 27.5711C20.2414 27.6388 19.069 27.1649 17.8966 26.4881C17.2069 26.0819 16.5172 25.6081 16.0345 24.9312C15.2759 23.9159 15.1379 22.8329 15.6207 21.7499C16.3103 20.1254 17.2759 18.7717 18.5862 17.6886C18.6552 17.621 18.7931 17.5533 18.8621 17.621C18.931 17.621 19 17.7563 19 17.824C19.2759 19.7193 20.0345 21.4115 21.3448 22.9006C21.4828 23.036 21.6207 23.239 21.7586 23.3744C21.8276 23.4421 21.8966 23.5098 22.0345 23.6452C22.1724 23.4421 22.3104 23.3067 22.3793 23.1714C22.3793 23.1714 22.3793 23.1037 22.3793 23.036C21.5517 21.7499 21.4138 20.3962 21.4828 18.9747C21.5517 18.2978 21.6207 17.5533 21.9655 16.9441C22.5172 15.7934 23.5517 15.1842 24.8621 15.0488C26.4483 14.9135 28.0345 15.0488 29.5517 15.5903C29.6897 15.658 29.8276 15.7257 29.8276 15.7934C29.8276 15.8611 29.6897 15.9965 29.6207 16.0641C28.0345 17.2825 26.931 18.8393 26.3103 20.7346C26.2414 21.0054 26.1724 21.2084 26.1035 21.4792C26.3104 21.4792 26.5172 21.5468 26.6552 21.5468C26.7241 21.5468 26.7931 21.4792 26.7931 21.4792C27.6207 19.99 29 19.1101 30.5172 18.4332C31 18.2302 31.4828 18.0948 32.0345 18.0271C33.069 17.9594 33.9655 18.2978 34.7241 19.0424C35.5517 19.9223 36.1035 21.0054 36.5173 22.156C36.7242 22.6976 36.8621 23.3067 37 23.9159C37 23.9836 37 24.119 36.9311 24.1867C37 24.119 36.8621 24.119 36.7931 24.119Z" fill="url(#paint1_linear_2009_563)"/>
<path d="M26.393 21.8213C24.3409 21.8213 22.6425 23.4489 22.6425 25.5718C22.6425 27.624 24.3409 29.2516 26.393 29.2516C28.4452 29.2516 30.0728 27.5532 30.0728 25.501C30.1436 23.4489 28.4452 21.8213 26.393 21.8213ZM28.8698 25.6426C28.799 26.9163 27.7376 27.9778 26.393 27.9778C25.0485 27.9778 23.9163 26.9163 23.9163 25.4303C23.9163 24.1565 25.0485 23.0243 26.393 23.0243C27.8791 23.095 28.9406 24.2273 28.8698 25.6426Z" fill="#0D0C1B"/>
<path opacity="0.6" d="M12.5985 32.5105C12.5841 32.407 12.6849 32.3272 12.7821 32.3664L14.1665 32.9407L19.7497 35.2523C19.8435 35.2912 19.8622 35.4223 19.7795 35.4866L18.1809 36.7473C17.9001 36.9681 17.9055 37.4048 18.1919 37.6173C18.7239 38.0114 19.2861 38.3673 19.8718 38.6843C21.511 39.5638 23.2914 40.0944 25.1609 40.258C27.0304 40.4215 28.8759 40.2081 30.6433 39.6233C31.9374 39.1981 33.1508 38.5852 34.2617 37.8032C34.701 37.4941 35.3014 37.5671 35.6583 37.9697C36.0916 38.4574 36.0015 39.2197 35.4694 39.5923C32.5052 41.6741 28.8369 42.7605 24.9716 42.4223C21.6351 42.1304 18.6292 40.8179 16.2235 38.815C16.033 38.6552 15.7548 38.6547 15.5604 38.8081L13.8181 40.1789C13.7354 40.2432 13.6192 40.1921 13.6048 40.0886L12.9427 35.0895L12.5985 32.5105ZM21.0087 7.95085C20.9976 7.84765 21.1048 7.77184 21.1983 7.81409L25.7177 9.90994L28.0404 10.9855C28.1339 11.0278 28.1459 11.1583 28.0635 11.2193L26.8826 12.0735L21.919 15.6672C21.8366 15.7281 21.7174 15.6734 21.7096 15.5705L21.5392 13.7256C21.5043 13.3579 21.1253 13.1305 20.7903 13.2818C19.597 13.8181 18.4893 14.5254 17.4754 15.3874C16.0916 16.5681 14.962 17.9857 14.1167 19.602C13.247 21.2672 12.7198 23.0783 12.5535 24.9789C12.4316 26.3722 12.5087 27.7523 12.7834 29.0951C12.8911 29.6259 12.5931 30.1587 12.0879 30.3394C11.4791 30.5553 10.8213 30.1809 10.6931 29.5392C10.3803 28.0193 10.282 26.4227 10.4246 24.7926C10.9926 18.2996 15.2352 13.0242 20.8813 10.901C21.1067 10.8151 21.2508 10.5857 21.2285 10.3419L21.0087 7.95085ZM29.8157 11.5736C29.8764 10.8803 30.5498 10.4247 31.202 10.6317C38.2379 12.8523 43.0388 19.8151 42.3589 27.5865C42.2722 28.5774 42.1008 29.5404 41.8486 30.4691C41.7841 30.7088 41.8895 30.96 42.0998 31.084L43.9862 32.1657C44.0755 32.2179 44.0776 32.3475 43.9891 32.4011L39.9775 34.807L37.4943 36.2936C37.4058 36.3472 37.2942 36.2829 37.2933 36.1772L37.2855 34.9259L37.2388 28.5255C37.238 28.4198 37.3476 28.3544 37.4369 28.4065L39.2019 29.4197C39.5179 29.6007 39.916 29.4174 39.9879 29.0557C40.099 28.5134 40.1775 27.9614 40.2263 27.4034C40.3926 25.5028 40.1879 23.6277 39.6176 21.833C39.0688 20.0982 38.1992 18.5057 37.0418 17.0993C35.8841 15.6963 34.4926 14.5522 32.9047 13.6977C32.1493 13.2908 31.3637 12.9597 30.5547 12.7049C30.0822 12.5511 29.7713 12.0809 29.8157 11.5736Z" fill="#00A7FF"/>
<defs>
<linearGradient id="paint0_linear_2009_563" x1="2.91175" y1="26.0008" x2="48.9654" y2="26.0008" gradientUnits="userSpaceOnUse">
<stop offset="0.3408" stop-color="#A5A2A3"/>
<stop offset="0.933" stop-color="#F5F5F5"/>
</linearGradient>
<linearGradient id="paint1_linear_2009_563" x1="15.1228" y1="25.9471" x2="37.1385" y2="25.9471" gradientUnits="userSpaceOnUse">
<stop offset="0.3408" stop-color="#A5A2A3"/>
<stop offset="0.933" stop-color="#F5F5F5"/>
</linearGradient>
</defs>
</svg>
