<svg width="50" height="50" viewBox="0 0 50 50" fill="none" xmlns="http://www.w3.org/2000/svg">
<path d="M41.9604 22.0266C40.4185 21.4759 38.9868 21.0354 37.3348 20.9253C35.3524 20.705 33.2599 20.9253 31.2775 21.4759C31.3877 21.5861 31.3877 21.6962 31.3877 21.8063C31.4978 22.357 31.8282 22.4671 32.3789 22.4671C33.8106 22.4671 35.1322 22.9076 36.3436 23.4583C37.7753 24.1191 38.9868 25.0002 40.0881 26.1015C41.63 27.6433 42.0705 29.9561 41.1894 31.9385C40.0881 34.4715 38.5463 36.564 36.5639 38.4363C36.4538 38.5464 36.4538 38.5464 36.3436 38.5464C36.0132 38.7667 35.793 38.6566 35.793 38.3262C35.4626 35.9032 34.5815 33.7006 33.3701 31.6081C32.7093 30.6169 31.9384 29.6257 31.0573 28.7447C30.837 28.9649 30.6168 29.2953 30.5066 29.5156C30.837 30.3966 31.2776 31.2777 31.4978 32.1587C32.1586 34.4715 32.1586 36.7843 31.3877 39.0971C30.7269 41.2997 29.0749 42.5112 26.8723 42.8416C24.1189 43.172 21.4758 42.9517 18.9428 41.9605C18.8326 41.9605 18.6123 41.7403 18.6123 41.6301C18.6123 41.52 18.7225 41.2997 18.8326 41.1896C21.5859 38.987 23.5683 36.1235 24.4494 32.7094C24.4494 32.5993 24.4494 32.4892 24.5595 32.379V32.2689C24.2291 32.2689 24.0088 32.1587 23.6784 32.1587C23.5683 32.1587 23.5683 32.1588 23.4582 32.2689C21.9163 35.0222 19.3833 36.5641 16.4097 37.5553C14.6476 38.1059 12.9956 37.8856 11.5639 36.7843C10.6828 36.2337 10.1322 35.3526 9.58152 34.4715C8.37007 32.5993 7.489 30.5068 7.1586 28.3041C7.1586 28.194 7.15861 27.9737 7.26874 27.8636C7.37887 27.7535 7.59913 27.7535 7.70926 27.8636C10.022 28.7447 12.4449 29.1852 14.8679 29.0751C15.9692 28.9649 17.1806 28.8548 18.282 28.5244C18.1718 28.194 18.0617 27.9737 17.9516 27.7535C17.9516 27.6433 17.8414 27.6434 17.7313 27.6434C15.5287 27.7535 13.6564 26.9826 11.7842 25.8812C10.6828 25.2204 9.58151 24.4495 8.81058 23.3482C7.59913 21.6962 7.37886 19.9341 8.14978 18.172C9.2511 15.5288 10.793 13.3262 12.8855 11.564C12.9956 11.4539 13.2159 11.3438 13.326 11.4539C13.4361 11.4539 13.5463 11.6742 13.5463 11.7843C13.9868 14.868 15.1983 17.6213 17.2908 20.0442C17.511 20.2645 17.7313 20.5949 17.9516 20.8151C18.0617 20.9253 18.1718 21.0354 18.3921 21.2557C18.6124 20.9253 18.8326 20.705 18.9428 20.4848C18.9428 20.4848 18.9428 20.3746 18.9428 20.2645C17.6212 18.172 17.4009 15.9693 17.511 13.6566C17.6211 12.5552 17.7313 11.3438 18.282 10.3526C19.163 8.48034 20.815 7.48916 22.9075 7.2689C25.4406 7.04864 27.9736 7.26889 30.3965 8.14994C30.6168 8.26008 30.837 8.37019 30.837 8.48033C30.837 8.59046 30.6168 8.81075 30.5066 8.92088C27.9736 10.9033 26.2115 13.4363 25.2203 16.52C25.1101 16.9605 25 17.2909 24.8899 17.7315C25.2203 17.7315 25.5507 17.8416 25.7709 17.8416C25.8811 17.8416 25.9912 17.7315 25.9912 17.7315C27.3128 15.3085 29.5154 13.8768 31.9383 12.7755C32.7093 12.4451 33.4802 12.2248 34.3613 12.1147C36.0132 12.0046 37.445 12.5552 38.6564 13.7667C39.978 15.1984 40.8591 16.9605 41.5199 18.8328C41.8502 19.7138 42.0705 20.705 42.2908 21.6962C42.2908 21.8063 42.2908 22.0266 42.1806 22.1367C42.2908 22.0266 42.0705 22.0266 41.9604 22.0266Z" fill="url(#paint0_linear_2003_551)"/>
<path d="M46.5859 0H3.4141C1.54186 0 0 1.54186 0 3.4141V46.5859C0 48.4581 1.54186 50 3.4141 50H46.5859C48.4582 50 50 48.4581 50 46.5859V3.4141C50 1.54186 48.4582 0 46.5859 0ZM24.8899 46.1454C13.2159 46.1454 3.74449 36.674 3.74449 25C3.74449 13.326 13.2159 3.85463 24.8899 3.85463C36.5639 3.85463 46.0353 13.326 46.0353 25C46.1454 36.674 36.674 46.1454 24.8899 46.1454Z" fill="url(#paint1_linear_2003_551)"/>
<path d="M24.8898 19.2734C21.696 19.2734 19.0528 21.8065 19.0528 25.1104C19.0528 28.3043 21.696 30.8373 24.8898 30.8373C28.0836 30.8373 30.6167 28.1941 30.6167 25.0003C30.7268 21.8065 28.0836 19.2734 24.8898 19.2734ZM28.7444 25.2206C28.6343 27.2029 26.9823 28.8549 24.8898 28.8549C22.7973 28.8549 21.0352 27.203 21.0352 24.8902C21.0352 22.9078 22.7973 21.1457 24.8898 21.1457C27.2026 21.2558 28.8545 23.0179 28.7444 25.2206Z" fill="#0D0C1B"/>
<defs>
<linearGradient id="paint0_linear_2003_551" x1="7.35475" y1="25.0011" x2="42.5119" y2="25.0011" gradientUnits="userSpaceOnUse">
<stop offset="0.3408" stop-color="#A5A2A3"/>
<stop offset="0.933" stop-color="#F5F5F5"/>
</linearGradient>
<linearGradient id="paint1_linear_2003_551" x1="-0.0959251" y1="25.0009" x2="49.9624" y2="25.0009" gradientUnits="userSpaceOnUse">
<stop offset="0.3408" stop-color="#A5A2A3"/>
<stop offset="0.933" stop-color="#F5F5F5"/>
</linearGradient>
</defs>
</svg>
