<svg width="50" height="50" viewBox="0 0 50 50" fill="none" xmlns="http://www.w3.org/2000/svg">
<path d="M23.0342 33.6623C25.4233 33.6623 27.36 31.7256 27.36 29.3365C27.36 26.9475 25.4233 25.0108 23.0342 25.0108C20.6452 25.0108 18.7085 26.9475 18.7085 29.3365C18.7085 31.7256 20.6452 33.6623 23.0342 33.6623Z" stroke="white" stroke-width="2" stroke-miterlimit="10"/>
<path d="M21.1803 14.5054C14.012 15.4323 5.11328 19.4491 5.11328 29.3365C5.11328 37.988 12.2199 44.2913 20.2534 44.2913C20.7478 44.2913 22.6017 44.2295 23.0342 44.1677" stroke="white" stroke-miterlimit="10"/>
<path d="M20.4108 14.7043C13.0558 14.1021 1.41033 19.5216 2.02325 29.1562C2.57488 37.5865 9.07182 43.7286 17.0398 43.7286C17.5301 43.7286 19.3689 43.6684 19.7979 43.6082" stroke="white" stroke-width="2" stroke-miterlimit="10"/>
<path d="M30.5734 16.4211C30.5734 16.4211 39.1013 15.7413 36.0115 4" stroke="white" stroke-width="2" stroke-miterlimit="10" stroke-linecap="round"/>
<path d="M44.663 34.8982H26.7421V43.5497H44.663V34.8982Z" stroke="white" stroke-width="2" stroke-miterlimit="10" stroke-linecap="round"/>
<path d="M44.663 34.8982H36.753C37.4946 33.1679 37.8654 31.2522 37.8654 29.2129C37.8654 20.994 31.2532 14.3818 23.0343 14.3818C14.8153 14.3818 8.20312 20.994 8.20312 29.2129C8.20312 37.4318 14.8153 44.0441 23.0343 44.0441C24.332 44.0441 25.6297 43.8587 26.8038 43.5497H44.663V34.8982Z" stroke="white" stroke-width="2" stroke-miterlimit="10" stroke-linecap="round"/>
<path d="M25.1971 34.8982H46.6405" stroke="white" stroke-width="2" stroke-miterlimit="10" stroke-linecap="round"/>
<path d="M48 43.5497H44.663" stroke="white" stroke-width="2" stroke-miterlimit="10" stroke-linecap="round"/>
<path d="M26.7421 36.9993H40.9552" stroke="white" stroke-miterlimit="10" stroke-linecap="round"/>
<path d="M26.7421 39.8527H40.9552" stroke="white" stroke-miterlimit="10" stroke-linecap="round"/>
</svg>
