<svg width="50" height="50" viewBox="0 0 50 50" fill="none" xmlns="http://www.w3.org/2000/svg">
<path d="M39.5 38.25H12.5C9.7 38.25 7.5 36.05 7.5 33.25V16.25C7.5 13.45 9.7 11.25 12.5 11.25H20C21.6 11.25 23.1 12.05 24 13.25L25.9 15.85C26.6 16.75 27.6 17.25 28.7 17.25H39.5C42.3 17.25 44.5 19.45 44.5 22.25V33.25C44.5 36.05 42.3 38.25 39.5 38.25ZM12.5 13.25C10.8 13.25 9.5 14.55 9.5 16.25V33.25C9.5 34.95 10.8 36.25 12.5 36.25H39.5C41.2 36.25 42.5 34.95 42.5 33.25V22.25C42.5 20.55 41.2 19.25 39.5 19.25H28.7C27 19.25 25.3 18.45 24.3 17.05L22.4 14.45C21.8 13.75 20.9 13.25 20 13.25H12.5Z" fill="white"/>
<path d="M41.2 18.45H39.8C39.8 16.65 38.3 15.15 36.5 15.15H23.4V13.75H36.5C39.1 13.75 41.2 15.85 41.2 18.45Z" fill="white"/>
</svg>
