<svg width="50" height="50" viewBox="0 0 50 50" fill="none" xmlns="http://www.w3.org/2000/svg">
<path d="M39.5 38.25H12.5C9.7 38.25 7.5 36.05 7.5 33.25V16.25C7.5 13.45 9.7 11.25 12.5 11.25H20C21.6 11.25 23.1 12.05 24 13.25L25.9 15.85C26.6 16.75 27.6 17.25 28.7 17.25H39.5C42.3 17.25 44.5 19.45 44.5 22.25V33.25C44.5 36.05 42.3 38.25 39.5 38.25Z" fill="url(#paint0_linear_310_866)"/>
<path d="M41.2 18.45H39.8C39.8 16.65 38.3 15.15 36.5 15.15H23.4V13.75H36.5C39.1 13.75 41.2 15.85 41.2 18.45Z" fill="url(#paint1_linear_310_866)"/>
<defs>
<linearGradient id="paint0_linear_310_866" x1="7.54744" y1="24.7529" x2="44.4902" y2="24.7529" gradientUnits="userSpaceOnUse">
<stop offset="0.34" stop-color="#A5A2A3"/>
<stop offset="0.93" stop-color="#F5F5F5"/>
</linearGradient>
<linearGradient id="paint1_linear_310_866" x1="23.4228" y1="16.1005" x2="41.1953" y2="16.1005" gradientUnits="userSpaceOnUse">
<stop offset="0.34" stop-color="#A5A2A3"/>
<stop offset="0.93" stop-color="#F5F5F5"/>
</linearGradient>
</defs>
</svg>
