<svg width="43" height="40" viewBox="0 0 43 40" fill="none" xmlns="http://www.w3.org/2000/svg">
<path d="M36.6443 40H5.63758C2.53691 40 0 37.5839 0 34.6309V5.36913C0 2.41611 2.53691 0 5.63758 0H36.6443C39.745 0 42.2819 2.41611 42.2819 5.36913V34.6309C42.2819 37.5839 39.745 40 36.6443 40Z" fill="url(#paint0_linear_71_437)"/>
<path d="M33.988 20.3881H18.148C17.716 19.3081 16.636 18.5161 15.34 18.5161C14.044 18.5161 12.964 19.3081 12.532 20.3881H12.46H9.652C9.004 20.3881 8.5 20.8921 8.5 21.4681C8.5 22.0441 9.004 22.5481 9.652 22.5481H12.46H12.532C12.964 23.6281 14.044 24.4201 15.268 24.4201C16.492 24.4201 17.572 23.6281 18.004 22.5481H33.844C34.492 22.5481 34.924 22.0441 34.924 21.4681C35.068 20.8921 34.564 20.3881 33.988 20.3881ZM15.34 22.6921C14.692 22.6921 14.116 22.1881 14.116 21.4681C14.116 20.8201 14.62 20.2441 15.34 20.2441C15.988 20.2441 16.564 20.7481 16.564 21.4681C16.564 22.1161 15.988 22.6921 15.34 22.6921Z" fill="#020202"/>
<path d="M34.06 30.6122H32.404C31.972 29.5322 30.892 28.7402 29.668 28.7402C28.444 28.7402 27.364 29.5322 26.932 30.6122H9.58C8.932 30.6122 8.5 31.1162 8.5 31.6922C8.5 32.3402 9.004 32.7722 9.58 32.7722H26.86C27.292 33.8522 28.372 34.6442 29.596 34.6442C30.82 34.6442 31.9 33.8522 32.332 32.7722H34.06C34.708 32.7722 35.14 32.2682 35.14 31.6922C35.14 31.1162 34.636 30.6122 34.06 30.6122ZM29.596 32.9162C28.948 32.9162 28.372 32.4122 28.372 31.6922C28.372 31.0442 28.876 30.4682 29.596 30.4682C30.316 30.4682 30.82 30.9722 30.82 31.6922C30.82 32.4122 30.316 32.9162 29.596 32.9162Z" fill="#020202"/>
<path d="M34.06 9.516H27.724C27.292 8.364 26.212 7.5 24.916 7.5C23.62 7.5 22.54 8.364 22.108 9.516H9.58C8.932 9.516 8.5 10.02 8.5 10.596C8.5 11.244 9.004 11.748 9.58 11.748H22.036H22.108C22.612 12.756 23.62 13.476 24.844 13.476C26.068 13.476 27.076 12.756 27.58 11.676H27.652H34.06C34.708 11.676 35.14 11.172 35.14 10.524C35.14 10.02 34.636 9.516 34.06 9.516ZM24.844 11.676C24.196 11.676 23.62 11.172 23.62 10.452C23.62 9.804 24.124 9.228 24.844 9.228C25.492 9.228 26.068 9.732 26.068 10.452C26.068 11.172 25.564 11.676 24.844 11.676Z" fill="#020202"/>
<defs>
<linearGradient id="paint0_linear_71_437" x1="21" y1="40.4762" x2="21" y2="-0.952381" gradientUnits="userSpaceOnUse">
<stop offset="0.34" stop-color="#A5A2A3"/>
<stop offset="0.93" stop-color="#F5F5F5"/>
</linearGradient>
</defs>
</svg>
