<svg width="39" height="37" viewBox="0 0 39 37" fill="none" xmlns="http://www.w3.org/2000/svg">
<rect x="10.7913" y="4.90674" width="17.1082" height="9.81308" rx="1" fill="url(#paint0_linear_58_915)"/>
<rect x="8.1593" width="22.3723" height="8.17757" rx="2" fill="url(#paint1_linear_58_915)"/>
<rect x="5.52728" y="11.4487" width="27.6364" height="11.4486" rx="1" fill="url(#paint2_linear_58_915)"/>
<path d="M19.4588 31.7465L23.8964 21.8219L14.7801 22.0479L19.4588 31.7465Z" fill="url(#paint3_linear_58_915)"/>
<path d="M0.690918 26.8423C0.690918 26.1885 1.30795 25.7106 1.94095 25.8741L19.4409 30.3932C19.6049 30.4356 19.777 30.4356 19.941 30.3932L37.4409 25.8741C38.0739 25.7106 38.6909 26.1885 38.6909 26.8423V35.9999C38.6909 36.5522 38.2432 36.9999 37.6909 36.9999H1.69092C1.13863 36.9999 0.690918 36.5522 0.690918 35.9999V26.8423Z" fill="url(#paint4_linear_58_915)"/>
<defs>
<linearGradient id="paint0_linear_58_915" x1="19.3454" y1="4.90674" x2="19.3454" y2="14.7198" gradientUnits="userSpaceOnUse">
<stop offset="0.34" stop-color="#D9D9D9"/>
<stop offset="0.93" stop-color="#737373"/>
</linearGradient>
<linearGradient id="paint1_linear_58_915" x1="19.3454" y1="0" x2="19.3454" y2="8.17757" gradientUnits="userSpaceOnUse">
<stop offset="0.34" stop-color="#D9D9D9"/>
<stop offset="0.93" stop-color="#737373"/>
</linearGradient>
<linearGradient id="paint2_linear_58_915" x1="19.3455" y1="11.4487" x2="19.3455" y2="22.8973" gradientUnits="userSpaceOnUse">
<stop offset="0.34" stop-color="#D9D9D9"/>
<stop offset="0.93" stop-color="#737373"/>
</linearGradient>
<linearGradient id="paint3_linear_58_915" x1="19.4588" y1="31.7465" x2="19.1346" y2="18.6684" gradientUnits="userSpaceOnUse">
<stop offset="0.34" stop-color="#D9D9D9"/>
<stop offset="0.93" stop-color="#737373"/>
</linearGradient>
<linearGradient id="paint4_linear_58_915" x1="19.6909" y1="25.5513" x2="19.6909" y2="36.9999" gradientUnits="userSpaceOnUse">
<stop offset="0.34" stop-color="#D9D9D9"/>
<stop offset="0.93" stop-color="#737373"/>
</linearGradient>
</defs>
</svg>
