<svg width="54" height="54" viewBox="0 0 54 54" fill="none" xmlns="http://www.w3.org/2000/svg">
<path d="M28.8907 31.5229C27.1764 31.5229 26.3322 32.8087 26.3322 34.7372C26.3322 36.8929 27.1893 37.9515 28.8907 37.9515C30.5922 37.9515 31.4493 36.8801 31.4493 34.7372C31.2586 32.8022 30.62 31.7351 28.8907 31.5229Z" fill="#F08300"/>
<path d="M36.2857 11.7442C36.099 14.1915 35.5509 16.5976 34.6593 18.8842C32.6939 17.0221 31.1231 14.7837 30.0404 12.3021C28.9577 9.82052 28.3853 7.14653 28.3571 4.43921C21.6479 8.92849 16.1664 16.3492 17.3193 25.4992C15.8879 24.0914 13.1429 22.3299 12.3307 19.5999C9.92299 22.3399 8.48819 25.7987 8.24947 29.4384C8.01075 33.0781 8.98149 36.6947 11.0107 39.7256C11.4871 40.4976 12.0314 41.2255 12.6371 41.9006C14.4938 44.0786 16.8197 45.8078 19.4402 46.9583C22.0608 48.1088 24.9079 48.6507 27.7679 48.5435C32.5443 48.637 37.2008 47.0436 40.9186 44.0435C43.4327 41.9971 45.2523 39.2232 46.1279 36.1021C47.2603 31.5228 46.9185 26.703 45.1513 22.3293C43.384 17.9557 40.2815 14.2513 36.2857 11.7442ZM20.3407 39.8821V35.8106H16.055V39.8821H13.7107V29.7935H16.055V33.8649H20.555V29.7935H22.8993V39.8821H20.3407ZM28.8907 40.0964C25.6764 39.8821 23.9621 38.1549 23.7479 34.9342C23.9621 31.5056 25.6764 29.7721 28.8907 29.5578C32.105 29.7721 33.605 31.4992 33.8193 34.9342C33.8171 38.1785 32.1114 39.8821 28.8907 40.0964ZM43.6764 31.7392H40.4621V40.1221H38.1029V31.7349H34.8886V29.7935H43.6743L43.6764 31.7392Z" fill="#F08300"/>
</svg>
