<svg width="64" height="64" viewBox="0 0 64 64" fill="none" xmlns="http://www.w3.org/2000/svg">
<g clip-path="url(#clip0_1_124)">
<path d="M32.25 5.35502L6.87 14.7664V47.6293L32.25 58.8922L57.63 47.6293V14.8436L32.25 5.35502Z" fill="url(#paint0_radial_1_124)"/>
<path d="M32.25 5.35502L6.87 14.7664V47.6293L32.25 58.8922L57.63 47.6293V14.8436L32.25 5.35502Z" fill="url(#paint1_radial_1_124)"/>
<path d="M32.25 5.35502L6.87 14.7664V47.6293L32.25 58.8922L57.63 47.6293V14.8436L32.25 5.35502Z" fill="url(#paint2_radial_1_124)"/>
<path opacity="0.3" d="M29.2414 57.3493L11.4986 49.635C8.72143 48.4007 6.87 45.6236 6.87 42.5379V18.5464C6.87 17.4664 8.02714 16.695 9.03 17.1579L30.4757 26.4922C31.0157 26.7236 31.4014 27.2636 31.4014 27.8807V55.9607C31.4014 57.0407 30.2443 57.8122 29.2414 57.3493Z" fill="url(#paint3_linear_1_124)"/>
<path opacity="0.7" d="M54.0814 16.3864L32.8671 25.335C32.4814 25.4893 32.0186 25.4893 31.6329 25.335L10.4186 16.3093C9.10714 15.7693 9.18428 13.9179 10.4957 13.455L29.55 6.35787C31.3243 5.74073 33.1757 5.74073 34.95 6.35787L54.0043 13.455C55.3157 13.995 55.3157 15.8464 54.0814 16.3864Z" fill="url(#paint4_linear_1_124)"/>
<path opacity="0.5" d="M35.2586 57.3493L53.0014 49.635C55.7786 48.4007 57.63 45.6236 57.63 42.5379V18.5464C57.63 17.4664 56.4729 16.695 55.47 17.1579L34.0243 26.4922C33.4843 26.7236 33.0986 27.2636 33.0986 27.8807V55.9607C33.0986 57.0407 34.2557 57.8122 35.2586 57.3493Z" fill="url(#paint5_linear_1_124)"/>
</g>
<defs>
<radialGradient id="paint0_radial_1_124" cx="0" cy="0" r="1" gradientUnits="userSpaceOnUse" gradientTransform="translate(32.25 32.1236) rotate(-90) scale(26.7686 25.38)">
<stop stop-color="#BA0000"/>
<stop offset="1" stop-color="#BA0000" stop-opacity="0"/>
</radialGradient>
<radialGradient id="paint1_radial_1_124" cx="0" cy="0" r="1" gradientUnits="userSpaceOnUse" gradientTransform="translate(32.25 32.1236) rotate(-90) scale(26.7686 25.38)">
<stop stop-color="#BA0000"/>
<stop offset="1" stop-color="#BA0000" stop-opacity="0"/>
</radialGradient>
<radialGradient id="paint2_radial_1_124" cx="0" cy="0" r="1" gradientUnits="userSpaceOnUse" gradientTransform="translate(32.25 32.1236) rotate(-90) scale(26.7686 25.38)">
<stop stop-color="#BA0000"/>
<stop offset="1" stop-color="#BA0000" stop-opacity="0"/>
</radialGradient>
<linearGradient id="paint3_linear_1_124" x1="-664.929" y1="41.1314" x2="-121.843" y2="38.0457" gradientUnits="userSpaceOnUse">
<stop offset="0.3408" stop-color="#A5A2A3"/>
<stop offset="0.933" stop-color="#F5F5F5"/>
</linearGradient>
<linearGradient id="paint4_linear_1_124" x1="-665.051" y1="19.6156" x2="-121.965" y2="16.5299" gradientUnits="userSpaceOnUse">
<stop offset="0.3408" stop-color="#A5A2A3"/>
<stop offset="0.933" stop-color="#F5F5F5"/>
</linearGradient>
<linearGradient id="paint5_linear_1_124" x1="-664.928" y1="41.2805" x2="-121.842" y2="38.1947" gradientUnits="userSpaceOnUse">
<stop offset="0.3408" stop-color="#A5A2A3"/>
<stop offset="0.933" stop-color="#F5F5F5"/>
</linearGradient>
<clipPath id="clip0_1_124">
<rect width="54" height="54" fill="white" transform="matrix(1 0 0 -1 5.25 59.1236)"/>
</clipPath>
</defs>
</svg>
