<svg width="24" height="24" viewBox="0 0 24 24" fill="none" xmlns="http://www.w3.org/2000/svg">
<path d="M2.40002 21.4679V23.1719C2.40002 23.2979 2.50202 23.3999 2.62802 23.3999H21.264C21.3245 23.3999 21.3825 23.3759 21.4252 23.3331C21.468 23.2903 21.492 23.2323 21.492 23.1719V21.4679C21.492 21.4074 21.468 21.3494 21.4252 21.3067C21.3825 21.2639 21.3245 21.2399 21.264 21.2399H2.62802C2.56755 21.2399 2.50956 21.2639 2.4668 21.3067C2.42405 21.3494 2.40002 21.4074 2.40002 21.4679ZM2.40002 0.899875V2.60387C2.40002 2.72987 2.50202 2.83188 2.62802 2.83188H21.264C21.3245 2.83188 21.3825 2.80785 21.4252 2.7651C21.468 2.72234 21.492 2.66434 21.492 2.60387V0.899875C21.492 0.839406 21.468 0.781413 21.4252 0.738655C21.3825 0.695896 21.3245 0.671875 21.264 0.671875H2.62802C2.56755 0.671875 2.50956 0.695896 2.4668 0.738655C2.42405 0.781413 2.40002 0.839406 2.40002 0.899875Z" fill="#666666"/>
<path d="M11.7264 4.27211L8.86559 7.89731C8.84165 7.92762 8.82674 7.96408 8.8226 8.00248C8.81845 8.04089 8.82523 8.07969 8.84215 8.11441C8.85908 8.14914 8.88546 8.17838 8.91826 8.19877C8.95107 8.21917 8.98897 8.22989 9.02759 8.22971H10.9236V15.8437H9.13799C9.09956 15.844 9.06196 15.855 9.02944 15.8755C8.99692 15.896 8.97077 15.9251 8.95393 15.9597C8.93709 15.9942 8.93023 16.0328 8.93413 16.071C8.93803 16.1093 8.95253 16.1457 8.97599 16.1761L11.8392 19.8001C11.8582 19.8245 11.8824 19.8443 11.9102 19.8579C11.938 19.8715 11.9685 19.8786 11.9994 19.8786C12.0303 19.8786 12.0608 19.8715 12.0886 19.8579C12.1163 19.8443 12.1406 19.8245 12.1596 19.8001L15.024 16.1785C15.0479 16.1482 15.0628 16.1117 15.067 16.0733C15.0711 16.0349 15.0644 15.9961 15.0474 15.9614C15.0305 15.9267 15.0041 15.8974 14.9713 15.877C14.9385 15.8566 14.9006 15.8459 14.862 15.8461H12.966V8.23211H14.7516C14.79 8.23183 14.8276 8.22083 14.8601 8.20034C14.8927 8.17985 14.9188 8.15069 14.9357 8.11614C14.9525 8.08159 14.9594 8.04302 14.9555 8.00478C14.9516 7.96654 14.9371 7.93015 14.9136 7.89971L12.0504 4.27811C12.0317 4.25307 12.0075 4.23265 11.9797 4.21839C11.9518 4.20413 11.9211 4.19641 11.8899 4.19584C11.8586 4.19526 11.8276 4.20183 11.7993 4.21505C11.771 4.22827 11.746 4.24778 11.7264 4.27211Z" fill="#8D97D8"/>
</svg>
