<svg width="70" height="70" viewBox="0 0 70 70" fill="none" xmlns="http://www.w3.org/2000/svg">
<path fill-rule="evenodd" clip-rule="evenodd" d="M28 32.675L20.825 32.675L16.725 32.675C16.525 32.675 16.325 32.775 16.225 32.875C15.925 33.275 15.925 33.575 16.225 33.875L33.525 50.775C33.825 51.075 34.225 51.075 34.525 50.775L51.925 33.875C52.225 33.575 52.225 33.175 51.925 32.875C51.825 32.775 51.625 32.675 51.525 32.675L40 32.675L40 8L28 8L28 32.675Z" fill="url(#paint0_linear_23_853)"/>
<circle cx="34" cy="59" r="4" transform="rotate(-90 34 59)" fill="white"/>
<path fill-rule="evenodd" clip-rule="evenodd" d="M9 58L9 22L23 22L23 20L9 20L7 20L7 22L7 58L7 60L9 60L59 60L61 60L61 58L61 22L61 20L59 20L43 20L43 22L59 22L59 58L9 58Z" fill="white"/>
<defs>
<linearGradient id="paint0_linear_23_853" x1="34.0789" y1="50.9449" x2="34.0789" y2="8.01137" gradientUnits="userSpaceOnUse">
<stop offset="0.34" stop-color="#A5A2A3"/>
<stop offset="0.93" stop-color="#F5F5F5"/>
</linearGradient>
</defs>
</svg>
