<svg width="53" height="50" viewBox="0 0 53 50" fill="none" xmlns="http://www.w3.org/2000/svg">
<path d="M44.3 50H32.3999C31.8999 50 31.3999 49.6 31.3999 49V32.6H21.5V49C21.5 49.5 21.1 50 20.5 50H8.59996C8.29996 50 8.09995 49.9 7.89995 49.7C7.69995 49.5 7.59996 49.3 7.59996 49V26H1.59996C1.39996 26 1.19995 25.9 0.999951 25.7C0.599951 25.3 0.599951 24.7 0.999951 24.3L25.6999 0.3C26.0999 -0.1 26.7 -0.1 27.1 0.3L51.7999 24.3C52.1999 24.7 52.1999 25.2 51.7999 25.7C51.5999 25.9 51.4 26 51.1 26H45.3V49C45.3 49.6 44.8 50 44.3 50Z" fill="url(#paint0_linear_20_613)"/>
<defs>
<linearGradient id="paint0_linear_20_613" x1="26" y1="50" x2="26" y2="-1.27983e-07" gradientUnits="userSpaceOnUse">
<stop offset="0.34" stop-color="#A5A2A3"/>
<stop offset="0.93" stop-color="#F5F5F5"/>
</linearGradient>
</defs>
</svg>
