<svg width="70" height="70" viewBox="0 0 70 70" fill="none" xmlns="http://www.w3.org/2000/svg">
<path fill-rule="evenodd" clip-rule="evenodd" d="M42 37.325L49.175 37.325L53.275 37.325C53.475 37.325 53.675 37.225 53.775 37.125C54.075 36.725 54.075 36.425 53.775 36.125L36.475 19.225C36.175 18.925 35.775 18.925 35.475 19.225L18.075 36.125C17.775 36.425 17.775 36.825 18.075 37.125C18.175 37.225 18.375 37.325 18.475 37.325L30 37.325L30 62L42 62L42 37.325Z" fill="url(#paint0_linear_23_872)"/>
<circle cx="36" cy="11" r="4" transform="rotate(90 36 11)" fill="white"/>
<rect x="57" y="13" width="42" height="4" transform="rotate(180 57 13)" stroke="white" stroke-width="2"/>
<defs>
<linearGradient id="paint0_linear_23_872" x1="36" y1="62" x2="36" y2="19" gradientUnits="userSpaceOnUse">
<stop offset="0.34" stop-color="#A5A2A3"/>
<stop offset="0.93" stop-color="#F5F5F5"/>
</linearGradient>
</defs>
</svg>
