<svg width="70" height="70" viewBox="0 0 70 70" fill="none" xmlns="http://www.w3.org/2000/svg">
<path fill-rule="evenodd" clip-rule="evenodd" d="M37.325 28V20.825V16.725C37.325 16.525 37.225 16.325 37.125 16.225C36.725 15.925 36.425 15.925 36.125 16.225L19.225 33.525C18.925 33.825 18.925 34.225 19.225 34.525L36.125 51.925C36.425 52.225 36.825 52.225 37.125 51.925C37.225 51.825 37.325 51.625 37.325 51.525V40H62V28H37.325Z" fill="url(#paint0_linear_23_852)"/>
<circle cx="11" cy="34" r="4" fill="white"/>
<path fill-rule="evenodd" clip-rule="evenodd" d="M12 9H48V23H50V9V7H48H12H10V9V59V61H12H48H50V59V43H48V59H12V9Z" fill="white"/>
<defs>
<linearGradient id="paint0_linear_23_852" x1="35.5" y1="52" x2="35.5" y2="16" gradientUnits="userSpaceOnUse">
<stop offset="0.34" stop-color="#A5A2A3"/>
<stop offset="0.93" stop-color="#F5F5F5"/>
</linearGradient>
</defs>
</svg>
