<svg width="42" height="40" viewBox="0 0 42 40" fill="none" xmlns="http://www.w3.org/2000/svg">
<path fill-rule="evenodd" clip-rule="evenodd" d="M0 3.18017C0 2.0756 0.895431 1.18018 2 1.18018H15.9718C17.0764 1.18018 17.9718 2.07561 17.9718 3.18018V17.152C17.9718 18.2566 17.0764 19.152 15.9718 19.152H2C0.895429 19.152 0 18.2566 0 17.152V3.18017ZM0 24.0283C0 22.9237 0.895431 22.0283 2 22.0283H15.9718C17.0764 22.0283 17.9718 22.9237 17.9718 24.0283V38.0001C17.9718 39.1047 17.0764 40.0001 15.9718 40.0001H2C0.895429 40.0001 0 39.1047 0 38.0001V24.0283ZM22.9522 22.0283C21.8476 22.0283 20.9522 22.9237 20.9522 24.0283V38.0001C20.9522 39.1047 21.8476 40.0001 22.9522 40.0001H36.9241C38.0286 40.0001 38.9241 39.1047 38.9241 38.0001V24.0283C38.9241 22.9237 38.0286 22.0283 36.9241 22.0283H22.9522Z" fill="url(#paint0_linear_56_1580)"/>
<rect x="20.7197" y="10.1665" width="14.3775" height="14.3775" rx="2" transform="rotate(-45 20.7197 10.1665)" fill="url(#paint1_linear_56_1580)"/>
<defs>
<linearGradient id="paint0_linear_56_1580" x1="1.90475" y1="39.9996" x2="36.6664" y2="9.52367" gradientUnits="userSpaceOnUse">
<stop offset="0.34" stop-color="#A5A2A3"/>
<stop offset="0.93" stop-color="#F5F5F5"/>
</linearGradient>
<linearGradient id="paint1_linear_56_1580" x1="20.7381" y1="17.3568" x2="35.0933" y2="17.3568" gradientUnits="userSpaceOnUse">
<stop stop-color="#888888"/>
<stop offset="0.93" stop-color="#ADADAD"/>
</linearGradient>
</defs>
</svg>
