<svg width="48" height="39" viewBox="0 0 48 39" fill="none" xmlns="http://www.w3.org/2000/svg">
<path d="M32 -2.62268e-07C35.3137 -1.17422e-07 38 2.68629 38 6L38 33C38 36.3137 35.3137 39 32 39L16 39C12.6863 39 10 36.3137 10 33L10 6C10 2.68629 12.6863 -1.1065e-06 16 -9.6165e-07L32 -2.62268e-07Z" fill="url(#paint0_linear_8_2725)"/>
<path d="M6 13L6 28" stroke="url(#paint1_linear_8_2725)" stroke-width="2" stroke-linecap="round"/>
<path d="M42 13L42 28" stroke="url(#paint2_linear_8_2725)" stroke-width="2" stroke-linecap="round"/>
<path d="M1 17L1 25" stroke="url(#paint3_linear_8_2725)" stroke-width="2" stroke-linecap="round"/>
<path d="M47 17L47 25" stroke="url(#paint4_linear_8_2725)" stroke-width="2" stroke-linecap="round"/>
<defs>
<linearGradient id="paint0_linear_8_2725" x1="20.3704" y1="41.1081" x2="20.3704" y2="-2.10811" gradientUnits="userSpaceOnUse">
<stop offset="0.34" stop-color="#A5A2A3"/>
<stop offset="0.93" stop-color="#F5F5F5"/>
</linearGradient>
<linearGradient id="paint1_linear_8_2725" x1="5.5" y1="29" x2="6" y2="12" gradientUnits="userSpaceOnUse">
<stop offset="0.34" stop-color="#A5A2A3"/>
<stop offset="0.93" stop-color="#F5F5F5"/>
</linearGradient>
<linearGradient id="paint2_linear_8_2725" x1="41.5" y1="29" x2="42" y2="12" gradientUnits="userSpaceOnUse">
<stop offset="0.34" stop-color="#A5A2A3"/>
<stop offset="0.93" stop-color="#F5F5F5"/>
</linearGradient>
<linearGradient id="paint3_linear_8_2725" x1="1" y1="26" x2="1" y2="16.5" gradientUnits="userSpaceOnUse">
<stop offset="0.34" stop-color="#A5A2A3"/>
<stop offset="0.93" stop-color="#F5F5F5"/>
</linearGradient>
<linearGradient id="paint4_linear_8_2725" x1="47" y1="26" x2="47" y2="16.5" gradientUnits="userSpaceOnUse">
<stop offset="0.34" stop-color="#A5A2A3"/>
<stop offset="0.93" stop-color="#F5F5F5"/>
</linearGradient>
</defs>
</svg>
