<svg width="140" height="24" viewBox="0 0 140 24" fill="none" xmlns="http://www.w3.org/2000/svg">
<path d="M18.6423 22.9932H10.611C7.31134 22.9932 4.75848 22.137 2.95879 20.4182C0.987848 18.5519 0 15.7247 0 11.9255C0 8.23576 0.746833 5.40858 2.23415 3.45985C3.99579 1.15434 6.82931 0.00158718 10.7379 0.00158718H18.6423V3.82295H10.8029C8.6068 3.82295 7.05923 4.61418 6.15859 6.19506C5.47835 7.40331 5.13744 9.17129 5.13744 11.499C5.11524 11.9604 5.10414 12.333 5.10414 12.6248C5.10414 14.4689 5.37846 15.8626 5.92708 16.8077C6.80552 18.3394 8.43079 19.1084 10.8013 19.1084H18.6407V22.9932H18.6423ZM33.7184 13.1132H29.6338V11.8288C29.6338 10.7744 29.5355 10.0941 29.3373 9.78016C29.1185 9.47889 28.6951 9.32509 28.0799 9.32509C28.0133 9.30289 27.8928 9.29179 27.7168 9.29179C27.5186 9.29179 27.3648 9.29179 27.2617 9.29179C26.9763 9.29179 26.7464 9.29179 26.5704 9.29179C26.3896 9.29179 26.2136 9.30289 26.0376 9.32509V22.9948H21.7612V6.16175H29.1344C30.8532 6.16175 32.0154 6.45827 32.6307 7.04495C33.3553 7.74739 33.7168 9.07614 33.7168 11.036L33.7184 13.1132ZM50.4024 22.9932H44.0076C41.2628 22.9932 39.1762 22.2353 37.7554 20.721C36.3284 19.2051 35.6148 17.1518 35.6148 14.5561C35.6148 11.2231 36.636 8.87477 38.6783 7.51271C40.0181 6.61208 41.7956 6.16175 44.0092 6.16175H50.404V9.55976H44.6069C43.0863 9.55976 42.0271 9.78968 41.4119 10.2511C40.7967 10.7284 40.4891 11.602 40.4891 12.869H50.404V16.3336H40.424C40.424 17.5624 40.7095 18.4187 41.2755 18.9023C41.8305 19.3859 42.9278 19.6269 44.5752 19.6269H50.4056V22.9932H50.4024ZM69.3935 22.9932H57.5964C55.9711 22.9932 54.709 22.554 53.8083 21.6756C52.9077 20.7971 52.4574 19.5889 52.4574 18.0476C52.4574 16.1861 52.9838 14.8478 54.0446 14.0407C55.099 13.2448 56.7782 12.8499 59.0837 12.8499H62.2835V16.0783H59.7418C58.8364 16.0783 58.199 16.1655 57.8263 16.3367C57.2777 16.6047 57.0034 17.1327 57.0034 17.9176C57.0034 18.555 57.2127 19.0149 57.6297 19.2955C58.042 19.5809 58.6398 19.7236 59.4088 19.7236H64.9807V16.0783V12.8499C64.9807 11.5814 64.7032 10.7173 64.1514 10.2543C63.6059 9.79602 62.542 9.56293 60.9611 9.56293H53.5832V6.16493H62.5753C64.3766 6.16493 65.7481 6.41704 66.6932 6.92286C68.4945 7.88375 69.3935 9.72784 69.3935 12.4567V22.9932ZM83.7657 22.9932H79.819C78.2159 22.9932 76.976 22.5318 76.0975 21.6105C75.1969 20.7099 74.7466 19.4414 74.7466 17.7955V9.4345H71.6831V6.16334H74.7466V0.00317436H79.0611V6.16334H83.7657V9.4345H79.0611V16.3352C79.0611 17.285 79.2149 18.0651 79.5273 18.674C79.8127 19.2892 80.2899 19.5968 80.9702 19.5968H83.7641V22.9932H83.7657ZM106.94 16.5984C106.94 18.6248 106.523 20.1058 105.689 21.0508C104.547 22.3463 102.422 22.9948 99.3254 22.9948H86.8148V16.1687H91.5305V19.0022H98.5405C99.5728 19.0022 100.362 18.8151 100.913 18.4472C101.55 18.008 101.869 17.2834 101.869 16.267C101.869 14.407 100.792 13.4731 98.6357 13.4731H96.2525H86.8164V6.75319H91.5321V9.44876H98.4771C99.5316 9.44876 100.321 9.27276 100.849 8.92709C101.487 8.48787 101.804 7.77435 101.804 6.79125C101.804 4.96937 100.727 4.05762 98.5707 4.05762H96.2541H91.5337H86.818V0H98.5104C101.168 0 103.099 0.340911 104.307 1.02115C106.015 1.98679 106.871 3.74367 106.871 6.29019C106.871 7.4921 106.608 8.47995 106.08 9.25532C105.559 10.0465 104.664 10.787 103.412 11.4895C104.663 12.0873 105.568 12.7691 106.112 13.5318C106.665 14.3087 106.94 15.3299 106.94 16.5984ZM126.852 14.5561C126.852 17.2406 126.061 19.3701 124.48 20.9509C122.877 22.554 120.725 23.3547 118.025 23.3547C115.345 23.3547 113.204 22.5746 111.601 21.0159C109.994 19.4573 109.191 17.2992 109.191 14.5545C109.191 11.2659 110.257 8.88429 112.391 7.40648C113.901 6.35838 115.778 5.83036 118.023 5.83036C120.175 5.83036 122.03 6.37898 123.584 7.47783C125.764 9.01747 126.852 11.3721 126.852 14.5561ZM122.373 14.6274C122.373 13.1338 122.011 11.9208 121.286 10.9773C120.49 9.94031 119.414 9.4234 118.053 9.4234C116.977 9.4234 116.022 9.82932 115.188 10.6475C114.178 11.6132 113.672 12.9372 113.672 14.6274C113.672 15.9673 114.046 17.1359 114.792 18.1237C115.621 19.2384 116.685 19.7982 117.987 19.7982C119.327 19.7982 120.419 19.2606 121.253 18.1903C121.998 17.2247 122.373 16.0386 122.373 14.6274ZM140 22.9932H136.053C134.45 22.9932 133.21 22.5318 132.332 21.6105C131.431 20.7099 130.981 19.4414 130.981 17.7955V9.4345H127.918V6.16334H130.981V0.00317436H135.295V6.16334H140V9.4345H135.295V16.3352C135.295 17.285 135.449 18.0651 135.762 18.674C136.047 19.2892 136.524 19.5968 137.206 19.5968H140V22.9932Z" fill="#1D8CC6"/>
</svg>
