<svg width="53" height="55" viewBox="0 0 53 55" fill="none" xmlns="http://www.w3.org/2000/svg">
<path fill-rule="evenodd" clip-rule="evenodd" d="M26.1498 11.4321C30.377 11.4321 34.3888 13.0476 37.3775 15.9555C40.393 18.8903 42.0355 22.7675 42.0085 26.9409C42.0085 29.6872 41.2546 32.4067 39.8276 34.776C38.4275 37.0647 36.4351 38.9763 34.0657 40.3226L33.231 40.8072V44.6306H19.0147V40.7803L18.18 40.2957C15.8106 38.9763 13.8451 37.0377 12.445 34.7491C11.018 32.3797 10.2641 29.6872 10.2641 26.914C10.2641 22.7675 11.9065 18.8903 14.9221 15.9555C17.9107 13.0476 21.9225 11.4321 26.1498 11.4321ZM20.0647 51.3895C19.4993 51.3895 19.0147 50.9318 19.0147 50.3663V46.4891H33.2041V50.3663C33.2041 50.9318 32.7464 51.3895 32.154 51.3895H20.0647Z" fill="url(#paint0_linear_71_425)"/>
<path d="M20.2801 53.5H31.9924" stroke="url(#paint1_linear_71_425)" stroke-width="2" stroke-miterlimit="10" stroke-linecap="round"/>
<path d="M7.34272 12.0169L4.42137 9.67977M26.6236 6.17416V1.5M42.9832 13.1854L46.4888 9.67977" stroke="white" stroke-width="2" stroke-linecap="round"/>
<path d="M6.17416 28.3763H1.5M45.9045 27.792H51.7472" stroke="white" stroke-width="2" stroke-linecap="round"/>
<path d="M30.1292 18.4443C32.4663 18.8338 37.2573 21.2488 37.7247 27.7927" stroke="#191827" stroke-width="2" stroke-linecap="round"/>
<defs>
<linearGradient id="paint0_linear_71_425" x1="26.6236" y1="54.0847" x2="26.6236" y2="10.8479" gradientUnits="userSpaceOnUse">
<stop offset="0.34" stop-color="#A5A2A3"/>
<stop offset="0.93" stop-color="#F5F5F5"/>
</linearGradient>
<linearGradient id="paint1_linear_71_425" x1="20.2951" y1="54.0001" x2="31.9893" y2="54.0001" gradientUnits="userSpaceOnUse">
<stop offset="0.34" stop-color="#A5A2A3"/>
<stop offset="0.93" stop-color="#F5F5F5"/>
</linearGradient>
</defs>
</svg>
