<svg width="50" height="50" viewBox="0 0 50 50" fill="none" xmlns="http://www.w3.org/2000/svg">
<path d="M38.25 44.8628H11.25C8.45 44.8628 6.25 42.6628 6.25 39.8628V22.4628C6.25 20.9628 6.95 19.5628 8.05 18.5628L21.85 7.3628C23.75 5.8628 26.45 5.8628 28.25 7.4628L41.45 18.6628C42.55 19.6628 43.25 20.9628 43.25 22.4628V39.8628C43.25 42.6628 41.05 44.8628 38.25 44.8628ZM25.05 8.2628C24.35 8.2628 23.75 8.4628 23.15 8.9628L9.35 20.1628C8.65 20.7628 8.25 21.5628 8.25 22.4628V39.8628C8.25 41.5628 9.55 42.8628 11.25 42.8628H38.25C39.95 42.8628 41.25 41.5628 41.25 39.8628V22.4628C41.25 21.5628 40.85 20.7628 40.15 20.1628L26.95 8.9628C26.35 8.4628 25.65 8.2628 25.05 8.2628Z" fill="white"/>
<mask id="path-2-inside-1_7_1529" fill="white">
<path d="M31.25 38.0628H18.25C17.75 38.0628 17.25 37.5628 17.25 37.0628C17.25 36.5628 17.65 36.0628 18.25 36.0628H31.25C31.75 36.0628 32.25 36.5628 32.25 37.0628C32.25 37.5628 31.85 38.0628 31.25 38.0628Z"/>
</mask>
<path d="M31.25 38.0628H18.25C17.75 38.0628 17.25 37.5628 17.25 37.0628C17.25 36.5628 17.65 36.0628 18.25 36.0628H31.25C31.75 36.0628 32.25 36.5628 32.25 37.0628C32.25 37.5628 31.85 38.0628 31.25 38.0628Z" fill="white"/>
<path d="M31.25 36.0628H18.25V40.0628H31.25V36.0628ZM18.25 36.0628C18.6505 36.0628 18.8835 36.2429 18.9767 36.3361C19.0699 36.4293 19.25 36.6623 19.25 37.0628H15.25C15.25 37.9633 15.6801 38.6963 16.1483 39.1645C16.6165 39.6327 17.3495 40.0628 18.25 40.0628V36.0628ZM19.25 37.0628C19.25 37.3337 19.1478 37.5677 18.9871 37.7399C18.8077 37.9322 18.5384 38.0628 18.25 38.0628V34.0628C16.4177 34.0628 15.25 35.5904 15.25 37.0628H19.25ZM18.25 38.0628H31.25V34.0628H18.25V38.0628ZM31.25 38.0628C30.8495 38.0628 30.6165 37.8827 30.5233 37.7895C30.4301 37.6963 30.25 37.4633 30.25 37.0628H34.25C34.25 36.1623 33.8199 35.4293 33.3517 34.9611C32.8835 34.4929 32.1505 34.0628 31.25 34.0628V38.0628ZM30.25 37.0628C30.25 36.7919 30.3522 36.5579 30.5129 36.3857C30.6923 36.1934 30.9616 36.0628 31.25 36.0628V40.0628C33.0823 40.0628 34.25 38.5352 34.25 37.0628H30.25Z" fill="white" mask="url(#path-2-inside-1_7_1529)"/>
</svg>
