<svg width="46" height="46" viewBox="0 0 46 46" fill="none" xmlns="http://www.w3.org/2000/svg">
<path d="M38.9213 25.2346C35.2764 22.2503 31.6489 19.2489 28.0127 16.2532C26.341 14.8774 24.6694 13.5016 22.9949 12.1201C22.8485 12.2264 22.725 12.3126 22.6072 12.4073C17.3769 16.7214 12.1409 21.0325 6.92213 25.3609C6.7297 25.5218 6.5947 25.8693 6.59183 26.1307C6.57173 30.4993 6.5746 34.8708 6.58034 39.2394C6.58034 40.5951 7.29552 41.2959 8.66556 41.2959C12.0289 41.2987 15.3894 41.2959 18.7527 41.2959C18.9337 41.2959 19.1146 41.2758 19.3444 41.2614C19.3444 37.6108 19.3444 34.0091 19.3444 30.3815C21.7829 30.3815 24.1697 30.3815 26.6082 30.3815C26.6082 33.9976 26.6082 37.6022 26.6082 41.2987C26.8839 41.2987 27.0677 41.2987 27.2544 41.2987C30.5804 41.2987 33.9035 41.2987 37.2295 41.2987C38.7001 41.2987 39.3808 40.6152 39.3808 39.1302C39.3837 34.8363 39.3751 30.5424 39.3894 26.2513C39.3923 25.809 39.2631 25.5189 38.9213 25.2346Z" fill="url(#paint0_linear_2029_900)"/>
<path d="M45.3148 22.2732C43.6058 20.8515 41.9141 19.4096 40.1736 18.0281C39.5819 17.5599 39.355 17.0803 39.3636 16.3134C39.4096 12.8754 39.3866 9.43448 39.3837 5.99646C39.3837 5.16065 39.1195 4.82173 38.4186 4.81599C36.6321 4.80163 34.8456 4.80163 33.0591 4.81599C32.4301 4.82173 32.1257 5.13193 32.1027 5.77243C32.0797 6.34112 32.0941 6.91269 32.0941 7.48138C32.0941 8.69345 32.0941 9.90552 32.0941 11.2526C31.8068 11.0228 31.646 10.8964 31.488 10.7643C29.5062 9.10705 27.5244 7.44979 25.5397 5.79253C23.7963 4.34208 22.1678 4.3392 20.4215 5.79253C16.7853 8.81696 13.1519 11.8471 9.51574 14.8744C6.56887 17.3301 3.622 19.7887 0.672252 22.2445C-0.18079 22.9568 -0.209512 23.3158 0.517153 24.1775C0.933621 24.6715 1.34435 25.1684 1.76081 25.6624C2.38408 26.4005 2.7948 26.4379 3.53583 25.8175C8.42143 21.7418 13.307 17.6604 18.1955 13.5848C19.781 12.2607 21.3722 10.9366 22.9777 9.59819C24.5804 10.9338 26.1572 12.2464 27.7312 13.5589C32.6312 17.649 37.534 21.739 42.434 25.829C43.1664 26.4407 43.5742 26.3977 44.2032 25.6509C44.6312 25.1425 45.0563 24.6313 45.4842 24.1229C46.1535 23.3273 46.119 22.9424 45.3148 22.2732Z" fill="url(#paint1_linear_2029_900)"/>
<defs>
<linearGradient id="paint0_linear_2029_900" x1="22.9828" y1="12.1201" x2="22.9828" y2="41.2987" gradientUnits="userSpaceOnUse">
<stop offset="0.34" stop-color="#A5A2A3"/>
<stop offset="1" stop-color="#F5F5F5"/>
</linearGradient>
<linearGradient id="paint1_linear_2029_900" x1="22.9775" y1="4.70361" x2="22.9775" y2="26.2528" gradientUnits="userSpaceOnUse">
<stop offset="0.34" stop-color="#A5A2A3"/>
<stop offset="1" stop-color="#F5F5F5"/>
</linearGradient>
</defs>
</svg>