<svg width="50" height="42" viewBox="0 0 50 42" fill="none" xmlns="http://www.w3.org/2000/svg">
<path fill-rule="evenodd" clip-rule="evenodd" d="M28.0584 7.48366L26.8105 5.70889C26.4028 5.50503 25.9951 5.40309 25.5873 5.30116L25.5872 5.30113L24.7717 2.44679C24.5678 1.7332 24.364 1.5293 23.8543 1.5293H16.7184C16.2087 1.5293 16.0048 1.63126 15.8009 2.44679L14.9854 5.30113C14.0679 5.60696 13.1504 6.01473 12.2329 6.42249L9.68441 4.99532C8.97082 4.58756 8.76696 4.6895 8.46114 4.99532L3.46602 9.9904C3.1602 10.2962 3.1602 10.6021 3.46602 11.2137L4.89319 13.7622C4.48543 14.5778 4.07766 15.4953 3.77184 16.4127L0.917495 17.2283C0.203907 17.4321 0 17.636 0 18.1457V25.2816C0 25.7913 0.203907 25.9952 0.917495 26.1991L3.77184 27.0146C4.07766 27.9321 4.48543 28.8495 4.89319 29.767L3.46602 32.3155C3.05826 33.0291 3.1602 33.233 3.46602 33.5388L8.46114 38.5339C8.76696 38.8397 9.07276 38.8397 9.68441 38.5339L12.2329 37.1068C13.0485 37.5145 13.966 37.9223 14.9854 38.2281L15.8009 41.0824C16.0048 41.796 16.2087 41.9999 16.7184 41.9999H23.8543C24.364 41.9999 24.5678 41.796 24.7717 41.0824L25.5872 38.2281C26.5047 37.9223 27.4222 37.5145 28.3397 37.1068L30.8882 38.5339C31.4998 38.8397 31.8056 38.8397 32.1115 38.5339L37.1066 33.5388C37.4124 33.233 37.5144 32.9272 37.1066 32.3155L35.6794 29.767C35.7578 29.5907 35.8361 29.4182 35.9138 29.2472L35.9138 29.247C36.2402 28.5284 36.5537 27.838 36.8008 27.0146L39.6551 26.1991C40.3687 25.9952 40.5726 25.7913 40.5726 25.2816L39.9992 24.4661H35.9211C35.5915 24.4661 35.4817 24.3558 35.3718 23.9145L34.8226 22.1492C34.2733 22.0389 33.7241 21.8183 33.1748 21.4873L31.5271 22.3699C31.0876 22.5905 30.9778 22.5905 30.7581 22.3699L29.7605 21.3679C29.7647 21.4826 29.7668 21.5977 29.7668 21.7133C29.7668 26.8636 25.5386 31.0919 20.3882 31.0919C15.2379 31.0919 11.0097 26.8636 11.0097 21.7133C11.0097 16.5629 15.2379 12.3347 20.3882 12.3347C22.2625 12.3347 24.0146 12.8947 25.4853 13.8552V9.46175C25.4853 9.13078 25.5951 9.02045 26.0345 8.91013L27.7921 8.3585C27.8502 8.06689 27.939 7.77528 28.0584 7.48366ZM26.6123 14.7181C27.3056 15.3362 27.9075 16.0548 28.3944 16.8503L28.4512 16.7433C28.3048 16.4491 28.1583 16.0569 28.0119 15.6647C27.9386 15.4685 27.8654 15.2723 27.7921 15.0884L26.6123 14.7181Z" fill="url(#paint0_linear_71_423)"/>
<path fill-rule="evenodd" clip-rule="evenodd" d="M47.9123 8.665L49.5434 9.1747C49.9512 9.27665 50.0531 9.37859 49.8492 9.68441V13.864C49.8492 14.1699 49.7473 14.2718 49.3395 14.3737L47.7085 14.8834C47.6065 15.3932 47.4026 15.9029 47.0968 16.4126L47.9123 17.9417C48.1162 18.3494 48.1162 18.4513 47.9123 18.6552L44.956 21.6115C44.7522 21.8154 44.6502 21.8154 44.2425 21.6115L42.7134 20.796C42.4415 20.9319 42.0791 21.0678 41.7167 21.2037C41.5354 21.2717 41.3542 21.3397 41.1842 21.4076L40.6745 23.0387C40.5726 23.4465 40.4706 23.5484 40.1648 23.5484H35.9852C35.6794 23.5484 35.5775 23.4465 35.4755 23.0387L34.9658 21.4076C34.4561 21.3057 33.9464 21.1018 33.4367 20.796L31.9076 21.6115C31.4998 21.8154 31.3979 21.8154 31.194 21.6115L28.2377 18.6552C28.0338 18.4513 28.0338 18.3494 28.2377 17.9417L29.0532 16.4126C28.9173 16.1407 28.7814 15.7783 28.6455 15.4159C28.5775 15.2347 28.5096 15.0534 28.4416 14.8834L26.8105 14.3737C26.4028 14.2718 26.3008 14.1699 26.3008 13.864V9.68441C26.3008 9.37859 26.4028 9.27665 26.8105 9.1747L28.4416 8.665C28.5435 8.15529 28.7474 7.64559 29.0532 7.13588L28.2377 5.60676C28.0338 5.199 28.0338 5.09708 28.2377 4.89319L31.194 1.93691C31.3979 1.73302 31.4998 1.73302 31.9076 1.93691L33.4367 2.75242C33.6916 2.65048 33.9719 2.54854 34.2522 2.4466C34.5326 2.34466 34.8129 2.24271 35.0678 2.14077L35.5775 0.509706C35.6794 0.101941 35.7814 0 36.0872 0H40.2667C40.5726 0 40.6745 0.101941 40.7764 0.509706L41.2862 2.14077C41.8978 2.24271 42.4075 2.4466 42.9172 2.75242L44.4463 1.93691C44.8541 1.73302 44.9561 1.73302 45.1599 1.93691L48.1162 4.89319C48.3201 5.09708 48.3201 5.199 48.1162 5.60676L47.3007 7.13588C47.4366 7.40769 47.5725 7.77009 47.7084 8.1325C47.7764 8.31378 47.8444 8.49505 47.9123 8.665ZM38.2279 6.1161C35.0855 6.1161 32.6212 8.6956 32.6212 11.7229C32.6212 14.8653 35.2007 17.3296 38.2279 17.3296C41.3704 17.3296 43.8347 14.7501 43.8347 11.7229C43.8347 8.6956 41.3704 6.1161 38.2279 6.1161Z" fill="url(#paint1_linear_71_423)"/>
<defs>
<linearGradient id="paint0_linear_71_423" x1="0.0520182" y1="21.769" x2="40.5619" y2="21.769" gradientUnits="userSpaceOnUse">
<stop offset="0.34" stop-color="#A5A2A3"/>
<stop offset="0.93" stop-color="#F5F5F5"/>
</linearGradient>
<linearGradient id="paint1_linear_71_423" x1="26.3311" y1="11.7768" x2="49.9449" y2="11.7768" gradientUnits="userSpaceOnUse">
<stop offset="0.34" stop-color="#A5A2A3"/>
<stop offset="0.93" stop-color="#F5F5F5"/>
</linearGradient>
</defs>
</svg>
