<svg width="50" height="50" viewBox="0 0 50 50" fill="none" xmlns="http://www.w3.org/2000/svg">
<path d="M8.95506 27.6H41.0449C42.0124 27.6 42.6 26.7646 42.6 26V24.9C42.6 24.1354 42.0124 23.3 41.0449 23.3H8.95506C7.98765 23.3 7.4 24.1354 7.4 24.9V26C7.4 26.9443 8.15925 27.6 8.95506 27.6Z" fill="#D9D9D9" stroke="#D9D9D9" stroke-width="1.2"/>
<path d="M22.8 8.94972V41.0503C22.8 41.4811 22.9547 41.8822 23.2618 42.1739C23.5661 42.4629 23.9727 42.6 24.4 42.6H25.5C26.4412 42.6 27.1 41.8466 27.1 41.0503V8.94972C27.1 8.51885 26.9453 8.11776 26.6382 7.82611C26.3339 7.53712 25.9274 7.4 25.5 7.4H24.4C23.4589 7.4 22.8 8.15338 22.8 8.94972Z" fill="#D9D9D9" stroke="#D9D9D9" stroke-width="1.2"/>
<path d="M30.5 12.6C30.2 12.6 30 12.5 29.8 12.3L24.9 7.4L20 12.3C19.6 12.7 19 12.7 18.6 12.3C18.2 11.9 18.2 11.3 18.6 10.9L24.2 5.3C24.6 4.9 25.2 4.9 25.6 5.3L31.2 10.9C31.6 11.3 31.6 11.9 31.2 12.3C31 12.5 30.8 12.6 30.5 12.6Z" fill="#D9D9D9"/>
<path d="M25 45.1C24.7 45.1 24.5 45 24.3 44.8L18.7 39.2C18.3 38.8 18.3 38.2 18.7 37.8C19.1 37.4 19.7 37.4 20.1 37.8L25 42.7L29.9 37.8C30.3 37.4 30.9 37.4 31.3 37.8C31.7 38.2 31.7 38.8 31.3 39.2L25.7 44.8C25.5 45 25.2 45.1 25 45.1Z" fill="#D9D9D9"/>
<path d="M38 32.2C37.7 32.2 37.5 32.1 37.3 31.9C36.9 31.5 36.9 30.9 37.3 30.5L42.2 25.6L37.3 20.7C36.9 20.3 36.9 19.7 37.3 19.3C37.7 18.9 38.3 18.9 38.7 19.3L44.3 24.9C44.7 25.3 44.7 25.9 44.3 26.3L38.7 31.9C38.5 32.1 38.3 32.2 38 32.2Z" fill="#D9D9D9"/>
<path d="M11.6 32.2C11.3 32.2 11.1 32.1 10.9 31.9L5.3 26.3C4.9 25.9 4.9 25.3 5.3 24.9L10.9 19.3C11.3 18.9 11.9 18.9 12.3 19.3C12.7 19.7 12.7 20.3 12.3 20.7L7.4 25.6L12.3 30.5C12.7 30.9 12.7 31.5 12.3 31.9C12.1 32.1 11.9 32.2 11.6 32.2Z" fill="#D9D9D9"/>
</svg>
