<svg width="44" height="40" viewBox="0 0 44 40" fill="none" xmlns="http://www.w3.org/2000/svg">
<path d="M38.1333 40H5.86667C2.64 40 0 37.5839 0 34.6309V5.36913C0 2.41611 2.64 0 5.86667 0H38.1333C41.36 0 44 2.41611 44 5.36913V34.6309C44 37.5839 41.36 40 38.1333 40Z" fill="url(#paint0_linear_78_447)"/>
<path d="M20.9332 35.8011C22.2258 35.8011 23.2738 34.7537 23.2738 33.4616C23.2738 32.1695 22.2258 31.1221 20.9332 31.1221C19.6405 31.1221 18.5926 32.1695 18.5926 33.4616C18.5926 34.7537 19.6405 35.8011 20.9332 35.8011Z" fill="#191827"/>
<path d="M25.8476 27.8034C23.2607 24.947 18.9492 24.947 16.3622 27.8034" stroke="#191827" stroke-width="4" stroke-miterlimit="10" stroke-linecap="round" stroke-linejoin="round"/>
<path d="M31.0216 22.9061C25.4782 16.7852 16.4855 16.7852 10.9421 22.9061" stroke="#191827" stroke-width="4" stroke-miterlimit="10" stroke-linecap="round" stroke-linejoin="round"/>
<path d="M37.1126 17.5518C27.5669 8.00612 15.1925 7.65245 6 17.5519" stroke="#191827" stroke-width="4" stroke-miterlimit="10" stroke-linecap="round" stroke-linejoin="round"/>
<defs>
<linearGradient id="paint0_linear_78_447" x1="21.8533" y1="40.4762" x2="21.8533" y2="-0.952381" gradientUnits="userSpaceOnUse">
<stop offset="0.34" stop-color="#A5A2A3"/>
<stop offset="0.93" stop-color="#F5F5F5"/>
</linearGradient>
</defs>
</svg>
