<svg width="60" height="52" viewBox="0 0 60 52" fill="none" xmlns="http://www.w3.org/2000/svg">
<g clip-path="url(#clip0_2015_831)">
<path d="M15.037 15.4224H44.7259V17.9113H15.037V15.4224Z" fill="#BDC2C2"/>
<path d="M18 21.6444V7.77778C18 6.8 18.8 6 19.7778 6H40.2222C41.2 6 42 6.8 42 7.77778V21.6444" fill="#E9F0F0"/>
<path d="M10.5333 17.9111H49.4667V37.6445H10.5333V17.9111Z" fill="#C7CCCC"/>
<path d="M15.5111 30.3555H44.4889V33.3777H15.5111V30.3555Z" fill="#5C5E5E"/>
<path d="M42 30.3555V44.2221C42 45.1999 41.2 45.9999 40.2222 45.9999H19.7778C18.8 45.9999 18 45.1999 18 44.2221V30.3555" fill="#E9F0F0"/>
<path d="M43.4814 21.3777C43.4814 21.6842 43.6032 21.9781 43.8199 22.1948C44.0366 22.4115 44.3305 22.5333 44.637 22.5333C44.9434 22.5333 45.2374 22.4115 45.4541 22.1948C45.6708 21.9781 45.7925 21.6842 45.7925 21.3777C45.7925 21.0713 45.6708 20.7773 45.4541 20.5606C45.2374 20.3439 44.9434 20.2222 44.637 20.2222C44.3305 20.2222 44.0366 20.3439 43.8199 20.5606C43.6032 20.7773 43.4814 21.0713 43.4814 21.3777Z" fill="#00CCC6"/>
<path d="M21.437 34.0889H37.7925V35.8666H21.437V34.0889ZM21.6148 37.4666H32.1036V39.2444H21.6148V37.4666ZM21.6148 40.8444H34.5925V42.6222H21.6148V40.8444Z" fill="#00CCC6"/>
</g>
<defs>
<clipPath id="clip0_2015_831">
<rect width="40" height="40" fill="white" transform="translate(10 6)"/>
</clipPath>
</defs>
</svg>
