<svg width="46" height="46" viewBox="0 0 46 46" fill="none" xmlns="http://www.w3.org/2000/svg">
<g clip-path="url(#clip0_2015_819)">
<path d="M18.4693 27.2346C18.47 27.2354 18.4702 27.2361 18.4709 27.2363C18.9529 27.7174 19.7336 27.7167 20.2144 27.2346L33.7123 13.7393C34.1948 13.2566 34.1948 12.4739 33.7123 11.9912C33.7109 11.9895 33.7093 11.9882 33.7082 11.9871C33.2255 11.5066 32.4448 11.5085 31.9647 11.9912L18.4693 25.4866C17.9871 25.9693 17.9871 26.7519 18.4693 27.2346Z" fill="#F7E38B"/>
<path d="M33.4216 21.1808H33.4163C32.7367 21.1808 32.1859 21.7317 32.1859 22.4112V32.3047H13.6472V13.7619L23.5399 13.7664H23.5408C24.2217 13.7646 24.7721 13.2108 24.7703 12.53V12.5247C24.7703 11.8452 24.2195 11.2944 23.5399 11.2944H12.4027C12.2406 11.2945 12.0802 11.3266 11.9306 11.3887C11.781 11.4509 11.6452 11.542 11.5309 11.6568C11.4174 11.7708 11.3276 11.906 11.2665 12.0548C11.2054 12.2036 11.1743 12.3629 11.1749 12.5238V33.5484C11.1765 33.8752 11.3065 34.1883 11.537 34.4201C11.651 34.5335 11.7863 34.6233 11.9351 34.6844C12.084 34.7455 12.2434 34.7766 12.4042 34.7759H33.4295C33.7563 34.7743 34.0694 34.6443 34.3012 34.4138C34.4146 34.2996 34.5044 34.1641 34.5655 34.0152C34.6266 33.8662 34.6577 33.7067 34.657 33.5457V22.4111C34.6555 21.7302 34.1024 21.1794 33.4216 21.1808Z" fill="#6CC0F1"/>
</g>
<defs>
<clipPath id="clip0_2015_819">
<rect width="24" height="24" fill="white" transform="translate(11 11)"/>
</clipPath>
</defs>
</svg>
