<svg width="183" height="92" viewBox="0 0 183 92" fill="none" xmlns="http://www.w3.org/2000/svg">
<rect x="0.689018" y="35.188" width="180.582" height="15.9219" fill="#D9D9D9" stroke="black"/>
<rect x="0.689034" y="29.542" width="180.582" height="5.12016" fill="#D9D9D9" stroke="black"/>
<rect x="73.2277" y="6.42432" width="50.8806" height="24.9403" fill="#D9D9D9" stroke="black"/>
<line x1="0.688789" y1="0.162109" x2="0.688785" y2="91.6498" stroke="white"/>
<line x1="181.754" y1="0.162109" x2="181.754" y2="91.6498" stroke="white"/>
<rect x="72.8122" y="49.3818" width="21.3087" height="32.7224" fill="#D9D9D9" stroke="black"/>
<rect x="74.1459" y="49.3818" width="18.9062" height="32.7224" fill="#D9D9D9" stroke="black"/>
<path d="M79.0141 58.5168C79.0141 59.0586 78.5748 59.4979 78.033 59.4979C77.4911 59.4979 77.0519 59.0586 77.0519 58.5168C77.0519 57.9749 77.4911 57.5356 78.033 57.5356C78.5748 57.5356 79.0141 57.9749 79.0141 58.5168Z" fill="#D9D9D9" stroke="black"/>
<rect x="102.163" y="49.3955" width="21.3087" height="32.7224" fill="#D9D9D9" stroke="black"/>
<rect x="103.497" y="49.3955" width="18.9062" height="32.7224" fill="#D9D9D9" stroke="black"/>
<path d="M120.295 58.5173C120.295 59.0591 119.856 59.4984 119.314 59.4984C118.772 59.4984 118.333 59.0591 118.333 58.5173C118.333 57.9754 118.772 57.5361 119.314 57.5361C119.856 57.5361 120.295 57.9754 120.295 58.5173Z" fill="#D9D9D9" stroke="black"/>
<rect x="123.59" y="34.8457" width="9.94008" height="15.9311" fill="#D81F2F" stroke="black"/>
<path d="M123.276 35.3276L125.069 35.8029L125.137 50.7102L124.276 50.0744L123.269 49.3904" stroke="black"/>
<path d="M126.478 34.5801L125.808 35.1319C125.346 35.5118 125.078 36.0784 125.078 36.6764V36.8138" stroke="black"/>
<rect x="72.2277" y="51.1094" width="9.94008" height="15.9311" transform="rotate(180 72.2277 51.1094)" fill="#D81F2F" stroke="black"/>
<path d="M72.5427 50.6274L70.7494 50.1522L70.6808 35.2449L71.5418 35.8806L72.5489 36.5647" stroke="black"/>
<path d="M69.3398 51.375L70.0105 50.8232C70.4723 50.4433 70.7398 49.8767 70.7398 49.2787V49.1413" stroke="black"/>
</svg>
