<svg width="50" height="57" viewBox="0 0 50 57" fill="none" xmlns="http://www.w3.org/2000/svg">
<path d="M28.3731 48.271C28.6855 48.3328 29.0076 48.3252 29.3168 48.2486C29.6259 48.1721 29.9144 48.0285 30.1618 47.8281L30.2385 47.2914C30.0499 47.1397 29.8537 46.9976 29.6508 46.8655C28.9596 46.5705 28.2319 46.3699 27.4872 46.2693V45.9541C27.4872 45.7667 27.4872 45.5793 27.4361 45.3919L28.4753 45.1109C28.7935 45.0541 29.0946 44.9257 29.3559 44.7353C29.6171 44.545 29.8315 44.2976 29.983 44.0121L29.8552 43.4925C29.6207 43.4156 29.3818 43.353 29.1397 43.3051C28.4286 43.2773 27.7172 43.3519 27.0273 43.5265C26.908 43.2199 26.7717 42.9218 26.6269 42.6322L27.4361 42.087C27.71 41.9453 27.9468 41.7412 28.1273 41.4911C28.3078 41.2411 28.427 40.9521 28.4753 40.6475L28.1772 40.1705C28.1772 40.1705 27.9813 40.1705 27.4361 40.1705C26.7552 40.3434 26.1036 40.6161 25.5026 40.9797C25.2825 40.7426 25.0493 40.5179 24.8041 40.3068L25.3492 39.5061C25.5395 39.2704 25.6743 38.9948 25.7436 38.6999C25.8129 38.405 25.8149 38.0983 25.7496 37.8025L25.2981 37.4703C25.2981 37.4703 25.1107 37.5385 24.6252 37.7685C24.0716 38.1906 23.5811 38.6897 23.1687 39.2506C22.9224 39.1233 22.6693 39.0095 22.4106 38.9098C22.4106 38.7395 22.5383 38.4669 22.6746 37.9303C22.7809 37.6421 22.82 37.3335 22.789 37.028C22.758 36.7225 22.6577 36.428 22.4957 36.1671L21.9847 36.0137C21.8018 36.168 21.6283 36.3329 21.4651 36.5078C21.074 37.1124 20.7701 37.769 20.5622 38.4584C20.2794 38.4258 19.9951 38.4087 19.7104 38.4073C19.7104 38.2369 19.6593 37.9473 19.5826 37.3766C19.5677 37.0681 19.4834 36.767 19.3359 36.4956C19.1884 36.2242 18.9816 35.9897 18.7308 35.8093L18.1857 35.8604C18.1857 35.8604 18.1005 36.0223 17.8961 36.5163C17.764 37.2065 17.7296 37.9119 17.7939 38.6117C17.464 38.6863 17.1396 38.783 16.8228 38.9013C16.5044 38.2778 16.0969 37.704 15.6133 37.1977C15.4211 37.0506 15.219 36.9169 15.0085 36.7974L14.5315 37.0444C14.4031 37.3413 14.3469 37.6644 14.3676 37.9872C14.3884 38.31 14.4854 38.6233 14.6508 38.9013C14.9063 39.4209 15.0426 39.685 15.1107 39.8383C14.8625 40 14.6262 40.1793 14.4038 40.3749C13.8468 39.9012 13.2278 39.5057 12.5639 39.1995C12.331 39.1408 12.095 39.0953 11.8569 39.0632L11.5077 39.472C11.5195 39.7824 11.6024 40.0859 11.7501 40.3591C11.8978 40.6323 12.1063 40.868 12.3595 41.0478C12.8365 41.4822 13.0494 41.6611 13.1601 41.7804C13.0068 41.9933 12.8705 42.2148 12.7343 42.4448C12.0581 42.1886 11.3504 42.0252 10.6303 41.9592C10.3869 41.9848 10.1451 42.0246 9.90632 42.0785L9.7104 42.5981C9.81341 42.8906 9.98216 43.1556 10.2037 43.3727C10.4252 43.5898 10.6935 43.7531 10.9881 43.8502C11.5077 44.0717 11.8399 44.2165 11.9591 44.3017C11.891 44.5827 11.8314 44.8638 11.7888 45.1534C11.0451 45.1753 10.3082 45.3015 9.59967 45.5282C9.12267 45.8008 8.96935 45.9115 8.96935 45.9115V46.4652C9.17965 46.7034 9.44431 46.8875 9.74087 47.0016C10.0374 47.1158 10.3572 47.1568 10.6729 47.1211C11.3373 47.1211 11.6269 47.1211 11.7888 47.1211C11.8197 47.4274 11.8681 47.7317 11.9336 48.0325L11.8654 48.0751C11.171 48.3112 10.5119 48.6408 9.90632 49.0546C9.72958 49.2247 9.56183 49.4038 9.40376 49.5913L9.57412 50.1023C9.85426 50.25 10.1632 50.3349 10.4795 50.351C10.7957 50.3672 11.1117 50.3143 11.4055 50.196C12.1721 49.9661 12.4361 49.8638 12.5809 49.8468C12.7002 50.0853 12.8365 50.3153 12.9728 50.5368C12.3695 51.0574 11.8317 51.6495 11.3714 52.3C11.2719 52.5225 11.1838 52.7499 11.1073 52.9814L11.4736 53.3902C11.783 53.4182 12.0948 53.3803 12.3884 53.279C12.6821 53.1777 12.9509 53.0153 13.1772 52.8025C13.4904 52.5232 13.8235 52.267 14.1738 52.0359C14.3527 52.2063 14.5315 52.3596 14.7189 52.5129C14.3375 53.1797 14.0508 53.8964 13.8671 54.6424C13.8532 54.8835 13.8532 55.1252 13.8671 55.3664L14.3697 55.639C14.6836 55.5796 14.9804 55.4509 15.2383 55.2623C15.4961 55.0737 15.7087 54.8299 15.8603 54.5487L16.2692 53.9184C16.3332 53.806 16.4043 53.6979 16.4821 53.5947C16.7604 53.7094 17.0448 53.8089 17.3339 53.8928C17.3339 54.1313 17.2828 54.5487 17.2572 54.9831C17.2572 55.1023 17.2572 55.2216 17.2572 55.3408C17.2572 55.4601 17.2572 55.5708 17.2572 55.6816C17.2662 55.8602 17.2947 56.0373 17.3424 56.2097C17.3459 56.2465 17.3459 56.2836 17.3424 56.3204C17.5043 56.7293 17.5894 56.8911 17.5894 56.8911L17.9813 56.9422H18.1601C18.4249 56.7731 18.6472 56.5454 18.8097 56.2765C18.9722 56.0077 19.0705 55.705 19.0971 55.3919C19.2078 54.7957 19.2419 54.489 19.2845 54.3272C19.2825 54.2932 19.2825 54.259 19.2845 54.225H19.9404C20.2831 54.2096 20.6245 54.1726 20.9625 54.1142C21.145 54.7882 21.4325 55.4292 21.8143 56.0137C21.9843 56.1905 22.1635 56.3582 22.3509 56.5163L22.9216 56.3545C23.1075 56.0953 23.2305 55.7964 23.2807 55.4815C23.331 55.1666 23.3072 54.8443 23.2113 54.5401C23.075 53.9439 22.9898 53.6884 22.9642 53.4925C23.3453 53.3092 23.7125 53.0986 24.063 52.8621C24.1823 52.9644 24.3697 53.1858 24.8296 53.7139C25.0223 53.9636 25.2703 54.1651 25.5541 54.3026C25.8379 54.4401 26.1497 54.5097 26.4651 54.5061L26.8995 54.1398C26.8995 54.1398 26.8995 53.9524 26.7717 53.4158C26.4681 52.7407 26.0694 52.1125 25.5877 51.5504C25.7898 51.3178 25.9775 51.0732 26.1499 50.8178C26.3118 50.8775 26.5758 51.0138 27.138 51.2608C27.4178 51.4168 27.729 51.5085 28.0487 51.5291C28.3685 51.5497 28.6888 51.4988 28.9864 51.38L29.2589 50.8775C29.1385 50.6695 29.0077 50.4676 28.8671 50.2727C28.3299 49.7735 27.7213 49.3572 27.0613 49.0376C27.155 48.7821 27.2317 48.5265 27.2998 48.271C27.4276 48.1688 27.7257 48.2114 28.3731 48.271ZM19.6848 49.4039C19.0733 49.4251 18.4691 49.2649 17.9484 48.9435C17.4277 48.622 17.0138 48.1537 16.7588 47.5974C16.5038 47.0412 16.419 46.4219 16.5153 45.8176C16.6115 45.2133 16.8844 44.651 17.2996 44.2015C17.7148 43.752 18.2537 43.4354 18.8485 43.2916C19.4433 43.1478 20.0674 43.1832 20.6421 43.3933C21.2168 43.6035 21.7164 43.979 22.0781 44.4726C22.4398 44.9662 22.6474 45.5558 22.6746 46.1671C22.6917 46.5761 22.6279 46.9845 22.4867 47.3689C22.3456 47.7532 22.1299 48.1058 21.8521 48.4066C21.5744 48.7073 21.2399 48.9502 20.868 49.1214C20.496 49.2925 20.094 49.3885 19.6848 49.4039Z" fill="url(#paint0_linear_36_629)"/>
<path d="M19.7615 51.7634C20.8343 51.7136 21.8684 51.347 22.733 50.7099C23.5977 50.0729 24.2542 49.1939 24.6196 48.184C24.9851 47.174 25.0431 46.0785 24.7863 45.0356C24.5296 43.9928 23.9696 43.0494 23.177 42.3246C22.3845 41.5997 21.3949 41.126 20.3334 40.9632C19.2718 40.8004 18.1857 40.9558 17.2124 41.4098C16.2391 41.8637 15.4221 42.5959 14.8646 43.5139C14.3071 44.4319 14.0341 45.4944 14.0801 46.5675C14.1107 47.2821 14.2821 47.9837 14.5844 48.6319C14.8868 49.2801 15.3141 49.8623 15.842 50.345C16.3698 50.8278 16.9877 51.2016 17.6603 51.4449C18.3329 51.6883 19.047 51.7965 19.7615 51.7634ZM19.3952 43.2455C20.0071 43.2226 20.612 43.3813 21.1338 43.7016C21.6555 44.022 22.0708 44.4897 22.3271 45.0457C22.5834 45.6018 22.6694 46.2213 22.5742 46.8261C22.4789 47.4309 22.2067 47.994 21.7919 48.4443C21.3771 48.8947 20.8383 49.2122 20.2433 49.3567C19.6484 49.5012 19.0239 49.4664 18.4487 49.2565C17.8735 49.0467 17.3734 48.6713 17.0113 48.1775C16.6491 47.6838 16.4413 47.0939 16.414 46.4823C16.398 46.0717 16.4632 45.662 16.6057 45.2766C16.7482 44.8912 16.9653 44.5377 17.2446 44.2363C17.5238 43.9348 17.8598 43.6914 18.2332 43.52C18.6066 43.3485 19.0102 43.2523 19.4208 43.237L19.3952 43.2455Z" fill="url(#paint1_linear_36_629)"/>
<path d="M48.075 48.8415C48.3847 48.9179 48.7073 48.9263 49.0205 48.866C49.3337 48.8057 49.6301 48.6782 49.8893 48.4923L50.0001 47.9642C49.8208 47.7985 49.6332 47.6421 49.4379 47.4957C48.7616 47.1689 48.0458 46.9313 47.3084 46.7887C47.3084 46.678 47.3084 46.5758 47.3084 46.4736C47.3084 46.3714 47.3084 46.0988 47.3084 45.9114L48.3561 45.6814C48.6708 45.6427 48.9731 45.5349 49.2411 45.3655C49.5092 45.1961 49.7363 44.9695 49.9064 44.7018L49.8041 44.1737C49.5729 44.0864 49.3369 44.0125 49.0972 43.9523C48.3889 43.884 47.6746 43.9184 46.9762 44.0545C46.8828 43.7423 46.7661 43.4377 46.627 43.1431C46.7718 43.0409 47.0188 42.8961 47.4788 42.6405C47.7595 42.5123 48.007 42.3211 48.202 42.0818C48.397 41.8425 48.5342 41.5615 48.6031 41.2606L48.322 40.7751C48.078 40.7613 47.8335 40.7613 47.5895 40.7751C46.8974 40.9098 46.2287 41.1451 45.6048 41.4736C45.3996 41.2258 45.1806 40.9898 44.949 40.7666C45.0597 40.6218 45.2386 40.4003 45.5367 40C45.7453 39.7735 45.8992 39.5021 45.9863 39.2067C46.0735 38.9113 46.0916 38.5999 46.0392 38.2964L45.5963 37.9386C45.5963 37.9386 45.4174 37.9898 44.9234 38.1942C44.3424 38.5799 43.8227 39.0508 43.3817 39.5911C43.1432 39.4548 42.8961 39.327 42.6406 39.2078L42.9558 38.2453C43.0775 37.9637 43.1346 37.6583 43.1228 37.3517C43.1111 37.0451 43.0307 36.745 42.8876 36.4736L42.3766 36.2947C42.1844 36.4383 42.0023 36.5948 41.8314 36.7632C41.4077 37.3466 41.0666 37.9858 40.8178 38.6627C40.5361 38.6099 40.2518 38.5729 39.966 38.5519C39.966 38.3816 39.966 38.092 39.8978 37.5213C39.9037 37.2144 39.84 36.9102 39.7117 36.6315C39.5834 36.3527 39.3937 36.1065 39.1568 35.9114H38.6117C38.6117 35.9114 38.518 36.0647 38.288 36.5502C38.1163 37.2291 38.0418 37.9288 38.0665 38.6286C37.7333 38.691 37.4034 38.7706 37.0784 38.8671C36.7948 38.235 36.4219 37.647 35.9711 37.1209C35.5452 36.7887 35.3919 36.695 35.3919 36.695L34.8979 36.9165C34.7704 37.1961 34.7087 37.5012 34.7176 37.8083C34.7265 38.1154 34.8056 38.4164 34.949 38.6882C35.1704 39.2248 35.2897 39.4889 35.3493 39.6507C35.0967 39.8026 34.8522 39.9675 34.6168 40.1448C34.0885 39.6408 33.4921 39.2136 32.845 38.8756C32.6164 38.8008 32.383 38.7411 32.1466 38.6967L31.7718 39.08C31.7613 39.3883 31.821 39.695 31.9465 39.9769C32.0719 40.2587 32.2597 40.5083 32.4958 40.7069C32.9387 41.1584 33.1517 41.3543 33.2539 41.4821C33.0949 41.6865 32.9416 41.8995 32.7939 42.1209C32.1324 41.8244 31.433 41.6209 30.7156 41.5162C30.1789 41.5162 29.9915 41.5928 29.9915 41.5928L29.7616 42.1039C29.848 42.4022 30.0022 42.6765 30.212 42.9055C30.4217 43.1345 30.6815 43.312 30.9711 43.4242C31.4737 43.6712 31.7548 43.833 31.9166 43.9267C31.8229 44.1993 31.7548 44.4889 31.6866 44.7785C30.9429 44.7597 30.2002 44.8457 29.4805 45.034C28.995 45.2725 28.8331 45.3748 28.8331 45.3748V45.9369C29.0266 46.1779 29.2736 46.3704 29.5546 46.4991C29.8356 46.6277 30.1427 46.689 30.4515 46.678L31.5759 46.7461C31.5866 47.0541 31.615 47.3613 31.6611 47.6661H31.5929C30.8875 47.8582 30.2114 48.1447 29.5827 48.5179C29.1738 48.8841 29.0461 49.0289 29.0461 49.0289L29.1909 49.5485C29.4623 49.7115 29.7659 49.8135 30.0807 49.8473C30.3955 49.8812 30.7139 49.8461 31.0137 49.7444C31.7973 49.557 32.0614 49.4718 32.2062 49.4633C32.3141 49.7075 32.4333 49.946 32.564 50.1788C31.9246 50.6704 31.352 51.2431 30.8604 51.8824C30.7486 52.0981 30.6491 52.3199 30.5622 52.5468L30.8945 52.9727C31.2086 53.0251 31.5305 53.0088 31.8378 52.925C32.1451 52.8412 32.4306 52.6918 32.6747 52.4872C33.0049 52.2285 33.352 51.9923 33.7139 51.7802C33.8842 51.9506 34.0546 52.1209 34.2335 52.2742C33.8001 52.9205 33.4563 53.6225 33.2113 54.3611C33.1972 54.6022 33.1972 54.844 33.2113 55.0851L33.6968 55.3833C34.0136 55.3411 34.317 55.2291 34.5851 55.0553C34.8533 54.8814 35.0794 54.6502 35.2471 54.3782C35.4515 54.1056 35.5878 53.9097 35.69 53.7649L35.92 53.4582C36.1749 53.5884 36.4364 53.705 36.7036 53.8075C36.7036 54.046 36.6185 54.4548 36.5759 54.8892C36.5759 55.0085 36.5759 55.1277 36.5759 55.247C36.5759 55.3662 36.5759 55.477 36.5759 55.5877C36.5716 55.7651 36.5888 55.9425 36.627 56.1158C36.627 56.1584 36.627 56.1925 36.6696 56.2265C36.8059 56.6524 36.874 56.8143 36.874 56.8143L37.2658 56.8824H37.4447C37.7183 56.7294 37.953 56.5153 38.1303 56.2568C38.3076 55.9982 38.4228 55.7022 38.4668 55.3918C38.6117 54.7955 38.6628 54.4974 38.7139 54.3356C38.7101 54.3016 38.7101 54.2673 38.7139 54.2333C38.9353 54.2333 39.1483 54.2333 39.3697 54.2333C39.7112 54.2378 40.0526 54.2207 40.3919 54.1822C40.5381 54.8637 40.7881 55.5187 41.1329 56.1243C41.4992 56.5332 41.644 56.6609 41.644 56.6609L42.2232 56.5247C42.4237 56.2778 42.5636 55.9875 42.6316 55.6768C42.6997 55.3662 42.694 55.0439 42.6151 54.7359C42.5128 54.1311 42.4447 53.8841 42.4277 53.6712C42.8217 53.5153 43.2008 53.3244 43.5605 53.1005C43.6798 53.2197 43.8501 53.4497 44.276 53.9523C44.4581 54.2052 44.6954 54.4133 44.9699 54.5609C45.2444 54.7085 45.5489 54.7917 45.8604 54.8041L46.3203 54.4633C46.3076 54.2176 46.2792 53.9729 46.2352 53.7308C45.9708 53.037 45.6063 52.3856 45.1534 51.7972C45.3757 51.5807 45.5807 51.3472 45.7667 51.0988L46.7292 51.6013C47.0008 51.7711 47.3064 51.879 47.6244 51.9172C47.9424 51.9555 48.2649 51.9233 48.5691 51.8228L48.8672 51.3458C48.7599 51.1274 48.6375 50.9168 48.5009 50.7155C48.0009 50.1895 47.427 49.739 46.7973 49.3781C46.9008 49.1302 46.9918 48.8772 47.0699 48.6201C47.1466 48.6797 47.4362 48.7393 48.075 48.8415ZM39.3442 49.4719C38.7318 49.46 38.1367 49.2671 37.6339 48.9174C37.1311 48.5677 36.7431 48.077 36.5188 47.507C36.2946 46.9371 36.2442 46.3135 36.374 45.7149C36.5038 45.1164 36.8079 44.5697 37.248 44.1438C37.6882 43.7179 38.2446 43.4319 38.8471 43.3219C39.4496 43.2118 40.0712 43.2827 40.6334 43.5255C41.1957 43.7684 41.6734 44.1723 42.0064 44.6863C42.3394 45.2004 42.5126 45.8015 42.5043 46.4139C42.4988 46.8218 42.4128 47.2246 42.2513 47.5992C42.0898 47.9738 41.8559 48.3129 41.5632 48.597C41.2704 48.8811 40.9244 49.1046 40.5451 49.2547C40.1658 49.4048 39.7606 49.4786 39.3527 49.4719H39.3442Z" fill="url(#paint2_linear_36_629)"/>
<path d="M39.3527 51.8398C40.4267 51.8498 41.4796 51.5413 42.3784 50.9533C43.2773 50.3653 43.9817 49.5241 44.4028 48.5361C44.8238 47.548 44.9427 46.4572 44.7442 45.4017C44.5458 44.3461 44.039 43.373 43.2879 42.6052C42.5368 41.8375 41.575 41.3095 40.5241 41.088C39.4731 40.8665 38.38 40.9614 37.3829 41.3607C36.3859 41.7601 35.5295 42.4459 34.9219 43.3316C34.3144 44.2173 33.9829 45.2632 33.9694 46.3372C33.958 47.7795 34.5177 49.1676 35.5263 50.1986C36.535 51.2296 37.9105 51.8196 39.3527 51.8398ZM39.4719 43.3219C40.0843 43.3337 40.6794 43.5267 41.1822 43.8763C41.6851 44.226 42.0731 44.7168 42.2973 45.2867C42.5215 45.8567 42.5719 46.4802 42.4421 47.0788C42.3124 47.6773 42.0082 48.2241 41.5681 48.65C41.1279 49.0759 40.5715 49.3619 39.969 49.4719C39.3665 49.5819 38.745 49.5111 38.1827 49.2682C37.6204 49.0254 37.1427 48.6215 36.8097 48.1074C36.4768 47.5934 36.3035 46.9922 36.3118 46.3798C36.3208 45.5597 36.6535 44.7763 37.2374 44.2004C37.8213 43.6244 38.6092 43.3026 39.4293 43.3049L39.4719 43.3219Z" fill="url(#paint3_linear_36_629)"/>
<path d="M28.9987 21C28.9987 20.9284 28.9987 15.8321 28.9987 15.6746C29.0221 14.4268 28.7348 13.188 28.154 12.0329C27.5732 10.8779 26.711 9.83031 25.6194 8.95342C24.043 7.76733 23.1197 7.27969 21 7" stroke="url(#paint4_linear_36_629)" stroke-width="2" stroke-linecap="round" stroke-linejoin="round"/>
<path d="M29.242 34.6952V26.3391" stroke="url(#paint5_linear_36_629)" stroke-width="2" stroke-linecap="round" stroke-linejoin="round"/>
<path d="M31.7717 19.9507L26.0051 23.9456" stroke="url(#paint6_linear_36_629)" stroke-linecap="round" stroke-linejoin="round"/>
<path d="M32.2147 23.6389L26.4566 27.6338" stroke="url(#paint7_linear_36_629)" stroke-linecap="round" stroke-linejoin="round"/>
<g opacity="0.8">
<path d="M12.5128 0.442946C14.9056 0.447998 17.2433 1.16218 19.2304 2.49524C21.2175 3.8283 22.7649 5.72042 23.6771 7.93256C24.5893 10.1447 24.8253 12.5776 24.3554 14.9238C23.8855 17.2701 22.7307 19.4244 21.0369 21.1146C19.3432 22.8048 17.1864 23.9551 14.8392 24.42C12.492 24.885 10.0596 24.6438 7.84937 23.7269C5.63916 22.8101 3.75029 21.2587 2.42142 19.2688C1.09255 17.2789 0.383316 14.9397 0.38331 12.5468C0.390078 9.33434 1.67099 6.25574 3.94497 3.98654C6.21895 1.71735 9.30026 0.442939 12.5128 0.442946ZM12.5128 17.0358C13.4002 17.0341 14.2673 16.7694 15.0044 16.2751C15.7414 15.7808 16.3155 15.0792 16.6539 14.2588C16.9924 13.4384 17.08 12.5361 16.9059 11.6659C16.7317 10.7957 16.3035 9.99663 15.6754 9.3697C15.0473 8.74276 14.2474 8.31608 13.3769 8.14356C12.5063 7.97104 11.6042 8.06043 10.7845 8.40044C9.96471 8.74044 9.26414 9.31581 8.77127 10.0538C8.27839 10.7918 8.01533 11.6594 8.01533 12.5468C8.01759 13.7382 8.49242 14.8799 9.33561 15.7215C10.1788 16.5631 11.3215 17.0358 12.5128 17.0358ZM12.5128 0C10.0353 0.00336837 7.61451 0.741092 5.55624 2.11993C3.49796 3.49877 1.89464 5.45683 0.948899 7.74665C0.00315955 10.0365 -0.242545 12.5553 0.242843 14.9847C0.72823 17.4141 1.92292 19.6451 3.67592 21.3957C5.42892 23.1463 7.66155 24.338 10.0916 24.8201C12.5217 25.3022 15.0402 25.0531 17.3287 24.1042C19.6172 23.1554 21.5731 21.5494 22.9491 19.4892C24.3252 17.4291 25.0596 15.0073 25.0596 12.5298C25.0551 9.20515 23.7312 6.01817 21.3787 3.66887C19.0262 1.31956 15.8375 -3.0646e-06 12.5128 0ZM12.5128 16.5928C11.7092 16.5928 10.9236 16.3545 10.2555 15.9081C9.58731 15.4616 9.06654 14.8271 8.75902 14.0847C8.4515 13.3422 8.37104 12.5253 8.52781 11.7371C8.68459 10.949 9.07156 10.2251 9.63978 9.65683C10.208 9.08861 10.932 8.70164 11.7201 8.54486C12.5083 8.38809 13.3252 8.46854 14.0676 8.77606C14.81 9.08358 15.4446 9.60435 15.8911 10.2725C16.3375 10.9407 16.5758 11.7262 16.5758 12.5298C16.5736 13.6067 16.1448 14.6388 15.3833 15.4003C14.6218 16.1618 13.5897 16.5906 12.5128 16.5928Z" fill="#F5F5F5"/>
</g>
<path fill-rule="evenodd" clip-rule="evenodd" d="M5.55624 2.13702C7.61451 0.758182 10.0353 0.0204582 12.5128 0.0170898C15.8375 0.0170868 19.0262 1.33665 21.3787 3.68596C23.7312 6.03526 25.0551 9.22221 25.0596 12.5469C25.0596 15.0243 24.3252 17.4461 22.9491 19.5063C21.5731 21.5664 19.6172 23.1724 17.3287 24.1213C15.0402 25.0701 12.5217 25.3193 10.0916 24.8372C7.66155 24.3551 5.42892 23.1634 3.67592 21.4128C1.92292 19.6622 0.72823 17.4312 0.242843 15.0018C-0.242545 12.5723 0.00315955 10.0536 0.948899 7.76374C1.89464 5.47392 3.49796 3.51586 5.55624 2.13702ZM10.2555 15.9252C10.9236 16.3716 11.7092 16.6099 12.5128 16.6099C13.5897 16.6077 14.6218 16.1789 15.3833 15.4174C16.1448 14.6559 16.5736 13.6238 16.5758 12.5469C16.5758 11.7433 16.3375 10.9578 15.8911 10.2896C15.4446 9.62144 14.81 9.10067 14.0676 8.79315C13.3252 8.48563 12.5083 8.40516 11.7201 8.56193C10.932 8.7187 10.208 9.10567 9.63978 9.67389C9.07156 10.2421 8.68459 10.9661 8.52781 11.7542C8.37104 12.5424 8.4515 13.3593 8.75902 14.1017C9.06654 14.8442 9.58731 15.4787 10.2555 15.9252ZM13.9666 5.03892C12.7871 4.79322 11.5641 4.85618 10.4161 5.22171C9.2681 5.58725 8.23389 6.24299 7.41361 7.12543C6.69854 7.8947 6.16714 8.81355 5.85654 9.81276L7.26578 10.2727C7.35643 10.3024 7.43672 10.3574 7.49729 10.4311C7.55785 10.5048 7.59618 10.5943 7.6078 10.689C7.61941 10.7837 7.60383 10.8797 7.56287 10.9659C7.52192 11.052 7.45728 11.1248 7.37651 11.1756L3.96936 13.3476C3.90681 13.3881 3.83604 13.4142 3.76218 13.424C3.68831 13.4338 3.61319 13.427 3.54226 13.4042C3.47133 13.3813 3.40636 13.343 3.35206 13.292C3.29776 13.241 3.25549 13.1785 3.2283 13.1091L1.75471 9.33571C1.72057 9.24662 1.7125 9.14964 1.73143 9.05614C1.75037 8.96263 1.79554 8.87644 1.86165 8.80765C1.92776 8.73886 2.01208 8.69031 2.10476 8.66767C2.19744 8.64504 2.29466 8.64924 2.38503 8.67981L3.95508 9.19221C4.3556 7.91784 5.03572 6.74597 5.94875 5.76375C7.00344 4.62913 8.33321 3.78599 9.80931 3.31599C11.2854 2.84598 12.8579 2.76504 14.3744 3.08095C15.891 3.39686 17.3003 4.09893 18.466 5.11923C19.6316 6.13954 20.5141 7.44349 21.0281 8.90488C21.542 10.3663 21.6699 11.9356 21.3995 13.4609C21.1291 14.9862 20.4695 16.4159 19.4845 17.6116C18.4995 18.8072 17.2225 19.7283 15.7771 20.2857C15.2619 20.4845 14.683 20.2278 14.4843 19.7125C14.2856 19.1972 14.5422 18.6184 15.0575 18.4197C16.1816 17.9862 17.1748 17.2698 17.9408 16.3399C18.7069 15.41 19.2199 14.2981 19.4302 13.1118C19.6405 11.9255 19.541 10.705 19.1413 9.56839C18.7416 8.43182 18.0553 7.41769 17.1487 6.62416C16.2421 5.83064 15.146 5.28461 13.9666 5.03892Z" fill="url(#paint8_linear_36_629)"/>
<defs>
<linearGradient id="paint0_linear_36_629" x1="8.31825" y1="47.0212" x2="29.5789" y2="46.1708" gradientUnits="userSpaceOnUse">
<stop offset="0.34" stop-color="#A5A2A3"/>
<stop offset="0.93" stop-color="#F5F5F5"/>
</linearGradient>
<linearGradient id="paint1_linear_36_629" x1="13.7104" y1="41.2022" x2="2.79048" y2="41.639" gradientUnits="userSpaceOnUse">
<stop offset="0.34" stop-color="#A5A2A3"/>
<stop offset="0.93" stop-color="#F5F5F5"/>
</linearGradient>
<linearGradient id="paint2_linear_36_629" x1="29.9601" y1="45.729" x2="51.2293" y2="45.9417" gradientUnits="userSpaceOnUse">
<stop offset="0.34" stop-color="#A5A2A3"/>
<stop offset="0.93" stop-color="#F5F5F5"/>
</linearGradient>
<linearGradient id="paint3_linear_36_629" x1="57.0894" y1="57.3861" x2="46.1695" y2="57.2769" gradientUnits="userSpaceOnUse">
<stop offset="0.34" stop-color="#A5A2A3"/>
<stop offset="0.93" stop-color="#F5F5F5"/>
</linearGradient>
<linearGradient id="paint4_linear_36_629" x1="32.4836" y1="19.1819" x2="20.8928" y2="4.93138" gradientUnits="userSpaceOnUse">
<stop offset="0.34" stop-color="#A5A2A3"/>
<stop offset="0.93" stop-color="#F5F5F5"/>
</linearGradient>
<linearGradient id="paint5_linear_36_629" x1="-nan" y1="-nan" x2="-nan" y2="-nan" gradientUnits="userSpaceOnUse">
<stop offset="0.34" stop-color="#A5A2A3"/>
<stop offset="0.93" stop-color="#F5F5F5"/>
</linearGradient>
<linearGradient id="paint6_linear_36_629" x1="29.6337" y1="22.6849" x2="28.1431" y2="21.2028" gradientUnits="userSpaceOnUse">
<stop offset="0.34" stop-color="#A5A2A3"/>
<stop offset="0.93" stop-color="#F5F5F5"/>
</linearGradient>
<linearGradient id="paint7_linear_36_629" x1="30.0767" y1="26.3732" x2="28.5946" y2="24.891" gradientUnits="userSpaceOnUse">
<stop offset="0.34" stop-color="#A5A2A3"/>
<stop offset="0.93" stop-color="#F5F5F5"/>
</linearGradient>
<linearGradient id="paint8_linear_36_629" x1="12.5128" y1="25.0767" x2="12.5128" y2="0.0170898" gradientUnits="userSpaceOnUse">
<stop offset="0.34" stop-color="#A5A2A3"/>
<stop offset="0.93" stop-color="#F5F5F5"/>
</linearGradient>
</defs>
</svg>
