<svg width="50" height="50" viewBox="0 0 50 50" fill="none" xmlns="http://www.w3.org/2000/svg">
<path d="M26.9 43.85H21.4C19.8 43.85 18.5 42.65 18.5 41.05V40.75C18.5 39.55 17.9 38.45 16.7 37.75C15.5 37.05 13.9 36.95 12.7 37.65L12.5 37.75L12.1 37.95C10.8 38.55 9.1 38.05 8.3 36.85L5.5 32.25C4.8 30.75 5.3 29.05 6.6 28.35L6.7 28.25H7.1C8.2 27.55 8.9 26.45 8.9 25.15C8.9 23.85 8.2 22.75 7.1 22.05L6.6 21.85C5.9 21.45 5.4 20.85 5.1 20.05C4.9 19.35 5 18.55 5.4 17.95L8.1 13.45C9.1 12.15 10.8 11.65 12.1 12.35L12.6 12.55C13.8 13.25 15.4 13.15 16.6 12.45C17.7 11.75 18.4 10.65 18.4 9.45V9.05C18.4 7.55 19.8 6.25 21.3 6.25H26.8C28.4 6.25 29.7 7.45 29.7 9.05V9.45C29.7 10.65 30.3 11.75 31.5 12.45C32.7 13.15 34.3 13.25 35.5 12.55L36.1 12.15C37.4 11.45 39.2 11.95 40 13.25L42.8 17.85C43.5 19.35 43 21.05 41.7 21.75L41.6 21.85H41.1C40 22.55 39.3 23.65 39.3 24.95C39.3 26.25 40 27.45 41.2 28.05L41.7 28.35C42.3 28.65 42.8 29.25 43 29.95C43.2 30.65 43.1 31.45 42.8 32.05L40 36.55C39.1 37.85 37.5 38.35 36.1 37.65L35.6 37.45C34.4 36.75 32.8 36.75 31.6 37.55C30.5 38.25 29.8 39.35 29.8 40.55V41.05C29.8 42.55 28.4 43.85 26.9 43.85ZM14.6 35.25C15.7 35.25 16.8 35.55 17.7 36.15C19.4 37.15 20.4 38.95 20.4 40.85V41.05C20.4 41.55 20.9 41.85 21.3 41.85H26.8C27.3 41.85 27.7 41.35 27.7 41.05V40.65C27.7 38.75 28.7 36.95 30.4 35.95C32.2 34.85 34.5 34.85 36.3 35.75L36.8 35.95C37.2 36.15 37.9 35.95 38.1 35.55L40.8 31.05C40.9 30.95 40.9 30.75 40.8 30.55C40.7 30.35 40.6 30.15 40.5 30.15L40.4 30.05L40 29.75C38.2 28.75 37.2 26.95 37.2 24.95C37.2 22.85 38.3 21.05 40.1 20.05L40.3 19.95L40.7 19.85C41 19.65 41.1 19.15 40.9 18.75L38.2 14.35C37.9 13.95 37.4 13.75 36.9 13.95L36.5 14.25C34.6 15.35 32.3 15.25 30.4 14.15C28.7 13.15 27.7 11.35 27.7 9.45V9.05C27.7 8.55 27.2 8.25 26.8 8.25H21.3C20.8 8.25 20.4 8.75 20.4 9.05V9.45C20.4 11.35 19.4 13.15 17.7 14.15C15.9 15.25 13.6 15.25 11.8 14.35L11.3 14.15C10.9 13.95 10.3 14.05 10 14.55L7.2 19.05C7.1 19.25 7.1 19.45 7.1 19.55C7.2 19.75 7.3 19.95 7.5 20.05L8 20.25C9.8 21.25 10.9 23.05 10.9 25.15C10.9 27.25 9.8 29.05 8 30.05H7.8L7.4 30.15C7.1 30.35 7 30.85 7.2 31.25L9.9 35.65C10.2 36.05 10.8 36.25 11.2 36.05H11.4L11.8 35.95C12.7 35.45 13.6 35.25 14.6 35.25Z" fill="white"/>
<path d="M24.3 31.05C20.8 31.05 18 28.35 18 25.05C18 21.65 20.8 19.05 24.3 19.05C27.8 19.05 30.6 21.75 30.6 25.05C30.6 28.45 27.8 31.05 24.3 31.05ZM24.3 20.45C21.6 20.45 19.4 22.45 19.4 25.05C19.4 27.55 21.6 29.65 24.3 29.65C27 29.65 29.2 27.65 29.2 25.05C29.2 22.55 27 20.45 24.3 20.45Z" fill="white"/>
</svg>
