<svg width="179" height="139" viewBox="0 0 179 139" fill="none" xmlns="http://www.w3.org/2000/svg">
<path d="M0.65625 114.812C0.65625 123.352 16.352 131.247 41.8281 135.515C67.3042 139.787 98.6958 139.787 124.172 135.515C149.648 131.247 165.344 123.352 165.344 114.812C165.344 101.611 128.475 90.9062 83 90.9062C37.525 90.9062 0.65625 101.611 0.65625 114.812Z" fill="#2965DE"/>
<path d="M84.7531 14.8789L30.8312 44.6103L84.4237 72.655L137.628 43.8347L84.7531 14.8789Z" fill="#8FAAFE"/>
<path d="M29.8245 73.6035V100.663L84.3467 129.348L139.392 100.66V73.7443" fill="#8FAAFE"/>
<path d="M84.6097 72.6577L84.3281 129.345L139.392 100.657V72.6577L104.648 93.7669L84.6097 72.6577Z" fill="#3D6CFB"/>
<path d="M156.923 63.5523L104.643 93.7671L84.6071 72.6553L137.626 43.835L156.923 63.5523Z" fill="#6D92FF"/>
<path d="M65.7158 93.0497L11.4831 63.2811L30.8312 44.6077L85.1622 72.926L65.7158 93.0497ZM30.8312 44.6103L10.8031 30.3941L65.4422 1.57377L84.7531 15.0144L30.8312 44.6103ZM137.631 43.8347L84.7531 14.8842L106.216 0.625488L158.005 27.6661L137.631 43.8374V43.8347Z" fill="#6D92FF"/>
<path d="M106.576 58.2806H61.9418V43.8623H107.275V58.2806H106.459" fill="#2D2F42"/>
<path d="M106.576 58.2806H61.9418V43.8623H107.275V58.2806H106.459" stroke="white" stroke-miterlimit="10"/>
<path d="M107.275 43.8622H61.9418L66.2097 29.0356H103.007L107.275 43.8622Z" fill="#2C2D40" stroke="white" stroke-miterlimit="10"/>
<path d="M107.275 48.3158H61.9418L62.851 44.0107H106.366L107.275 48.3158Z" stroke="white" stroke-miterlimit="10"/>
<path d="M86.4733 43.8251H82.7249L83.0033 29.147H86.2135L86.4733 43.8251Z" stroke="white" stroke-miterlimit="10"/>
<path d="M62.2758 46.8125H106.793" stroke="white" stroke-miterlimit="10"/>
<path d="M150.828 128.898C150.828 128.898 147.182 120.928 142.463 115.013C141.659 113.878 137.169 107.607 136.383 107.065C135.539 106.472 127.695 102.554 125.724 100.132C123.754 97.7102 121.241 93.144 119.726 91.0988C118.982 90.202 116.969 88.1354 116.093 86.917C115.186 85.7118 114.525 84.7432 113.102 81.458C112.566 80.7012 111.138 78.3197 107.356 75.5138C107.103 75.3547 106.078 74.0473 105.766 70.9071C105.502 68.7991 105.385 68.6969 104.839 67.4562C104.569 66.8907 102.305 63.3871 102.713 62.0927C103.114 61.5148 103.772 59.3662 106.563 60.3997C108.294 61.2297 109.46 61.0515 113.797 66.0338C114.333 66.7905 115.474 68.8391 115.91 69.2611C116.282 69.7096 118.788 72.8883 120.381 74.1132C121.967 75.4155 123.717 77.0263 124.85 76.6741C125.983 76.3219 128.945 74.8434 129.274 74.1821C129.559 73.502 131.311 73.1959 131.573 72.8257C131.834 72.4555 133.588 69.4066 133.439 67.8525C133.2 66.4477 133.18 66.306 132.481 65.428C131.783 64.5501 131.652 63.5897 131.233 62.9351C130.814 62.2806 127.75 55.2734 127.101 54.1498C126.498 53.0451 125.681 51.2389 125.95 49.5133" stroke="white" stroke-width="1.4" stroke-miterlimit="10"/>
<path d="M131.147 63.4587C131.147 63.4587 129.901 63.444 128.35 61.6766C126.798 59.9092 126.617 59.1945 126.617 59.1945" stroke="white" stroke-width="1.4" stroke-miterlimit="10"/>
<path d="M129.667 60.3094C129.667 60.3094 126.468 59.1053 124.657 58.7213C122.834 58.3052 119.947 56.6724 119.133 55.8794C118.32 55.0864 118.227 54.8613 118.227 54.8613" stroke="white" stroke-width="1.4" stroke-miterlimit="10"/>
<path d="M128.002 56.7106C128.002 56.7106 124.272 55.3112 123.467 55.4539C122.693 55.5835 118.406 55.3894 117.344 54.9988C116.25 54.6213 113.648 53.7733 112.824 52.4964C111.999 51.2194 111.858 50.6011 111.858 50.6011" stroke="white" stroke-width="1.4" stroke-miterlimit="10"/>
<path d="M126.299 53.2022C126.299 53.2022 123.772 52.8117 122.053 51.8267C120.353 50.7964 120.159 50.6884 120.159 50.6884C120.159 50.6884 118.793 51.6622 116.079 51.2735C113.313 50.9432 111.189 50.8008 110.294 49.6278C109.399 48.4547 109.025 46.9931 109.366 46.1769C109.753 45.3796 112.118 45.01 114.003 45.0254C115.868 45.0862 119.233 43.8557 119.233 43.8557C119.233 43.8557 119.864 43.7468 122.309 44.3962C124.813 45.0966 129.69 45.5371 130.015 45.7794C130.34 46.0218 132.842 46.5351 133.574 47.587C134.378 48.7221 136.21 51.5389 136.897 52.5719C137.539 53.5858 140.64 56.9334 141.709 58.0726C142.823 59.2308 146.034 61.106 146.289 61.4522C146.544 61.7984 146.732 62.6229 146.732 62.6229C146.732 62.6229 148.172 66.3144 148.602 70.3829C149.026 74.5289 150.219 77.9839 150.348 78.7572" stroke="white" stroke-width="1.4" stroke-miterlimit="10"/>
<path d="M138.84 54.7422C138.84 54.7422 139.389 54.8922 140.812 55.8863C142.234 56.8803 146.397 59.7925 147.834 61.0059C149.271 62.2193 153.194 63.5395 153.194 63.5395C153.194 63.5395 155.417 65.2945 155.517 67.0942C155.729 67.7957 158.082 68.22 159.131 70.6824C160.179 73.1449 159.323 74.1722 159.287 77.38C159.259 80.6975 159.398 86.1626 160.131 89.5055C160.897 92.8353 161.856 95.4469 163.295 98.3125C164.715 101.223 168.17 107.995 168.513 108.831" stroke="white" stroke-width="1.4" stroke-miterlimit="10"/>
<path d="M105.343 69.0525C105.343 69.0525 106.224 67.2634 107.703 66.6564C108.254 66.1674 108.16 65.7553 107.977 65.4923C107.794 65.2293 107.713 63.3843 106.004 61.4182C105.262 60.7085 105.008 60.3623 103.548 60.9239C103.033 61.135 102.651 61.6676 102.651 61.6676" stroke="white" stroke-width="1.4" stroke-miterlimit="10"/>
</svg>
