<svg width="48" height="48" viewBox="0 0 48 48" fill="none" xmlns="http://www.w3.org/2000/svg">
<path d="M23.1589 41.48C24.9039 41.48 26.3185 40.066 26.3185 38.3218C26.3185 36.5776 24.9039 35.1636 23.1589 35.1636C21.4139 35.1636 19.9993 36.5776 19.9993 38.3218C19.9993 40.066 21.4139 41.48 23.1589 41.48Z" fill="#191827"/>
<path fill-rule="evenodd" clip-rule="evenodd" d="M23.1589 38.48C23.2483 38.48 23.3185 38.4079 23.3185 38.3218C23.3185 38.2357 23.2483 38.1636 23.1589 38.1636C23.0695 38.1636 22.9993 38.2356 22.9993 38.3218C22.9993 38.408 23.0695 38.48 23.1589 38.48ZM26.3185 38.3218C26.3185 40.066 24.9039 41.48 23.1589 41.48C21.4139 41.48 19.9993 40.066 19.9993 38.3218C19.9993 36.5776 21.4139 35.1636 23.1589 35.1636C24.9039 35.1636 26.3185 36.5776 26.3185 38.3218Z" fill="white"/>
<path fill-rule="evenodd" clip-rule="evenodd" d="M15.5059 29.3409C19.792 24.6084 26.9894 24.6084 31.2755 29.3409C32.017 30.1596 31.9543 31.4244 31.1356 32.1659C30.3169 32.9074 29.0521 32.8447 28.3107 32.026C25.6124 29.0467 21.1691 29.0467 18.4708 32.026C17.7293 32.8447 16.4645 32.9074 15.6458 32.1659C14.8271 31.4244 14.7645 30.1596 15.5059 29.3409Z" stroke="#666666" stroke-miterlimit="10" stroke-linecap="round" stroke-linejoin="round"/>
<path fill-rule="evenodd" clip-rule="evenodd" d="M8.1891 22.73C16.4663 13.5906 29.9828 13.5906 38.26 22.73C39.0015 23.5487 38.9389 24.8135 38.1202 25.555C37.3015 26.2965 36.0367 26.2338 35.2952 25.4151C28.6058 18.0289 17.8433 18.0289 11.1539 25.4151C10.4124 26.2338 9.14766 26.2965 8.32895 25.555C7.51024 24.8135 7.44763 23.5487 8.1891 22.73Z" stroke="#666666" stroke-miterlimit="10" stroke-linecap="round" stroke-linejoin="round"/>
<path fill-rule="evenodd" clip-rule="evenodd" d="M23.8375 5.00088C31.7982 5.0656 39.6756 8.69152 46.4142 15.4302C47.1953 16.2112 47.1953 17.4776 46.4142 18.2586C45.6332 19.0397 44.3668 19.0396 43.5858 18.2586C37.4384 12.1112 30.5204 9.05535 23.8049 9.00075C17.1078 8.9463 10.3454 11.8734 4.46557 18.2055C3.71397 19.0149 2.4485 19.0617 1.63908 18.3101C0.829667 17.5585 0.782803 16.2931 1.53441 15.4836C8.06384 8.45201 15.8584 4.93601 23.8375 5.00088Z" stroke="#666666" stroke-miterlimit="10" stroke-linecap="round" stroke-linejoin="round"/>
</svg>
