<svg width="37" height="48" viewBox="0 0 37 48" fill="none" xmlns="http://www.w3.org/2000/svg">
<path d="M35.925 24.5251L18.625 7.72512C18.325 7.42512 17.925 7.42512 17.625 7.72512L0.225 24.6251C-0.075 24.9251 -0.075 25.3251 0.225 25.6251C0.325 25.7251 0.425024 25.8251 0.625024 25.8251L13.625 25.8251L11.725 25.8251L11.725 47.2251L24.425 47.2251L24.425 25.7251L31.325 25.7251L35.425 25.7251C35.625 25.7251 35.825 25.6251 35.925 25.5251C36.225 25.2251 36.225 24.8251 35.925 24.5251Z" fill="url(#paint0_linear_27_890)"/>
<rect x="36.15" y="4.00012" width="36" height="4" transform="rotate(-180 36.15 4.00012)" fill="#D9D9D9"/>
<defs>
<linearGradient id="paint0_linear_27_890" x1="18" y1="47" x2="18" y2="8" gradientUnits="userSpaceOnUse">
<stop offset="0.34" stop-color="#A5A2A3"/>
<stop offset="0.93" stop-color="#F5F5F5"/>
</linearGradient>
</defs>
</svg>
